<svg xmlns="http://www.w3.org/2000/svg" viewBox="0 0 50.03 48.76"><defs><style>.cls-1{opacity:0.85;}.cls-2{fill:#fff;}</style></defs><title>logo-sena</title><g id="Layer_2" data-name="Layer 2"><g id="Layer_1-2" data-name="Layer 1"><g class="cls-1"><path class="cls-2" d="M30.54,5.55A5.52,5.52,0,1,1,25,0a5.52,5.52,0,0,1,5.55,5.55S30.54,5.54,30.54,5.55Z"/><path class="cls-2" d="M7.56,14.58a.74.74,0,0,0-.54-.5A3.13,3.13,0,0,0,6,14c-.83,0-1.2.15-1.2.42,0,1.09,6.61.42,6.61,3.07C11.43,19.13,9.21,20,6,20S1,18.83,1,17.51H4.59a1,1,0,0,0,.62.58,3,3,0,0,0,1.07.18c.94,0,1.56-.19,1.56-.54,0-1.1-6.61-.34-6.61-3.13,0-1.55,2.11-2.33,5-2.33,3.19,0,4.65,1,4.92,2.31Z"/><path class="cls-2" d="M13.19,19.75V12.46h9.37v1.7H17v1h4.74v1.7H17V18h5.8v1.7h-9.6Z"/><path class="cls-2" d="M32.24,16.44l-.14-1.66V12.46h3.61v7.29H32.17l-4.1-4,.14,1.66v2.31h-3.6V12.46h3.53l4.1,4Z"/><path class="cls-2" d="M37,19.75l4.12-7.29h3.83l4.12,7.29H45.29l-.45-1H41.1l-.43,1Zm6-5.09L41.81,17.3h2.38Z"/><path class="cls-2" d="M49.88,21.3h-23l13.38,24,3-2.59-10.73-18H50Z"/><path class="cls-2" d="M.14,21.3h23L9.77,45.3l-3-2.59,10.73-18H0Z"/><path class="cls-2" d="M12.34,47.22,24.91,25.4,37.83,47l-3.41,1.55L25.19,32l-9.82,16.8-3-1.53Z"/></g></g></g></svg>