<?xml version="1.0" encoding="utf-8"?>
<!-- Generator: Adobe Illustrator 21.0.2, SVG Export Plug-In . SVG Version: 6.00 Build 0)  -->
<svg version="1.1" id="Capa_1" xmlns="http://www.w3.org/2000/svg" xmlns:xlink="http://www.w3.org/1999/xlink" x="0px" y="0px"
	 viewBox="0 0 346 89.8" style="enable-background:new 0 0 346 89.8;" xml:space="preserve">
<style type="text/css">
	.st0{opacity:0.9;}
	.st1{fill:#FFFFFF;}
</style>
<title>asset-logos-svg</title>
<g class="st0">
	<path class="st1" d="M185.8,43.6c-0.6,0-0.2-0.6-0.5-0.8c-0.5,0.1-0.9,0.3-1.4,0.6c0.4,0.3,0.7,0.1,1,0.3c0.1,0.3-0.1,0.4-0.3,0.5
		c-1.3,0.8-2.6,1.6-3.9,2.4c-0.3,0.3-0.7,0.3-1.1,0.2c0.2-0.8,0.7-1.4,1.4-1.8c0.7-0.4,1.4-0.8,2.3-1.3c-2.4-0.3-4.7-1-6.9-2
		c0,1.6,0.5,3.2-0.5,4.6c-0.2-1.4,0.2-2.8-0.5-4.2c-0.5,0.9-0.8,1.9-2.1,2c0.9-0.9,1.1-2,1.7-3.1c-1.6-1-3.2-2.2-4.6-3.4
		c-0.1,8.6-0.1,17.2-0.1,25.8c-1.9,0.1-3.7,0.1-5.5,0c-0.3-0.4-0.4-0.9-0.3-1.3c0-12.1,0-24.1,0-36.2c-0.1-2.4,0-4.9,0.4-7.3
		c0.4-2.2,1.2-4.4,2.3-6.3c0.3-0.5,0.7-0.9,0.6-1.6c-0.1-0.4,0.3-0.6,0.7-0.6c0.1,0.4-0.3,0.6-0.2,1c2.1,0.2,4.2,0.8,6.1,1.6
		c1.9,0.8,3.6,2,5.5,2.9c-0.9-1.6-7-5.2-11.1-5.6c0.9-1.3,2-2.5,3.2-3.6c-0.7-0.3-1.5-0.4-2.3-0.4c-0.9,0-1.9,0-2.8,0
		c-0.4,0-0.8-0.1-0.9-0.5s0.3-0.7,0.8-0.8c1.2-0.3,2.5-0.3,3.7,0.1c0.9,0.3,1.8,0.6,2.8,0.6c0.9-0.1,1.6-0.9,2.5-1.3
		c10.3-5.5,23.1-1.6,28.5,8.7c5,9.5,2.2,21.2-6.6,27.3c-0.3,0.2-0.6,0.3-0.7,0.7c1,0,2,0.3,2.9,0.8c0,0.8-0.9,1.1-1,1.9
		c0.5-0.1,0.9-0.4,1.2-0.8c0.4-0.4,1-0.5,1.4-0.1l0,0c0.7,0.5,1.2,1.2,1.7,1.9c0.3,0.4,0.2,0.9-0.2,1.2c-0.6,0.6-1.3,1.1-2,1.6
		c-0.3,0.2-0.7,0.2-0.8,0.8c1.6-0.3,2.5-1.4,3.9-2c0.6,1.2,1.1,2.5,1.3,3.8c0.1,0.3-0.1,0.6-0.4,0.8l-1,0.6c0.1,0.1,0.1,0.2,0.2,0.2
		c1.5-0.1,1.6,0,1.5,1.4c-0.1,2.2-0.9,4.3-2.3,6c-0.2,0.3-0.5,0.6-0.9,0.7c-1.1-1.2-2.3-2.3-3.5-3.3c-1.3-1-2.7-1.8-3.9-2.8
		c-0.4,0.3-0.3,0.5-0.4,0.8c-0.4,1.9-1,3.8-1.6,5.7c-0.1,0.3-0.2,0.5-0.2,0.8c0,0.4-0.2,0.6-0.7,0.6c-0.5-0.7-0.6-1.5-0.4-2.3
		c0.4-1.7,0.9-3.4,1.6-5.1c0.3-0.7,0.7-1.5,0.2-2.2c0.2-0.5,0.9-0.2,0.9-0.9c-0.3-0.2-0.6-0.2-0.9-0.1c-0.7,0.1-1.3-0.3-1.5-1l0,0
		c-0.2-1.1-1.2-1.9-2.3-1.9c-0.4-0.1-0.9-0.2-1.3-0.4C187.1,46.8,185.8,45.3,185.8,43.6c0.5,0.1,1,0,1.5-0.2l-0.9-1.8
		C186,42.2,185.8,42.9,185.8,43.6z M192.9,42.3c-0.3,0.7-0.8,1.3-1.3,1.8c-0.8-1.1-0.8-1.1-1.4-0.9c0,0.4,0.3,0.7,0.2,1.1
		c-1.7-1.1-1.7-1.1-2.8-0.6c1.3,1.3,2.9,1.7,4.4,2.7c-0.3-1.2,0.6-1.6,1-2.3s1-1.4,1.5-2.3C194,42,193.5,42.1,192.9,42.3
		c1.2-2,2.2-4.1,3.1-6.3c0.3-0.7,0.4-1.5,0.3-2.3c-0.2-1.4-0.6-2.8-1.1-4.1c-0.1-0.3-0.2-0.7-0.6-0.9c-0.2,0-0.3,0.1-0.4,0.3
		c-1.4,1.6-2.7,3.3-3.9,5.1c-1.3,2.1-1.4,4.7-0.2,6.9C191.2,43.1,190.7,43,192.9,42.3L192.9,42.3z M174.6,25.5
		c1.4-1.1,3.4-0.9,4.7,0.4c0.7,0.6,1.5,0.9,2.4,1.1c1.9,0.6,4,0.5,5.8-0.4c1-0.5,1.7-1.5,1.8-2.6c0.2-2.2-1.2-4.3-3.4-4.9
		c-1.2-0.3-2.4-0.2-3.6,0.1c-1.2,0.1-2.3,0.6-3.2,1.3c-0.5,0.4-1.1,0.8-1.6,1.3C176.3,22.8,175.3,24.1,174.6,25.5L174.6,25.5z
		 M185.3,37.5c1.2,0.4,2.5-0.1,3.1-1.2c0.6-1,1-2,1.4-3.1c0.1-0.4,0.2-0.9,0.1-1.3c0-0.8-0.5-1.5-1.3-1.7c-0.6-0.2-1.3,0.1-1.7,0.7
		c-0.9,0.9-1.4,2.2-1.3,3.4C185.7,35.4,185.6,36.5,185.3,37.5L185.3,37.5z M190.7,32.2c1.4-1.1,2.6-2.5,3.4-4
		c0.2-0.3,0.1-0.7-0.2-0.9c-0.9-1-2-2-3.1-2.8c-0.6-0.4-0.9-0.3-1.1,0.3c-0.6,1.2-0.7,2.6-0.2,3.8C190.1,29.7,190.5,31,190.7,32.2
		L190.7,32.2z M184.6,37.2c0.7-0.8,0.8-1.2,0.2-1.9c-0.7-1-1.4-2-2.1-2.9c-1-1.3-2.3-2.4-3.8-3.2c-0.4-0.2-0.8-0.5-1.4-0.2
		c1.1,1.5,1.9,3.1,2.9,4.6C181.4,35.2,182.8,36.5,184.6,37.2L184.6,37.2z M176.8,30.2c-0.9,1.7-1.4,6.9-0.8,8.6
		c-1,1.1-0.9,2.1,0.2,2.4c0.1-0.1,0.1-0.3,0-0.4c-0.2-1.1,0.1-2.2,0.9-3c0.4-0.4,0.6-1,0.4-1.6c-0.1-0.7-0.2-1.4-0.2-2.1
		C177.2,32.7,177,31.4,176.8,30.2L176.8,30.2z M183.4,10.7c-0.1-0.3-0.1-0.4-0.2-0.4c-2.7-1.9-5.6-3.4-8.6-4.7
		c-0.7-0.4-1.6-0.1-2,0.6C176.4,7,179.8,8.9,183.4,10.7L183.4,10.7z M190.1,43c-0.8-1.5-1.7-2.8-1.9-4.5c-0.9,0.4-1.3,1-1,1.9
		c0.4,1,1,1.9,1.9,2.6C189.3,43.3,189.8,43.3,190.1,43z M180.8,29.9c1.5,1.5,2.9,3.1,4.2,4.9c0.3-0.2,0.3-0.4,0.2-0.5
		c-0.7-1.5-1.5-2.9-2.6-4.2C182.2,29.5,181.6,29.5,180.8,29.9L180.8,29.9z M185.3,13c-1,0.7-3.7,5-3.6,5.8
		C182.4,18.5,184.9,14.5,185.3,13z M178.1,35.9c0.4-0.8,0.9-1.6,1.3-2.4c0.2-0.5,0-1.1-0.4-1.3C177.9,33.5,177.7,34.1,178.1,35.9
		L178.1,35.9z M193.9,48.7l2.9,0.9c-0.4-0.5-0.8-1-1.4-1.3C195,49.1,194.4,48.5,193.9,48.7L193.9,48.7z"/>
	<path class="st1" d="M278.9,47.7c-0.1-1.8-0.1-3.5,0-5.1c1.3-0.4,19-0.4,20.3,0c0.2,0.3,0.2,0.6,0.2,0.9v21.1c0,0.3,0,0.7-0.2,1
		c-1.8,0.1-3.6,0-5.6,0v-8l-0.2-0.1c-2.7,2.4-5.9,4.2-9.4,5c-0.4,0.9,0,1.9-0.3,3H274c-0.3-1,0-2-0.2-3c-2-0.6-3.9-1.4-5.7-2.4
		c-1,0.5-1.4,1.5-2.4,2.1l-6.9-6.9c0.6-0.9,1.5-1.5,2.2-2.4c-1-1.8-1.8-3.7-2.3-5.6c-1-0.3-2.1,0-3.1-0.3v-9.7
		c0.7-0.2,1.5-0.3,2.2-0.2c0.5,0.1,1-0.3,1.1-0.8c0.5-1.7,1.2-3.4,2.1-5c-0.6-0.9-1.5-1.5-2-2.3l7-7c0.6,0.5,1.1,1,1.6,1.6
		c0.3,0.3,0.6,0.5,1,0.2c1.7-0.9,3.4-1.7,5.3-2.2c0.3-1,0-2,0.3-3h9.7c0.4,0.5,0.2,1.1,0.2,1.7c0,1.1,0,1.1,1,1.4
		c1.4,0.4,2.8,1,4.1,1.7c0.4,0.2,0.8,0.4,1.1,0.6l1.6-2.1l7.1,7c-0.4,0.8-1.3,1.2-1.8,2c1.1,1.8,1.9,3.7,2.4,5.8
		c-0.3,0.4-0.6,0.3-0.9,0.3c-1.4,0-2.9,0-4.3,0c-0.6,0.1-1.1-0.3-1.3-0.8c-3.2-7.6-12-11.2-19.6-8s-11.2,12-8,19.6s12,11.2,19.6,8
		c3.3-1.4,6-3.9,7.6-7.1c0.2-0.3,0.3-0.7,0.3-1.1c-2.3,0-4.7,0-7,0S281.3,47.8,278.9,47.7z"/>
	<path class="st1" d="M309.6,59.9v25.9h-5.4c-0.4-0.4-0.3-0.9-0.3-1.4V48.8c0-0.6,0-1.2,0-1.8c-0.7-11.7,7.4-21.3,18.4-22.7
		c11.5-1.5,22.1,6.6,23.6,18.1c0.1,0.9,0.2,1.8,0.2,2.7c0.1,9.3-6,17.6-15,20.3c-7.5,2.2-14.3,0.6-20.3-4.6
		C310.4,60.5,310,60.2,309.6,59.9z M324.9,60.2c8.3,0,15.1-6.7,15.1-15s-6.7-15.1-15-15.1s-15.1,6.7-15.1,15v0.1
		C309.9,53.5,316.6,60.2,324.9,60.2z"/>
	<path class="st1" d="M252.2,47c-0.5,2-1.2,4-2.3,5.8c0.6,0.9,1.5,1.5,2.1,2.2l-7,7c-0.8-0.5-1.3-1.4-2.2-2
		c-1.8,1.1-3.7,1.9-5.6,2.4c-0.4,1,0,2-0.3,3h-9.7c-0.4-0.9,0-1.9-0.3-2.9c-2-0.5-4-1.3-5.8-2.3c-0.9,0.5-1.3,1.4-2,1.8l-7-7
		c0.4-0.5,0.8-0.9,1.3-1.3c0.3-0.2,0.4-0.7,0.2-1c-1-1.7-1.7-3.6-2.2-5.5c-0.9-0.3-1.9,0-2.8-0.3v-9.8c0.9-0.4,1.8,0,2.8-0.3
		c0.6-2,1.4-4,2.4-5.8c-0.4-0.9-1.3-1.3-1.8-2l7.1-7.3l1.6,2.1c1.9-1.1,4-1.9,6.1-2.5c0.4-0.9,0-1.9,0.3-2.9h9.8
		c0.3,0.9,0,1.9,0.3,2.9c1.5,0.4,2.9,1,4.2,1.7c1.6,0.8,1.6,0.8,2.9-0.5c0.2-0.3,0.5-0.5,0.8-0.7l7,7.1c-0.4,0.6-1.3,1.2-2,2.1
		c1,1.7,1.8,3.6,2.2,5.5c-0.2,0.2-0.6,0.3-0.9,0.3c-1.4,0-2.8,0-4.2,0c-0.7,0.1-1.3-0.4-1.4-1c-1.8-4.2-5.3-7.3-9.7-8.5
		c-8-2.4-16.4,2.1-18.8,10.2s2.1,16.4,10.2,18.8c7.4,2.2,15.2-1.5,18.2-8.5c0.2-0.6,0.8-1,1.4-0.9C248.7,47.1,250.4,47,252.2,47z"/>
	<path class="st1" d="M257.8,77.6c-0.4,0.2-0.8,0.1-1.1-0.1c-0.1-2.1,0-4.2-0.1-6.2c0.2-0.2,0.6-0.3,0.9-0.2c0.3,0.2,0,0.6,0.3,0.8
		c1.3-1,2.5-1.3,3.7,0.1c0.3-0.1,0.5-0.3,0.7-0.5c0.9-0.7,2.2-0.6,2.9,0.2c0.3,0.3,0.4,0.7,0.5,1.1c0.2,1.6,0.2,3.1,0,4.7
		c-0.1,0.1-0.3,0.2-0.5,0.2s-0.4,0-0.5-0.2c-0.1-1-0.1-2.1-0.1-3.1c0-0.4,0-0.9-0.1-1.3c-0.2-0.6-0.5-1-1.1-1s-1.2,0.4-1.3,1.1
		c-0.1,0.5-0.1,1.1-0.1,1.6c0,0.9,0,1.8-0.1,2.7c-0.3,0.2-0.6,0.2-0.9,0.1c-0.1-0.1-0.2-0.2-0.2-0.4c0-1,0-2.1,0-3.1
		c0-1.3-0.5-2.1-1.3-2.1s-1.5,0.8-1.5,2.2C257.9,75.3,257.9,76.5,257.8,77.6z"/>
	<path class="st1" d="M171.7,81.4c-2.5-0.6-4-0.2-4.8,1.2c-0.8,1.4-0.7,3.2,0.2,4.6c1,1.1,2.6,1.5,4,0.9c0.1-0.8,0.1-1.6,0-2.4
		c-0.5-0.4-1.1,0-1.6-0.3c-0.2-0.2-0.2-0.5,0-0.8c0.9-0.1,1.8-0.1,2.6,0c0.3,1.4,0.3,2.9,0.1,4.4c-1.6,0.7-3.4,0.7-5,0
		c-1.3-0.7-2.1-2-2.1-3.4c-0.4-2.6,1.4-5,4-5.4l0,0c0.7-0.1,1.5,0,2.2,0.2C172,80.5,172.1,80.6,171.7,81.4z"/>
	<path class="st1" d="M169.8,73.4c1.3,1.1,1.1,2.7,1.6,4.1c-0.3,0.2-0.7,0.2-1.1,0.1c-0.3-0.7-0.6-1.5-0.7-2.3
		c-0.4-1.3-1.1-1.7-2.6-1.3c-0.3,1.2,0.1,2.4-0.2,3.5c-0.3,0.2-0.7,0.2-1.1,0.1v-8.5c1.4-0.4,2.8-0.3,4.1,0.1
		c1.1,0.5,1.6,1.8,1.1,2.9c-0.1,0.2-0.2,0.4-0.4,0.6C170.4,72.9,170.1,73.2,169.8,73.4z M167,72.9c1.1,0.1,2.2,0.1,2.8-0.9
		c0.3-0.5,0.2-1.2-0.3-1.6c-0.7-0.6-1.7-0.8-2.6-0.4C166.8,70.9,166.8,71.9,167,72.9L167,72.9z"/>
	<path class="st1" d="M197.8,71.8v-3.1c0.3-0.2,0.7-0.3,1-0.1v9c-0.5,0.2-0.9,0.2-0.9-0.5c-0.4,0-0.6,0.3-0.8,0.5
		c-1.1,0.7-2.5,0.3-3.2-0.8c-0.1-0.1-0.2-0.3-0.2-0.5c-0.3-0.8-0.4-1.6-0.3-2.4C193.5,71.8,195.4,70.1,197.8,71.8z M197.6,74.4
		c0-0.3,0-0.5,0-0.8c-0.1-0.9-0.8-1.5-1.6-1.6c-0.8,0-1.5,0.5-1.8,1.3s-0.3,1.7,0,2.5c0.3,0.9,1.3,1.4,2.2,1c0.5-0.2,0.9-0.6,1-1
		C197.6,75.3,197.6,74.9,197.6,74.4L197.6,74.4z"/>
	<path class="st1" d="M262.8,89c-0.6,0.3-1,0.1-1-0.5h-0.2c-0.9,0.9-2.2,1.1-3.3,0.4c-1.1-0.7-1.6-2-1.4-3.3
		c0.1-2.1,1.5-3.4,3.3-3.1c0.5,0.1,1,0.4,1.4,0.6c0.1-1.1-0.1-2.2,0.1-3.2c0.3-0.2,0.6-0.2,0.9-0.1C263,82.9,263,86,262.8,89z
		 M261.6,85.7c0-0.2,0-0.4,0-0.6c-0.1-0.8-0.7-1.5-1.5-1.7c-0.8,0-1.6,0.5-1.8,1.2c-0.4,0.8-0.4,1.8,0,2.6c0.4,0.9,1.4,1.3,2.2,0.9
		c0.4-0.2,0.7-0.5,0.9-0.9C261.6,86.8,261.7,86.2,261.6,85.7L261.6,85.7z"/>
	<path class="st1" d="M185.5,71.6v-3c0.3-0.2,0.7-0.3,1-0.1c0.3,0.2,0.4,6.7,0.2,9.1c-0.5,0.2-0.9,0.2-1.1-0.5
		c-0.3,0-0.5,0.3-0.7,0.4c-1.2,0.8-2.8,0.4-3.6-0.8c-0.1-0.2-0.2-0.4-0.3-0.6c-0.4-1-0.4-2.1,0-3.1c0.4-1.4,1.9-2.2,3.4-1.8
		c0.3,0.1,0.5,0.2,0.7,0.3C185.1,71.6,185.3,71.6,185.5,71.6z M185.5,74.5c0-0.3,0-0.5,0-0.8c0-0.8-0.7-1.5-1.5-1.7
		c-0.8,0-1.6,0.5-1.9,1.3c-0.3,0.8-0.3,1.7,0,2.5c0.3,0.7,0.9,1.1,1.7,1.1c0.7,0,1.3-0.5,1.5-1.2C185.5,75.3,185.5,74.9,185.5,74.5
		L185.5,74.5z"/>
	<path class="st1" d="M214.7,83.3c0-0.7,0-1.2,0-1.7s0-1,0.1-1.5c0.3-0.2,0.7-0.2,1,0v9c-0.6,0.3-0.9,0.2-1-0.5c-0.1,0-0.2,0-0.2,0
		c-0.8,0.9-2.2,1-3.2,0.4c-1.1-0.7-1.7-2-1.5-3.3c-0.1-1.4,0.8-2.7,2.2-3.1C213,82.4,214,82.6,214.7,83.3z M214.7,86
		c0-0.3,0-0.5,0-0.8c0-0.9-0.8-1.7-1.8-1.7c-0.8,0-1.4,0.5-1.6,1.2c-0.4,0.9-0.3,1.9,0.1,2.8c0.4,0.8,1.4,1.1,2.2,0.7l0,0
		c0.2-0.1,0.4-0.2,0.5-0.4C214.6,87.3,214.8,86.6,214.7,86L214.7,86z"/>
	<path class="st1" d="M240.7,85.7c-0.3,1.2,0,2.2-0.2,3.3c-0.3,0.2-0.7,0.2-1,0.1v-8.6c1.1-0.3,2.3-0.3,3.4-0.1
		c1.1,0.2,2,1.1,2.1,2.2c0.1,1.2-0.6,2.3-1.7,2.8C242.4,85.6,241.5,85.7,240.7,85.7z M240.6,84.5c0.9,0.4,2,0.1,2.7-0.6
		c0.5-0.6,0.5-1.4,0-2c-0.7-0.7-1.8-0.8-2.7-0.4C240.5,82.5,240.5,83.5,240.6,84.5L240.6,84.5z"/>
	<path class="st1" d="M218.6,69.9c-1.7-0.3-3.4-0.6-4.5,1.1c-0.9,1.3-1,3-0.1,4.4c1.1,1.8,2.8,1.6,4.5,1.3c0.3,0.3,0.3,0.5,0.3,0.9
		c-1.4,0.6-3,0.5-4.4-0.1c-1.3-0.7-2.1-2-2.2-3.4c-0.5-2.5,1.2-4.9,3.7-5.4c0.6-0.1,1.2-0.1,1.7,0c0.3,0,0.5,0.1,0.8,0.2
		C219,69.1,219,69.4,218.6,69.9z"/>
	<path class="st1" d="M240.3,71.1c1.7,0,3,1.3,3.1,2.9c0,0.2,0,0.3,0,0.5c0.1,1.7-1.1,3.3-2.9,3.4c-0.1,0-0.2,0-0.2,0
		c-1.7,0-3.1-1.4-3.1-3.1c0-0.1,0-0.2,0-0.3c-0.1-1.8,1.2-3.3,2.9-3.4C240.2,71.1,240.2,71,240.3,71.1z M238.3,74.3
		c0,0.5,0.1,1.1,0.3,1.6c0.3,0.6,0.9,1.1,1.6,1.1c0.7,0,1.3-0.4,1.5-1c0.5-1,0.5-2.2-0.1-3.1c-0.4-0.7-1.4-1-2.1-0.6
		C238.8,72.6,238.3,73.4,238.3,74.3L238.3,74.3z"/>
	<path class="st1" d="M223.9,71.1c1.7-0.1,3.1,1.2,3.1,2.9c0,0.1,0,0.3,0,0.4c0.2,1.8-1.1,3.3-2.9,3.5c-0.1,0-0.1,0-0.2,0
		c-1.7,0-3.1-1.3-3.2-3c0-0.1,0-0.2,0-0.4c-0.1-1.7,1.2-3.3,2.9-3.4C223.7,71.1,223.8,71.1,223.9,71.1z M221.9,74.3
		c0,0.6,0.1,1.1,0.4,1.6c0.3,0.6,0.9,1,1.6,1c0.7,0,1.3-0.4,1.5-1c0.6-1,0.5-2.2-0.1-3.1c-0.4-0.8-1.4-1.1-2.2-0.6l0,0
		C222.3,72.6,221.9,73.4,221.9,74.3L221.9,74.3z"/>
	<path class="st1" d="M255.9,86c0.1,1.7-1.2,3.3-2.9,3.4c-0.1,0-0.2,0-0.3,0c-1.7,0-3.1-1.4-3.1-3c0-0.1,0-0.2,0-0.3
		c-0.1-1.7,1.1-3.3,2.9-3.4c0.1,0,0.2,0,0.3,0c1.7,0.1,3.1,1.5,3,3.2C255.9,85.8,255.9,85.9,255.9,86z M254.7,86
		c0-1.4-0.8-2.5-1.9-2.5s-2,1.1-2,2.5c-0.1,1.2,0.7,2.2,1.9,2.4C253.9,88.3,254.8,87.2,254.7,86z"/>
	<path class="st1" d="M296.1,71.1c1.7,0,3,1.3,3.1,2.9c0,0.2,0,0.3,0,0.5c0.1,1.7-1.1,3.3-2.9,3.4c-0.1,0-0.2,0-0.3,0
		c-1.7,0-3.1-1.4-3.1-3.1c0-0.1,0-0.2,0-0.3c-0.1-1.8,1.2-3.3,3-3.4C295.9,71.1,296,71,296.1,71.1z M298,74.5c0-0.5-0.1-1.1-0.4-1.6
		c-0.3-0.6-0.9-1-1.5-0.9c-0.7,0-1.3,0.3-1.6,0.9c-0.3,0.5-0.4,1-0.4,1.6c-0.1,1.2,0.7,2.3,1.8,2.5C297.2,76.9,298.1,75.8,298,74.5
		L298,74.5z"/>
	<path class="st1" d="M265.2,82.7c0.3-0.2,0.7-0.2,1,0c0.1,1,0.1,2.1,0.1,3.1c0,0.4,0,0.9,0.1,1.3c0.1,0.6,0.4,1.1,1,1.2
		s1.2-0.3,1.4-0.8c0.2-0.4,0.3-0.8,0.2-1.3v-3.5c0.3-0.2,0.7-0.2,1-0.1V89c-0.5,0.2-0.8,0.2-0.9-0.5c-0.3,0-0.5,0.3-0.7,0.4
		c-1.4,0.9-2.8,0.2-3.1-1.5C265,85.8,265,84.3,265.2,82.7z"/>
	<path class="st1" d="M195.7,82.5c1.7,0,3.1,1.3,3.1,3c0,0.1,0,0.2,0,0.3c0.2,1.8-1.1,3.3-2.9,3.5c-0.1,0-0.2,0-0.3,0
		c-1.7,0-3.1-1.4-3.1-3.1c0-0.1,0-0.2,0-0.3c-0.1-1.8,1.2-3.3,2.9-3.4C195.6,82.5,195.7,82.5,195.7,82.5z M197.6,86
		c0-1.4-0.8-2.5-1.9-2.5s-1.9,1-1.9,2.4s0.8,2.6,1.9,2.6C196.9,88.3,197.8,87.2,197.6,86L197.6,86z"/>
	<path class="st1" d="M289.4,82.5c1.7,0,3.1,1.4,3.1,3.1c0,0.1,0,0.2,0,0.3c0.2,1.7-1.1,3.3-2.9,3.5c-0.1,0-0.2,0-0.3,0
		c-1.7,0-3-1.4-3-3.1c0-0.1,0-0.1,0-0.2c-0.2-1.8,1.1-3.3,2.8-3.5C289.2,82.5,289.3,82.5,289.4,82.5z M291.2,86
		c0-1.4-0.8-2.5-1.9-2.5s-1.9,1-1.9,2.5s0.9,2.5,1.9,2.5C290.5,88.3,291.3,87.2,291.2,86z"/>
	<path class="st1" d="M230.5,83.8c-0.3-0.4-0.3-0.7,0.1-0.9c0.9-0.5,2-0.5,3-0.1c0.6,0.3,0.9,0.9,1,1.5c0.2,1.5,0,3.1,0.2,4.6
		c-0.4,0.3-1,0.2-1.3-0.2l0,0c-0.3,0.2-0.7,0.3-1,0.5c-1,0.4-2.1-0.1-2.5-1c-0.5-1-0.1-2.2,0.9-2.8c0.8-0.4,1.6-0.6,2.5-0.6
		C233.7,83.6,232.9,83.3,230.5,83.8z M233.5,86c-0.5-0.1-1.1-0.1-1.6,0.1c-0.6,0.1-1,0.7-0.9,1.3c0,0.5,0.3,0.9,0.8,1
		c0.6,0.2,1.2-0.1,1.5-0.6S233.7,86.6,233.5,86L233.5,86z"/>
	<path class="st1" d="M280.1,71.2c0.2-0.2,0.5-0.2,0.8-0.1c0.3,0.2,0.1,0.5,0.3,0.7c0.1,0,0.2,0,0.3-0.1c0.3-0.3,0.6-0.5,1-0.6
		c1.1-0.4,2.4,0.1,2.8,1.3c0.1,0.1,0.1,0.3,0.1,0.5c0.2,1.5,0.2,3.1,0.1,4.6c-0.3,0.2-0.7,0.2-1,0.1c-0.2-0.6-0.2-1.2-0.2-1.8
		c0-0.7,0-1.3,0-2.1c-0.1-1.1-0.5-1.6-1.4-1.6s-1.6,0.7-1.7,1.6v0.1c0,1,0,2,0,3c0,0.2,0,0.5-0.1,0.7c-0.3,0.3-0.6,0.1-1,0.1
		L280.1,71.2z"/>
	<path class="st1" d="M205.6,89c-0.3,0.2-0.6,0.2-0.9,0.1c-0.4-0.4-0.2-0.8-0.2-1.3c0-0.8,0-1.6,0-2.5c0-1.2-0.5-1.7-1.4-1.7
		s-1.7,0.8-1.7,1.7v0.1c0,0.9,0,1.8,0,2.8c0,0.3,0,0.6-0.1,0.8c-0.3,0.2-0.6,0.1-1,0c-0.2-2.1,0-4.2-0.1-6.3
		c0.2-0.2,0.6-0.3,0.9-0.2c0.3,0.2,0.1,0.6,0.4,0.8c0.4-0.3,0.8-0.5,1.2-0.7c1.1-0.5,2.4,0.1,2.9,1.2c0,0.1,0.1,0.2,0.1,0.4
		c0.1,0.5,0.2,0.9,0.1,1.4C205.7,86.8,205.8,87.9,205.6,89z"/>
	<path class="st1" d="M294.8,89c-0.3,0.2-0.7,0.2-1,0v-6.3c0.2-0.2,0.5-0.2,0.7-0.1c0.3,0.2,0.1,0.5,0.3,0.7c0.1,0.1,0.2,0,0.3-0.1
		c0.3-0.3,0.7-0.5,1.1-0.6c1.1-0.4,2.4,0.3,2.7,1.4c0,0.1,0,0.1,0,0.2c0.1,0.6,0.2,1.2,0.2,1.8c0,0.9,0,1.8,0,2.7
		c0,0.1,0,0.2-0.1,0.3c-0.2,0.2-0.6,0.2-0.8,0.1c-0.2,0-0.3-0.2-0.3-0.3c0-0.8,0-1.6,0-2.5c0-0.4,0-0.8,0-1.1
		c-0.1-1.1-0.5-1.6-1.5-1.6c-0.9,0-1.6,0.8-1.6,1.7c0,0.9,0,1.8,0,2.7C295,88.3,294.9,88.7,294.8,89z"/>
	<path class="st1" d="M230.6,77.5c-0.3,0.1-0.6,0.2-0.9,0.1c-0.3-0.3-0.4-4.2-0.2-6.4l0.3-0.1c0.2-0.1,0.4,0,0.6,0.1
		c0.2,0.2,0.1,0.5,0.3,0.8c0.2-0.2,0.5-0.4,0.8-0.5c1.1-0.7,2.5-0.4,3.2,0.6c0.2,0.3,0.3,0.7,0.4,1.1c0,0.4,0,0.9,0,1.3
		c0,1,0,2-0.1,3c-0.3,0.2-0.7,0.2-1,0.1c-0.1-0.8-0.2-1.7-0.1-2.5c0-0.5,0-1,0-1.4c-0.1-1-0.5-1.5-1.4-1.5c-0.8,0-1.5,0.5-1.7,1.3
		c0,0.4,0,0.8,0,1.1L230.6,77.5z"/>
	<path class="st1" d="M179,86.2h-4.1c-0.1,1.8,0.8,2.3,3.6,1.9c0.3,0.4,0.3,0.7-0.4,0.9c-1.5,0.6-3.1,0.1-4.1-1.1
		c-0.8-1.6-0.6-3.5,0.6-4.8c1-1,2.6-1,3.6,0c0.3,0.3,0.5,0.6,0.6,1C179.2,84.8,179.2,85.5,179,86.2z M177.9,85.4
		c-0.1-1.3-0.6-1.9-1.4-1.9s-1.5,0.7-1.6,1.9C175.8,85.4,176.9,85.4,177.9,85.4L177.9,85.4z"/>
	<path class="st1" d="M178.6,74.7h-4.1c0,1.8,0.8,2.3,3.6,2c0.3,0.5,0.3,0.8-0.4,0.9c-1.4,0.5-3.1,0.1-4-1.1
		c-0.8-1.6-0.6-3.5,0.6-4.8c1-1,2.6-1,3.6-0.1c0.3,0.3,0.5,0.6,0.7,1C178.8,73.3,178.8,74.1,178.6,74.7z M174.4,73.9
		c1,0,2,0,3.1-0.1c-0.1-1.3-0.6-1.8-1.4-1.9S174.6,72.6,174.4,73.9L174.4,73.9z"/>
	<path class="st1" d="M273.3,74.9c0.1,1.8,0.7,2.1,3.7,1.9c0.2,0.4,0.2,0.7-0.4,0.9c-1.6,0.5-3.5,0-4.1-1.2
		c-0.8-1.6-0.5-3.5,0.7-4.8c1-1,2.6-0.9,3.6,0.1c0.2,0.3,0.4,0.6,0.5,0.9c0.3,0.6,0.4,1.3,0.2,2C276.1,75,274.7,74.7,273.3,74.9z
		 M273.3,73.9c1,0.1,2,0.1,3.1,0c-0.1-1.3-0.6-1.9-1.4-1.9S273.5,72.6,273.3,73.9L273.3,73.9z"/>
	<path class="st1" d="M202.3,74.9c0.2,1.9,0.9,2.2,3.7,1.9c0.3,0.4,0.3,0.7-0.3,0.9c-1.5,0.6-3.2,0.1-4.1-1.2
		c-0.8-1.6-0.5-3.5,0.6-4.8c1-1,2.6-1,3.5,0c0.3,0.3,0.5,0.6,0.6,1c0.3,0.6,0.4,1.3,0.2,1.9C205.1,74.9,203.7,74.7,202.3,74.9z
		 M202.3,74c1,0,2,0,3.1-0.1c-0.1-1.3-0.6-1.8-1.4-1.9S202.5,72.6,202.3,74L202.3,74z"/>
	<path class="st1" d="M218.5,86.4c0.1,1.8,0.7,2.1,3.7,1.9c0.3,0.4,0.2,0.7-0.3,0.9c-1.5,0.6-3.2,0.1-4.1-1.2
		c-0.8-1.6-0.5-3.6,0.8-4.9c1-0.9,2.6-0.8,3.5,0.2c0.2,0.2,0.4,0.5,0.5,0.8c0.3,0.6,0.4,1.3,0.1,2c-0.7,0.1-1.4,0.1-2.1,0.1
		C219.9,86.2,219.2,86.3,218.5,86.4z M221.5,85.4c0-1.3-0.5-1.9-1.4-1.9s-1.5,0.7-1.6,1.9C219.5,85.5,220.5,85.5,221.5,85.4
		L221.5,85.4z"/>
	<path class="st1" d="M288.5,72.3c-0.3-0.4-0.6-0.2-0.9-0.4s0-0.6,0.8-0.9c0.2-0.4,0-0.9,0.2-1.3c0.3-0.3,0.6-0.2,0.9-0.3
		c0.4,0.5,0.1,1.1,0.4,1.6c0.4,0.3,0.9,0,1.3,0.2c0.1,0.6,0.1,0.6-1.4,1c-0.1,1.3-0.1,2.6,0,3.9c0.1,0.8,0.7,0.8,1.3,0.8
		c0.3,0.6,0.1,0.9-0.6,1c-0.9,0.2-1.8-0.4-2-1.3c0-0.2,0-0.3,0-0.5C288.5,74.8,288.5,73.5,288.5,72.3z"/>
	<path class="st1" d="M185.9,83.8c-0.3-0.4-0.7-0.2-0.9-0.4c-0.3-0.8,0.4-0.7,0.8-0.8c0.3-0.4,0-0.9,0.2-1.3
		c0.2-0.2,0.6-0.3,0.9-0.3c0.4,0.4,0,1.1,0.4,1.6c0.4,0.3,0.9,0,1.3,0.2c0.1,0.7,0.1,0.7-1.4,1c-0.1,1.3-0.1,2.7,0,4
		c0.1,0.8,0.8,0.6,1.3,0.7c0.3,0.6,0.1,0.9-0.5,1c-0.9,0.2-1.8-0.4-2-1.3c0-0.2,0-0.3,0-0.5C185.9,86.3,185.9,85,185.9,83.8z"/>
	<path class="st1" d="M250.2,71.3c0,0.1,0,0.3,0,0.4c0,0.2-0.1,0.3-0.1,0.4c-2.5-0.4-4,0.4-3.4,3.2c0.3,1.3,1.2,1.6,3.3,1.3
		c0.3,0.8,0.3,0.8-0.5,1c-1.3,0.4-2.6,0-3.5-1c-0.8-1.2-0.9-2.9-0.2-4.2c0.7-1.2,2.1-1.8,3.4-1.5C249.6,71.1,249.9,71.2,250.2,71.3z
		"/>
	<path class="st1" d="M276.1,83.7c-2.5-0.2-3.5,0.5-3.5,2.3s1,2.5,3.5,2.3c0.3,0.6,0.1,0.8-0.5,1c-1.3,0.4-2.7,0-3.6-1
		c-0.8-1.3-0.8-3,0-4.3c0.9-1.1,2.3-1.6,3.7-1.2C276.3,82.8,276.3,82.8,276.1,83.7z"/>
	<path class="st1" d="M281.9,88.3c0.4,0.7-0.1,0.9-0.6,1c-1.3,0.4-2.7,0-3.5-1.1c-0.8-1.3-0.9-2.9-0.1-4.2c0.7-1.2,2.1-1.7,3.5-1.4
		c0.3,0,0.6,0.1,0.9,0.3c0.1,0.3,0.1,0.6-0.2,0.8c-2.3-0.4-3.8,0.3-3.4,3C278.7,88.1,279.5,88.4,281.9,88.3z"/>
	<path class="st1" d="M183.7,83.7c-0.4-0.1-0.7-0.2-1.1-0.2c-0.4-0.1-0.9,0.2-1,0.6s0.1,0.8,0.5,1s0.9,0.4,1.3,0.7
		c0.9,0.5,1.2,1.7,0.7,2.6c-0.3,0.5-0.8,0.9-1.4,0.9c-0.8,0.2-1.6,0.1-2.3-0.3c-0.2-0.3-0.1-0.7,0.2-0.9c0.1,0,0.2,0,0.3,0
		c0.4,0.1,0.7,0.2,1.1,0.3c0.5,0.1,1-0.2,1.1-0.7s-0.1-0.9-0.6-1.1c-0.3-0.2-0.6-0.3-0.9-0.4c-1-0.4-1.4-1.4-1.1-2.4
		c0-0.1,0.1-0.2,0.1-0.3c0.7-0.9,2-1.3,3-0.7C184.1,83,184,83.3,183.7,83.7z"/>
	<path class="st1" d="M227.1,80.1c0.3-0.2,0.7-0.2,1,0v8.8c-0.1,0.1-0.3,0.2-0.4,0.2c-0.2,0-0.4,0-0.6-0.1V80.1z"/>
	<path class="st1" d="M247.2,83.4c0.9-0.8,0.9-0.8,1.9-0.8c0.2,0.3,0.2,0.6,0.1,0.9c-0.1,0.1-0.2,0.1-0.3,0.1c-1,0.1-1.8,1-1.7,2.1
		v0.1c0,1,0.1,2.1-0.1,3.1c-0.4,0.3-0.7,0.2-1.1,0.1c-0.2-2.1,0-4.2-0.1-6.3c0.3-0.3,0.5-0.3,0.8-0.3S246.9,83.2,247.2,83.4z"/>
	<path class="st1" d="M268.3,71.2c0.4-0.2,0.8-0.2,1.1,0v6.4c-0.1,0-0.3,0.1-0.4,0.1c-0.2,0-0.3,0-0.7,0
		C268.2,75.5,268.2,73.3,268.3,71.2z"/>
	<path class="st1" d="M253.6,77.5c-0.3,0.1-0.7,0.1-1,0v-6.2c0.3-0.2,0.7-0.2,1-0.1V77.5z"/>
	<path class="st1" d="M284.7,89c-0.3,0.2-0.7,0.2-1.1,0.1c-0.2-2.1,0-4.2-0.1-6.3c0.3-0.3,0.8-0.3,1.2-0.1
		C284.8,84.8,284.7,86.9,284.7,89z"/>
	<path class="st1" d="M189.9,82.7c0.3-0.2,0.7-0.2,1-0.1c0.2,2.1,0.2,4.3,0,6.4c-0.3,0.1-0.7,0.1-1,0
		C189.9,87,189.9,84.8,189.9,82.7z"/>
	<path class="st1" d="M187.2,67.7c0.8-1.1,1.5-2.3,2.1-3.6c0.6-0.8,1.1-1.6,1.5-2.5c0.1-0.4,0.6-0.5,0.9-0.5
		c0.3,0.1,0.2,0.4,0.1,0.5c-1.2,1.3-1.6,3-2.6,4.4c-0.3,0.6-0.7,1.1-1.2,1.6C187.8,67.8,187.5,67.8,187.2,67.7z"/>
	<path class="st1" d="M288.7,82c0.8-1.9,1-2,2.4-1.7C290.2,80.9,290,82,288.7,82z"/>
	<path class="st1" d="M197.3,80.2c-1,1.6-1.3,1.8-2.1,1.7C195.8,80.2,196,80,197.3,80.2z"/>
	<path class="st1" d="M191.3,80.9c0,0.5-0.2,0.8-0.7,0.8c-0.4,0.1-0.7-0.2-0.8-0.5v-0.1c-0.1-0.4,0.2-0.7,0.5-0.8l0,0
		c0.1,0,0.1,0,0.2,0C190.9,80.3,191.3,80.6,191.3,80.9L191.3,80.9z"/>
	<path class="st1" d="M269.7,69.5c0,0.5-0.3,0.8-0.7,0.8c-0.4,0-0.7-0.3-0.7-0.7c0-0.4,0.3-0.7,0.7-0.7l0,0
		C269.3,68.8,269.7,69,269.7,69.5C269.7,69.4,269.7,69.4,269.7,69.5z"/>
	<path class="st1" d="M285,81c0,0.4-0.3,0.7-0.7,0.7l0,0c-0.4,0-0.7-0.2-0.7-0.6V81c-0.1-0.4,0.2-0.7,0.6-0.8h0.1
		C284.7,80.3,284.9,80.6,285,81z"/>
	<path class="st1" d="M253.3,68.8c0.4,0,0.7,0.2,0.7,0.6v0.1c0,0.4-0.3,0.7-0.7,0.8c-0.4,0-0.7-0.3-0.8-0.7v-0.1
		C252.6,69.1,252.9,68.8,253.3,68.8z"/>
	<path class="st1" d="M176,47.4c1.3-0.8,2-0.9,3.1-0.6C178.1,47.1,177,47.3,176,47.4z"/>
	<path class="st1" d="M185.5,20.1c-0.3,0.8-1.1,1.1-1.9,0.9c-0.2-0.1-0.4-0.2-0.5-0.3c-0.3-0.4-0.1-0.7,0.3-0.8
		C184.1,19.7,184.8,19.8,185.5,20.1z"/>
</g>
<path class="st1" d="M56.1,10.2c0,5.6-4.6,10.1-10.2,10.1s-10.1-4.6-10.1-10.2C35.8,4.5,40.4,0,46,0S56.2,4.6,56.1,10.2z"/>
<path class="st1" d="M13.8,26.8c-0.2-0.5-0.5-0.8-1-0.9c-0.6-0.2-1.2-0.3-1.8-0.2c-1.5,0-2.2,0.3-2.2,0.8c0,2,12.2,0.8,12.2,5.7
	c0,3.1-4.1,4.6-9.9,4.6c-5.6,0-9.2-2.1-9.4-4.5h6.6c0.2,0.5,0.6,0.9,1.1,1.1c0.6,0.2,1.3,0.4,2,0.3c1.7,0,2.9-0.3,2.9-1
	c0-2-12.2-0.6-12.2-5.8c0-2.9,3.9-4.3,9.2-4.3c5.9,0,8.6,1.9,9.1,4.3L13.8,26.8L13.8,26.8z"/>
<path class="st1" d="M24.2,36.4V23h17.3v3.1H31.1V28h8.7v3.1h-8.7v2.1h10.7v3.1C41.9,36.4,24.2,36.4,24.2,36.4z"/>
<path class="st1" d="M59.3,30.3L59,27.2V23h6.6v13.4h-6.5l-7.6-7.3l0.3,3.1v4.3h-6.6V23h6.5L59.3,30.3L59.3,30.3z"/>
<path class="st1" d="M68,36.4L75.6,23h7.1l7.6,13.4h-6.9l-0.8-1.8h-6.9l-0.8,1.8H68z M79,27l-2.1,4.8h4.4L79,27z"/>
<path class="st1" d="M91.8,39.3H49.4L74,83.4l5.4-4.8L59.7,45.5L92,45.4L91.8,39.3z"/>
<path class="st1" d="M0.2,39.3h42.4L17.9,83.4l-5.4-4.8l19.7-33.2L0,45.4L0.2,39.3z"/>
<path class="st1" d="M22.6,86.9l23.1-40.2l23.8,39.8l-6.3,2.8l-17-30.5l-18,31L22.6,86.9z"/>
</svg>
