<svg xmlns="http://www.w3.org/2000/svg" viewBox="0 0 908.76 249.49"><title>asset-test_2</title><path d="M269.5,189" style="fill:none;stroke:#fc7423;stroke-miterlimit:10"/><polyline points="29.5 41.99 631.5 218.99 908.5 46.99" style="fill:none;stroke:#fead0e;stroke-miterlimit:10"/><polyline points="860.5 115.99 547.5 105.99 9.5 205.99" style="fill:none;stroke:#fead0e;stroke-miterlimit:10"/><polygon points="703.5 237.99 541.5 103.99 713.08 0.71 826.62 129.22 703.5 237.99" style="fill:none;stroke:#fead0e;stroke-miterlimit:10"/><rect x="612.55" y="37.21" width="171.48" height="164.28" transform="translate(325.42 -483) rotate(48.54)" style="fill:none;stroke:#fead0e;stroke-miterlimit:10"/><polygon points="620.5 235.99 281.5 27.99 572.5 66.99 893.5 35.99 620.5 235.99" style="fill:none;stroke:#fead0e;stroke-miterlimit:10"/><polyline points="703 0.49 695 113.49 703 237.49" style="fill:none;stroke:#fead0e;stroke-miterlimit:10"/><circle cx="283" cy="27.49" r="10" style="fill:#fe9f13"/><circle cx="621" cy="239.49" r="10" style="fill:#feb10d"/><circle cx="547" cy="105.49" r="9" style="fill:#feb10d"/><circle cx="35" cy="43.49" r="10" style="fill:#fe9f13"/><circle cx="695" cy="113.49" r="10" style="fill:#feb10d"/><circle cx="9" cy="207.49" r="9" style="fill:#fe9f13"/></svg>