<?xml version="1.0" encoding="utf-8"?>
<!-- Generator: Adobe Illustrator 21.1.0, SVG Export Plug-In . SVG Version: 6.00 Build 0)  -->
<svg version="1.1" id="Capa_1" xmlns="http://www.w3.org/2000/svg" xmlns:xlink="http://www.w3.org/1999/xlink" x="0px" y="0px"
	 viewBox="0 0 282 128" style="enable-background:new 0 0 282 128;" xml:space="preserve">
<style type="text/css">
	.st0{opacity:0.1;}
	.st1{fill:#B6F2E8;}
</style>
<g class="st0">
	<polygon class="st1" points="103.4,54.9 80.8,57.8 77.8,34.4 61,36.5 64.1,60 41.5,63 43.6,79.3 66.2,76.4 69.3,100.1 86,97.9 
		83,74.2 105.6,71.3 	"/>
	<polygon class="st1" points="129.5,41.7 152.1,38.8 155.1,62.4 171.9,60.3 168.8,36.6 191.4,33.6 189.3,17.3 166.7,20.2 
		163.6,-3.3 146.9,-1.1 149.9,22.4 127.3,25.3 	"/>
	<polygon class="st1" points="192,108.9 189.9,92.5 167.3,95.5 164.2,72 147.5,74.2 150.5,97.7 127.9,100.6 130.1,117 152.6,114 
		155.7,137.7 172.5,135.5 169.4,111.8 	"/>
</g>
</svg>
