<?xml version="1.0" encoding="utf-8"?>
<!-- Generator: Adobe Illustrator 21.1.0, SVG Export Plug-In . SVG Version: 6.00 Build 0)  -->
<svg version="1.1" id="Capa_1" xmlns="http://www.w3.org/2000/svg" xmlns:xlink="http://www.w3.org/1999/xlink" x="0px" y="0px"
	 viewBox="0 0 999.6 276" style="enable-background:new 0 0 999.6 276;" xml:space="preserve">
<style type="text/css">
	.st0{fill:none;stroke:#FC783D;stroke-miterlimit:10;}
	.st1{fill:none;stroke:#F6903C;stroke-miterlimit:10;}
	.st2{fill:none;stroke:#F47925;stroke-miterlimit:10;}
	.st3{fill:none;stroke:#F99746;stroke-miterlimit:10;}
	.st4{fill:none;stroke:#EF8630;stroke-miterlimit:10;}
	.st5{fill:#EF8630;}
	.st6{fill:none;stroke:#F9854B;stroke-miterlimit:10;}
	.st7{fill:#F9893D;}
	.st8{fill:#F78D46;}
	.st9{fill:#F99746;}
	.st10{fill:#F9854B;}
	.st11{fill:#F47925;}
	.st12{fill:#F78D3E;}
	.st13{fill:#FC9D47;}
	.st14{fill:#E0752D;}
	.st15{fill:#F28736;}
	.st16{fill:#FC8230;}
	.st17{fill:#FB9354;}
	.st18{fill:#FF9D6C;}
</style>
<title>network-img</title>
<polyline class="st0" points="36,34 101,159 577,251 "/>
<polyline class="st1" points="201,46 101,159 768,36 "/>
<polyline class="st2" points="440,30 508,173 336,159 "/>
<polyline class="st3" points="440,30 657,189 897,169 "/>
<polyline class="st3" points="351,253 651,97 908,66 "/>
<line class="st4" x1="768" y1="36" x2="657" y2="189"/>
<line class="st4" x1="992" y1="152" x2="651" y2="97"/>
<line class="st5" x1="647" y1="100" x2="582" y2="247"/>
<line class="st6" x1="44" y1="40" x2="332" y2="158"/>
<line class="st7" x1="345" y1="152" x2="432" y2="35"/>
<polyline class="st6" points="31,257 340,158 351,253 "/>
<circle class="st8" cx="340" cy="158" r="8"/>
<circle class="st9" cx="657" cy="189" r="10"/>
<circle class="st5" cx="768" cy="36" r="10"/>
<circle class="st9" cx="897" cy="169" r="10"/>
<circle class="st10" cx="351" cy="253" r="13"/>
<circle class="st9" cx="440" cy="30" r="10"/>
<circle class="st11" cx="508" cy="173" r="10"/>
<circle class="st12" cx="992" cy="152" r="7"/>
<circle class="st13" cx="908" cy="66" r="7"/>
<circle class="st14" cx="651" cy="97" r="7"/>
<circle class="st15" cx="577" cy="251" r="7"/>
<circle class="st16" cx="101" cy="159" r="5"/>
<circle class="st16" cx="201" cy="46" r="8"/>
<circle class="st17" cx="31" cy="257" r="10"/>
<circle class="st18" cx="36" cy="34" r="10"/>
</svg>
