<!--?xml version="1.0" encoding="utf-8"?-->
<!-- Generator: Adobe Illustrator 21.1.0, SVG Export Plug-In . SVG Version: 6.00 Build 0)  -->
<svg version="1.1" id="Capa_1" xmlns="http://www.w3.org/2000/svg" xmlns:xlink="http://www.w3.org/1999/xlink" x="0px" y="0px" viewBox="0 0 999.6 276" xml:space="preserve">
<style type="text/css">
	.st0{fill:none;stroke:#FC783D;stroke-miterlimit:10;}
	.st1{fill:none;stroke:#F6903C;stroke-miterlimit:10;}
	.st2{fill:none;stroke:#F47925;stroke-miterlimit:10;}
	.st3{fill:none;stroke:#F99746;stroke-miterlimit:10;}
	.st4{fill:none;stroke:#EF8630;stroke-miterlimit:10;}
	.st5{fill:#EF8630;}
	.st6{fill:none;stroke:#F9854B;stroke-miterlimit:10;}
	.st7{fill:#F9893D;}
	.st8{fill:#F78D46;}
	.st9{fill:#F99746;}
	.st10{fill:#F9854B;}
	.st11{fill:#F47925;}
	.st12{fill:#F78D3E;}
	.st13{fill:#FC9D47;}
	.st14{fill:#E0752D;}
	.st15{fill:#F28736;}
	.st16{fill:#FC8230;}
	.st17{fill:#FB9354;}
	.st18{fill:#FF9D6C;}
</style>
<title>network-img</title>
<path class="st0 NVVNtwvo_0" d="M36,34L101,159L577,251"></path>
<path class="st1 NVVNtwvo_1" d="M201,46L101,159L768,36"></path>
<path class="st2 NVVNtwvo_2" d="M440,30L508,173L336,159"></path>
<path class="st3 NVVNtwvo_3" d="M440,30L657,189L897,169"></path>
<path class="st3 NVVNtwvo_4" d="M351,253L651,97L908,66"></path>
<path class="st4 NVVNtwvo_5" d="M768,36L657,189"></path>
<path class="st4 NVVNtwvo_6" d="M992,152L651,97"></path>
<path class="st5 NVVNtwvo_7" d="M647,100L582,247"></path>
<path class="st6 NVVNtwvo_8" d="M44,40L332,158"></path>
<path class="st7 NVVNtwvo_9" d="M345,152L432,35"></path>
<path class="st6 NVVNtwvo_10" d="M31,257L340,158L351,253"></path>
<path class="st8 NVVNtwvo_11" d="M332,158A8,8 0,1,1 348,158A8,8 0,1,1 332,158"></path>
<path class="st9 NVVNtwvo_12" d="M647,189A10,10 0,1,1 667,189A10,10 0,1,1 647,189"></path>
<path class="st5 NVVNtwvo_13" d="M758,36A10,10 0,1,1 778,36A10,10 0,1,1 758,36"></path>
<path class="st9 NVVNtwvo_14" d="M887,169A10,10 0,1,1 907,169A10,10 0,1,1 887,169"></path>
<path class="st10 NVVNtwvo_15" d="M338,253A13,13 0,1,1 364,253A13,13 0,1,1 338,253"></path>
<path class="st9 NVVNtwvo_16" d="M430,30A10,10 0,1,1 450,30A10,10 0,1,1 430,30"></path>
<path class="st11 NVVNtwvo_17" d="M498,173A10,10 0,1,1 518,173A10,10 0,1,1 498,173"></path>
<path class="st12 NVVNtwvo_18" d="M985,152A7,7 0,1,1 999,152A7,7 0,1,1 985,152"></path>
<path class="st13 NVVNtwvo_19" d="M901,66A7,7 0,1,1 915,66A7,7 0,1,1 901,66"></path>
<path class="st14 NVVNtwvo_20" d="M644,97A7,7 0,1,1 658,97A7,7 0,1,1 644,97"></path>
<path class="st15 NVVNtwvo_21" d="M570,251A7,7 0,1,1 584,251A7,7 0,1,1 570,251"></path>
<path class="st16 NVVNtwvo_22" d="M96,159A5,5 0,1,1 106,159A5,5 0,1,1 96,159"></path>
<path class="st16 NVVNtwvo_23" d="M193,46A8,8 0,1,1 209,46A8,8 0,1,1 193,46"></path>
<path class="st17 NVVNtwvo_24" d="M21,257A10,10 0,1,1 41,257A10,10 0,1,1 21,257"></path>
<path class="st18 NVVNtwvo_25" d="M26,34A10,10 0,1,1 46,34A10,10 0,1,1 26,34"></path>
<style>.NVVNtwvo_0{stroke-dasharray:626 628;stroke-dashoffset:627;animation:NVVNtwvo_draw 2000ms linear 0ms forwards;}.NVVNtwvo_1{stroke-dasharray:830 832;stroke-dashoffset:831;animation:NVVNtwvo_draw 2000ms linear 40ms forwards;}.NVVNtwvo_2{stroke-dasharray:331 333;stroke-dashoffset:332;animation:NVVNtwvo_draw 2000ms linear 80ms forwards;}.NVVNtwvo_3{stroke-dasharray:510 512;stroke-dashoffset:511;animation:NVVNtwvo_draw 2000ms linear 120ms forwards;}.NVVNtwvo_4{stroke-dasharray:597 599;stroke-dashoffset:598;animation:NVVNtwvo_draw 2000ms linear 160ms forwards;}.NVVNtwvo_5{stroke-dasharray:190 192;stroke-dashoffset:191;animation:NVVNtwvo_draw 2000ms linear 200ms forwards;}.NVVNtwvo_6{stroke-dasharray:346 348;stroke-dashoffset:347;animation:NVVNtwvo_draw 2000ms linear 240ms forwards;}.NVVNtwvo_7{stroke-dasharray:161 163;stroke-dashoffset:162;animation:NVVNtwvo_draw 2000ms linear 280ms forwards;}.NVVNtwvo_8{stroke-dasharray:312 314;stroke-dashoffset:313;animation:NVVNtwvo_draw 2000ms linear 320ms forwards;}.NVVNtwvo_9{stroke-dasharray:146 148;stroke-dashoffset:147;animation:NVVNtwvo_draw 2000ms linear 360ms forwards;}.NVVNtwvo_10{stroke-dasharray:421 423;stroke-dashoffset:422;animation:NVVNtwvo_draw 2000ms linear 400ms forwards;}.NVVNtwvo_11{stroke-dasharray:51 53;stroke-dashoffset:52;animation:NVVNtwvo_draw 2000ms linear 440ms forwards;}.NVVNtwvo_12{stroke-dasharray:63 65;stroke-dashoffset:64;animation:NVVNtwvo_draw 2000ms linear 480ms forwards;}.NVVNtwvo_13{stroke-dasharray:63 65;stroke-dashoffset:64;animation:NVVNtwvo_draw 2000ms linear 520ms forwards;}.NVVNtwvo_14{stroke-dasharray:63 65;stroke-dashoffset:64;animation:NVVNtwvo_draw 2000ms linear 560ms forwards;}.NVVNtwvo_15{stroke-dasharray:82 84;stroke-dashoffset:83;animation:NVVNtwvo_draw 2000ms linear 600ms forwards;}.NVVNtwvo_16{stroke-dasharray:63 65;stroke-dashoffset:64;animation:NVVNtwvo_draw 2000ms linear 640ms forwards;}.NVVNtwvo_17{stroke-dasharray:63 65;stroke-dashoffset:64;animation:NVVNtwvo_draw 2000ms linear 680ms forwards;}.NVVNtwvo_18{stroke-dasharray:44 46;stroke-dashoffset:45;animation:NVVNtwvo_draw 2000ms linear 720ms forwards;}.NVVNtwvo_19{stroke-dasharray:44 46;stroke-dashoffset:45;animation:NVVNtwvo_draw 2000ms linear 760ms forwards;}.NVVNtwvo_20{stroke-dasharray:44 46;stroke-dashoffset:45;animation:NVVNtwvo_draw 2000ms linear 800ms forwards;}.NVVNtwvo_21{stroke-dasharray:44 46;stroke-dashoffset:45;animation:NVVNtwvo_draw 2000ms linear 840ms forwards;}.NVVNtwvo_22{stroke-dasharray:32 34;stroke-dashoffset:33;animation:NVVNtwvo_draw 2000ms linear 880ms forwards;}.NVVNtwvo_23{stroke-dasharray:51 53;stroke-dashoffset:52;animation:NVVNtwvo_draw 2000ms linear 920ms forwards;}.NVVNtwvo_24{stroke-dasharray:63 65;stroke-dashoffset:64;animation:NVVNtwvo_draw 2000ms linear 960ms forwards;}.NVVNtwvo_25{stroke-dasharray:63 65;stroke-dashoffset:64;animation:NVVNtwvo_draw 2000ms linear 1000ms forwards;}@keyframes NVVNtwvo_draw{100%{stroke-dashoffset:0;}}@keyframes NVVNtwvo_fade{0%{stroke-opacity:1;}94.44444444444444%{stroke-opacity:1;}100%{stroke-opacity:0;}}</style></svg>
