<svg xmlns="http://www.w3.org/2000/svg" viewBox="0 0 55 76.61"><title>survery-icon</title><path d="M54.84,20.3H38.14a3.44,3.44,0,0,1-3.44-3.44V0H5.89A5.89,5.89,0,0,0,0,5.89V70.71a5.89,5.89,0,0,0,5.89,5.89H49.76C53,76.61,55,74,55,70.71V20.28Z" style="fill:#764dc1"/><path d="M38.14,20.3H55L34.7,0V16.86A3.44,3.44,0,0,0,38.14,20.3Z" style="fill:#bea5de"/><path d="M34.7,0" style="fill:#bea5de"/><path d="M31.79,0" style="fill:#bea5de"/><rect x="21.66" y="33.99" width="21.34" height="4.64" style="fill:#fff"/><circle cx="14.71" cy="36.31" r="3.25" style="fill:#fff"/><rect x="21.66" y="43.27" width="21.34" height="4.64" style="fill:#fff"/><circle cx="14.71" cy="45.59" r="3.25" style="fill:#fff"/><rect x="21.66" y="52.55" width="21.34" height="4.64" style="fill:#fff"/><circle cx="14.71" cy="54.87" r="3.25" style="fill:#fff"/></svg>