<svg xmlns="http://www.w3.org/2000/svg" viewBox="0 0 769.59 394.99"><title>asset1</title><circle cx="654" cy="195.99" r="9" style="fill:#23b276;opacity:0.10000000149011612;isolation:isolate"/><circle cx="238" cy="385.99" r="9" style="fill:#23b276;opacity:0.10000000149011612;isolation:isolate"/><circle cx="364" cy="18.99" r="9" style="fill:#23b276;opacity:0.10000000149011612;isolation:isolate"/><circle cx="51" cy="27.99" r="9" style="fill:#23b276;opacity:0.10000000149011612;isolation:isolate"/><circle cx="575" cy="376.99" r="9" style="fill:#23b276;opacity:0.10000000149011612;isolation:isolate"/><circle cx="424" cy="223.99" r="9" style="fill:#23b276;opacity:0.10000000149011612;isolation:isolate"/><circle cx="686" cy="325.99" r="9" style="fill:#23b276;opacity:0.10000000149011612;isolation:isolate"/><circle cx="9" cy="136.99" r="9" style="fill:#23b276;opacity:0.10000000149011612;isolation:isolate"/><circle cx="663" cy="18.99" r="9" style="fill:#23b276;opacity:0.10000000149011612;isolation:isolate"/><circle cx="536" cy="103.99" r="9" style="fill:#23b276;opacity:0.10000000149011612;isolation:isolate"/><polyline points="535.5 103.49 662.5 18.49 768.5 179.49" style="fill:none;stroke:#23b276;stroke-miterlimit:10;opacity:0.20000000298023224;isolation:isolate"/><polyline points="768.5 179.49 654 195.99 536 103.99 364 18.99 51.5 27.49" style="fill:none;stroke:#23b276;stroke-miterlimit:10;opacity:0.20000000298023224;isolation:isolate"/><polyline points="769.5 0.49 8.5 137.49 685.5 326.49" style="fill:none;stroke:#23b276;stroke-miterlimit:10;opacity:0.10000000149011612;isolation:isolate"/><polyline points="663.5 19.49 652 195.99 574.5 376.49 238.5 386.49" style="fill:none;stroke:#23b276;stroke-miterlimit:10;opacity:0.07000000029802322;isolation:isolate"/><polyline points="652.5 196.49 423.5 224.49 574.5 377.49" style="fill:none;stroke:#23b276;stroke-miterlimit:10;opacity:0.20000000298023224;isolation:isolate"/><line x1="423.5" y1="224.49" x2="536.5" y2="104.49" style="fill:none;stroke:#23b276;stroke-miterlimit:10"/></svg>