<?xml version="1.0" encoding="utf-8"?>
<!-- Generator: Adobe Illustrator 21.1.0, SVG Export Plug-In . SVG Version: 6.00 Build 0)  -->
<svg version="1.1" id="Capa_1" xmlns="http://www.w3.org/2000/svg" xmlns:xlink="http://www.w3.org/1999/xlink" x="0px" y="0px"
	 viewBox="0 0 769.6 395" style="enable-background:new 0 0 769.6 395;" xml:space="preserve">
<style type="text/css">
	.st0{opacity:0.2;fill:none;stroke:#DBDBDB;stroke-miterlimit:10;enable-background:new    ;}
	.st1{opacity:0.1;fill:none;stroke:#DBDBDB;stroke-miterlimit:10;enable-background:new    ;}
	.st2{fill:none;stroke:#DBC1B4;stroke-miterlimit:10;}
	.st3{opacity:0.1;fill:#EAE3DF;enable-background:new    ;}
	.st4{opacity:0.1;fill:#FC7323;enable-background:new    ;}
	.st5{opacity:0.6;fill:#EAE3DF;enable-background:new    ;}
	.st6{opacity:0.3;fill:#EAE3DF;enable-background:new    ;}
	.st7{opacity:0.5;fill:#EAE3DF;enable-background:new    ;}
</style>
<title>asset1</title>
<polyline class="st0" points="1,179.5 107.3,27.9 224.8,106.1 "/>
<polyline class="st0" points="709.5,27.5 405.5,19 227,97.5 113,187.3 1,179.5 "/>
<polyline class="st1" points="84,326.5 761,137.5 0,0.5 "/>
<polyline class="st0" points="531,386.5 195,376.5 124.7,196 107.1,28.3 "/>
<polyline class="st0" points="195,377.5 337.1,227.3 124.5,196 "/>
<line class="st2" x1="239.4" y1="110.9" x2="339.2" y2="217.7"/>
<circle class="st3" cx="115.5" cy="196" r="9"/>
<circle class="st4" cx="531.5" cy="386" r="9"/>
<circle class="st5" cx="405.5" cy="19" r="9"/>
<circle class="st6" cx="718.5" cy="28" r="9"/>
<circle class="st7" cx="194.5" cy="377" r="9"/>
<circle class="st4" cx="345.5" cy="224" r="9"/>
<circle class="st4" cx="83.5" cy="326" r="9"/>
<circle class="st3" cx="760.5" cy="137" r="9"/>
<circle class="st5" cx="106.5" cy="19" r="9"/>
<circle class="st5" cx="233.5" cy="104" r="9"/>
</svg>
