<svg xmlns="http://www.w3.org/2000/svg" viewBox="0 0 346.05 89.75"><title>asset-logos-svg</title><g style="opacity:0.9"><path d="M185.76,43.6c-.57,0-.16-.6-.51-.76a4.48,4.48,0,0,0-1.35.6c.37.29.74.08,1,.25.08.29-.14.37-.31.47-1.27.8-2.57,1.58-3.86,2.36a1.1,1.1,0,0,1-1.11.16,2.79,2.79,0,0,1,1.42-1.76c.66-.41,1.35-.78,2.26-1.29a24.74,24.74,0,0,1-6.94-2c0,1.64.51,3.16-.47,4.56-.21-1.37.16-2.81-.51-4.23-.49.88-.76,1.89-2.05,2,.88-.88,1.11-2,1.68-3.06a33.66,33.66,0,0,1-4.58-3.43c-.12,8.6-.1,17.15-.12,25.81-1.95.08-3.73.06-5.5,0a1.7,1.7,0,0,1-.27-1.33c0-12.07,0-24.13,0-36.22a37.38,37.38,0,0,1,.43-7.28,21.15,21.15,0,0,1,2.34-6.32c.29-.49.7-.92.57-1.6-.06-.39.25-.57.66-.57.12.37-.33.55-.16,1a23.48,23.48,0,0,1,6.14,1.58c1.93.8,3.65,2,5.54,2.87-.92-1.6-7-5.15-11.08-5.62a18.71,18.71,0,0,1,3.2-3.55,7.22,7.22,0,0,0-2.28-.43c-.92,0-1.85,0-2.77,0-.37,0-.82-.06-.86-.53s.33-.7.76-.84a6.72,6.72,0,0,1,3.71.08,8.73,8.73,0,0,0,2.77.6c.88-.12,1.64-.9,2.5-1.31a21.11,21.11,0,0,1,21.92,36c-.25.16-.55.27-.7.68a5.44,5.44,0,0,1,2.87.82c0,.8-.86,1.13-1,1.87a2,2,0,0,0,1.21-.76,1,1,0,0,1,1.46-.06,8.4,8.4,0,0,1,1.72,1.89.9.9,0,0,1-.16,1.21,8.92,8.92,0,0,1-2,1.56c-.27.18-.66.21-.82.78,1.56-.25,2.54-1.4,3.9-2a13.07,13.07,0,0,1,1.29,3.78.69.69,0,0,1-.39.76l-1,.6c.1.08.14.16.18.16,1.46-.08,1.56,0,1.48,1.4a10.86,10.86,0,0,1-2.26,6.05,1.4,1.4,0,0,1-.88.68,41.57,41.57,0,0,0-3.51-3.3c-1.33-1-2.73-1.76-3.94-2.81-.35.25-.33.55-.39.8a50.25,50.25,0,0,1-1.64,5.7,2.67,2.67,0,0,0-.18.8c0,.41-.21.64-.7.62a2.72,2.72,0,0,1-.37-2.32,29.24,29.24,0,0,1,1.58-5.09c.31-.74.74-1.48.18-2.22.16-.49.88-.21.9-.86a1.16,1.16,0,0,0-.94-.12,1.25,1.25,0,0,1-1.48-1A2.35,2.35,0,0,0,190,47.52a13,13,0,0,1-1.27-.37,3.69,3.69,0,0,1-2.91-3.55,3.18,3.18,0,0,0,1.42-.16l-.92-1.85A4.84,4.84,0,0,0,185.76,43.6Zm7.18-1.25a8.48,8.48,0,0,1-1.25,1.83c-.84-1.07-.84-1.07-1.35-.86,0,.37.29.68.18,1.07-1.72-1.11-1.72-1.11-2.83-.6,1.25,1.25,2.91,1.7,4.39,2.69-.27-1.15.6-1.62,1-2.32s1-1.42,1.48-2.34a13.66,13.66,0,0,0-1.62.53A40.78,40.78,0,0,0,196,36a4.24,4.24,0,0,0,.33-2.3,18.15,18.15,0,0,0-1.09-4.15c-.14-.33-.21-.74-.64-.86a.67.67,0,0,0-.45.25,43.34,43.34,0,0,0-3.88,5.15,6.75,6.75,0,0,0-.23,6.92c1.13,2.13.64,1.95,2.85,1.29ZM174.62,25.52a3.56,3.56,0,0,1,4.66.39,6.11,6.11,0,0,0,2.38,1.15,7.51,7.51,0,0,0,5.77-.41,3.18,3.18,0,0,0,1.81-2.57,4.76,4.76,0,0,0-3.37-4.92,8,8,0,0,0-3.63.08,6,6,0,0,0-3.16,1.33c-.53.43-1.11.82-1.6,1.27a9.88,9.88,0,0,0-2.85,3.67Zm10.67,12a2.52,2.52,0,0,0,3.08-1.21,13,13,0,0,0,1.37-3.08,3.58,3.58,0,0,0,.12-1.31,1.91,1.91,0,0,0-1.25-1.72,1.59,1.59,0,0,0-1.7.66,4.72,4.72,0,0,0-1.33,3.43,7.51,7.51,0,0,1-.29,3.24Zm5.38-5.29a13.53,13.53,0,0,0,3.43-4,.78.78,0,0,0-.16-.94,23.66,23.66,0,0,0-3.1-2.81c-.55-.37-.88-.31-1.13.31a4.67,4.67,0,0,0-.18,3.78,12.44,12.44,0,0,1,1.15,3.71Zm-6.09,5c.7-.82.76-1.15.23-1.91-.68-1-1.37-1.95-2.13-2.87a12.21,12.21,0,0,0-3.78-3.24c-.39-.21-.8-.51-1.35-.23,1.13,1.5,1.95,3.12,2.91,4.64A8.34,8.34,0,0,0,184.57,37.17Zm-7.78-7c-.92,1.7-1.37,6.89-.84,8.58-1,1.11-.88,2.13.18,2.42a.44.44,0,0,0,0-.39,3.44,3.44,0,0,1,.92-3,1.75,1.75,0,0,0,.43-1.62,12.49,12.49,0,0,1-.18-2.13C177.23,32.7,177,31.43,176.8,30.16Zm6.61-19.51c-.12-.31-.12-.39-.18-.41a44.23,44.23,0,0,0-8.62-4.66,1.5,1.5,0,0,0-2,.62C176.43,7,179.79,8.94,183.4,10.64ZM190.05,43c-.78-1.5-1.74-2.83-1.93-4.51-.94.41-1.29,1-1,1.89A5.88,5.88,0,0,0,189,43,.75.75,0,0,0,190.05,43Zm-9.21-13.13A43.07,43.07,0,0,1,185,34.73c.25-.23.27-.37.21-.49A18.82,18.82,0,0,0,182.63,30c-.47-.49-1-.47-1.79-.12ZM185.25,13c-1,.72-3.67,5-3.65,5.75C182.36,18.5,184.94,14.48,185.25,13Zm-7.12,22.92c.43-.8.9-1.56,1.25-2.38a1,1,0,0,0-.45-1.31C177.91,33.5,177.74,34.12,178.13,35.94Zm15.74,12.76,2.91.86a3.88,3.88,0,0,0-1.42-1.31c-.33.84-1,.25-1.5.45Z" style="fill:#828282"/><path d="M278.88,47.65c-.08-1.82-.06-3.46,0-5.1,1.25-.39,18.95-.39,20.32,0a1.32,1.32,0,0,1,.16.88V64.57a1.76,1.76,0,0,1-.19,1c-1.76.12-3.58,0-5.56,0v-8l-.21-.1a21.34,21.34,0,0,1-9.42,5c-.37.94,0,1.93-.29,3H274c-.27-1,0-1.95-.21-3a25.17,25.17,0,0,1-5.67-2.44c-1,.47-1.42,1.45-2.44,2.07l-6.94-6.88c.62-.92,1.5-1.5,2.16-2.38a26.75,26.75,0,0,1-2.32-5.61c-1-.35-2.09,0-3.14-.31V37.24a5.19,5.19,0,0,1,2.24-.16,1,1,0,0,0,1.09-.8,24.2,24.2,0,0,1,2.11-5c-.57-.9-1.5-1.45-2-2.25l7-7a12.67,12.67,0,0,1,1.62,1.56c.31.29.57.45,1,.2a23.33,23.33,0,0,1,5.28-2.19c.29-1,0-1.95.25-2.95h9.69c.37.55.18,1.15.21,1.7,0,1.09,0,1.07,1,1.39A24.38,24.38,0,0,1,289,23.46a12.38,12.38,0,0,0,1.15.61l1.6-2.11L298.89,29c-.37.76-1.25,1.21-1.79,2a20.7,20.7,0,0,1,2.38,5.76c-.27.37-.62.27-.9.27-1.44,0-2.87,0-4.31,0a1.17,1.17,0,0,1-1.29-.84,15,15,0,1,0-.41,12.54,1.9,1.9,0,0,0,.29-1.11c-2.34,0-4.66,0-7,0S281.32,47.77,278.88,47.65Z" style="fill:#828282"/><path d="M309.6,59.91V85.8h-5.44c-.41-.43-.27-.94-.31-1.39V48.83a13.88,13.88,0,0,0,0-1.85c-.66-11.66,7.35-21.26,18.37-22.67A21.05,21.05,0,0,1,346,45.14a21,21,0,0,1-15,20.27c-7.53,2.15-14.32.57-20.25-4.58A4.46,4.46,0,0,0,309.6,59.91Zm15.29.33a15.07,15.07,0,1,0-15-15A15,15,0,0,0,324.89,60.24Z" style="fill:#828282"/><path d="M252.22,47a20.07,20.07,0,0,1-2.28,5.78c.64.88,1.52,1.48,2.08,2.22l-7,7c-.8-.47-1.32-1.36-2.24-2a23.7,23.7,0,0,1-5.65,2.43c-.37,1,0,2-.31,3H227.1c-.35-.95,0-1.93-.27-2.92A25.75,25.75,0,0,1,221,60.21c-.86.51-1.34,1.38-2,1.79l-7-7a12.78,12.78,0,0,1,1.3-1.32.77.77,0,0,0,.23-1,23.91,23.91,0,0,1-2.24-5.47c-.95-.29-1.85,0-2.8-.29V37.16c.88-.43,1.81,0,2.75-.33A24.59,24.59,0,0,1,213.66,31c-.45-.86-1.34-1.32-1.75-2L219,21.73l1.62,2.14a26.25,26.25,0,0,1,6.11-2.51c.35-.93,0-1.89.27-2.86h9.78c.33.93,0,1.91.27,2.92a29.66,29.66,0,0,1,4.23,1.67c1.58.82,1.6.8,2.88-.47a3.49,3.49,0,0,1,.82-.74L252,29c-.43.64-1.34,1.23-2,2.12a21.7,21.7,0,0,1,2.24,5.53,1,1,0,0,1-.93.27c-1.4,0-2.82,0-4.21,0a1.34,1.34,0,0,1-1.44-1A14.7,14.7,0,0,0,236,27.46a15.13,15.13,0,1,0,9.56,20.47A1.32,1.32,0,0,1,247,47C248.71,47.07,250.37,47,252.22,47Z" style="fill:#828282"/><path d="M257.75,77.56a1.2,1.2,0,0,1-1.09-.06c-.14-2.05,0-4.17-.08-6.22a.82.82,0,0,1,.9-.18c.29.21,0,.55.29.8,1.27-1,2.54-1.25,3.73.1.33-.06.47-.31.68-.47a2.08,2.08,0,0,1,3.41,1.29,18.76,18.76,0,0,1,0,4.68.56.56,0,0,1-.47.16.77.77,0,0,1-.55-.16,25.7,25.7,0,0,1-.08-3.1,4.68,4.68,0,0,0-.12-1.31c-.18-.55-.49-1-1.15-1a1.36,1.36,0,0,0-1.33,1.07,7.29,7.29,0,0,0-.08,1.64,16.52,16.52,0,0,1-.08,2.69,1,1,0,0,1-.94.1.44.44,0,0,1-.18-.37c0-1,0-2.05,0-3.08,0-1.35-.45-2.05-1.31-2.07s-1.5.8-1.52,2.15A18,18,0,0,1,257.75,77.56Z" style="fill:#828282"/><path d="M171.71,81.42c-2.46-.57-4-.18-4.84,1.23a4.28,4.28,0,0,0,.21,4.56,3.45,3.45,0,0,0,4,.88,10.6,10.6,0,0,0,0-2.42c-.49-.39-1.11,0-1.6-.31-.21-.23-.18-.47,0-.82a10.38,10.38,0,0,1,2.65,0,11.86,11.86,0,0,1,.1,4.39,6.39,6.39,0,0,1-5,0,4,4,0,0,1-2.13-3.41,4.72,4.72,0,0,1,4-5.38,4.87,4.87,0,0,1,2.18.18C172,80.53,172.1,80.64,171.71,81.42Z" style="fill:#828282"/><path d="M169.78,73.43c1.27,1.11,1.11,2.73,1.64,4.1a1.59,1.59,0,0,1-1.11.08,10.23,10.23,0,0,1-.7-2.26C169.23,74,168.51,73.62,167,74c-.27,1.15.06,2.36-.18,3.51a1,1,0,0,1-1.07.06V69.06a6.73,6.73,0,0,1,4.12.12,2.21,2.21,0,0,1,.72,3.53C170.35,72.94,170.09,73.19,169.78,73.43ZM167,72.86c1.15.1,2.2.14,2.81-.94a1.23,1.23,0,0,0-.25-1.6,2.49,2.49,0,0,0-2.61-.41,10.19,10.19,0,0,0,0,3Z" style="fill:#828282"/><path d="M197.77,71.75V68.63a.87.87,0,0,1,1-.1v9c-.49.21-.86.21-.93-.49-.36,0-.55.33-.82.49a2.33,2.33,0,0,1-3.42-1.25,5.15,5.15,0,0,1-.3-2.4C193.49,71.75,195.41,70.13,197.77,71.75Zm-.14,2.69a5.48,5.48,0,0,0,0-.82A1.85,1.85,0,0,0,196,72a1.88,1.88,0,0,0-1.81,1.25,3.16,3.16,0,0,0,0,2.48,1.71,1.71,0,0,0,3.22,0,2.63,2.63,0,0,0,.14-1.27Z" style="fill:#828282"/><path d="M262.8,89c-.62.25-1,.1-1-.51l-.16,0a2.71,2.71,0,0,1-3.3.45,3.32,3.32,0,0,1-1.44-3.3c.12-2.13,1.52-3.41,3.34-3.14a5.5,5.5,0,0,1,1.44.64c.14-1.11-.06-2.18.12-3.16a1.12,1.12,0,0,1,.92-.08A59.4,59.4,0,0,1,262.8,89Zm-1.15-3.32a2.69,2.69,0,0,0,0-.57,1.82,1.82,0,0,0-1.54-1.66,1.86,1.86,0,0,0-1.83,1.23,3.32,3.32,0,0,0,0,2.59,1.71,1.71,0,0,0,3.14.06,3.09,3.09,0,0,0,.21-1.64Z" style="fill:#828282"/><path d="M185.46,71.61v-3a1,1,0,0,1,1-.14c.31.23.41,6.73.16,9.11-.53.23-.92.18-1.07-.49-.33,0-.49.31-.72.43a2.62,2.62,0,0,1-3.92-1.44,4.47,4.47,0,0,1,0-3.1A2.71,2.71,0,0,1,185,71.5.61.61,0,0,0,185.46,71.61Zm.06,2.89a5.48,5.48,0,0,0,0-.82A1.8,1.8,0,0,0,184,72a1.85,1.85,0,0,0-1.87,1.29,3.16,3.16,0,0,0,0,2.48,1.69,1.69,0,0,0,1.68,1.09,1.65,1.65,0,0,0,1.52-1.15,2.74,2.74,0,0,0,.14-1.21Z" style="fill:#828282"/><path d="M214.7,83.3c0-.72,0-1.21,0-1.72a5.36,5.36,0,0,1,.08-1.52,1,1,0,0,1,1,0v9c-.55.25-.94.18-1-.49a.64.64,0,0,0-.23,0,2.68,2.68,0,0,1-3.22.45,3.25,3.25,0,0,1-1.5-3.26A3,3,0,0,1,212,82.65,2.9,2.9,0,0,1,214.7,83.3Zm0,2.67a5.48,5.48,0,0,0,0-.82,1.72,1.72,0,0,0-3.37-.45,3.2,3.2,0,0,0,.12,2.77,1.66,1.66,0,0,0,2.26.7,1.8,1.8,0,0,0,.49-.39,2.31,2.31,0,0,0,.49-1.81Z" style="fill:#828282"/><path d="M240.68,85.72c-.27,1.17,0,2.24-.21,3.26a1,1,0,0,1-1,.06V80.47a7.76,7.76,0,0,1,3.37-.06,2.38,2.38,0,0,1,2.05,2.22,2.67,2.67,0,0,1-1.7,2.77A8.12,8.12,0,0,1,240.68,85.72Zm-.1-1.19a2.44,2.44,0,0,0,2.71-.64,1.6,1.6,0,0,0,0-2,2.5,2.5,0,0,0-2.69-.45,19.27,19.27,0,0,0,0,3.08Z" style="fill:#828282"/><path d="M218.64,69.88c-1.7-.35-3.37-.55-4.47,1.13a3.94,3.94,0,0,0-.12,4.37c1.07,1.79,2.83,1.6,4.53,1.25.33.25.31.53.25.9a5.49,5.49,0,0,1-4.37-.12A4,4,0,0,1,212.28,74a4.6,4.6,0,0,1,5.4-5.36,3.4,3.4,0,0,1,.78.23C219,69.06,219,69.37,218.64,69.88Z" style="fill:#828282"/><path d="M240.33,71.05a3,3,0,0,1,3.06,3.39,3.18,3.18,0,0,1-3.14,3.45,3.12,3.12,0,0,1-3.12-3.43A3.18,3.18,0,0,1,240.33,71.05Zm-2,3.26a2.94,2.94,0,0,0,.33,1.56,1.77,1.77,0,0,0,1.62,1.07,1.72,1.72,0,0,0,1.54-1,3,3,0,0,0-.12-3.12,1.59,1.59,0,0,0-2.13-.62A2.33,2.33,0,0,0,238.34,74.32Z" style="fill:#828282"/><path d="M223.85,71.05a3,3,0,0,1,3.1,3.32,3.19,3.19,0,0,1-3.1,3.49,3.1,3.1,0,0,1-3.16-3.39A3.17,3.17,0,0,1,223.85,71.05Zm-1.95,3.28a3,3,0,0,0,.37,1.58,1.77,1.77,0,0,0,1.56,1,1.66,1.66,0,0,0,1.54-1,3,3,0,0,0-.08-3.12,1.61,1.61,0,0,0-2.22-.62,2.45,2.45,0,0,0-1.17,2.15Z" style="fill:#828282"/><path d="M255.9,86a3.17,3.17,0,0,1-3.2,3.39A3.06,3.06,0,0,1,249.64,86a3.18,3.18,0,0,1,3.24-3.45A3.13,3.13,0,0,1,255.9,86Zm-1.21,0c0-1.42-.78-2.48-1.87-2.52s-2,1.09-2,2.54a2.23,2.23,0,0,0,1.87,2.42,2.29,2.29,0,0,0,2-2.44Z" style="fill:#828282"/><path d="M296.12,71.05a3,3,0,0,1,3.06,3.37A3.18,3.18,0,0,1,296,77.87a3.12,3.12,0,0,1-3.12-3.43A3.18,3.18,0,0,1,296.12,71.05ZM298,74.5a3.14,3.14,0,0,0-.39-1.56A1.63,1.63,0,0,0,296.1,72a1.69,1.69,0,0,0-1.58.94,3,3,0,0,0-.37,1.58A2.27,2.27,0,0,0,296,77,2.24,2.24,0,0,0,298,74.5Z" style="fill:#828282"/><path d="M265.17,82.69a1,1,0,0,1,1,0,28.89,28.89,0,0,1,.07,3.12,6.42,6.42,0,0,0,.09,1.33c.15.6.37,1.09,1,1.17a1.35,1.35,0,0,0,1.4-.8,2.54,2.54,0,0,0,.24-1.29V82.75a1.08,1.08,0,0,1,1-.08V89c-.47.23-.82.18-.91-.49-.34,0-.49.31-.71.45-1.4.88-2.82.21-3.12-1.54A22.74,22.74,0,0,1,265.17,82.69Z" style="fill:#828282"/><path d="M195.74,82.54a3.06,3.06,0,0,1,3.12,3.32,3.2,3.2,0,0,1-3.18,3.51A3.09,3.09,0,0,1,192.6,86,3.19,3.19,0,0,1,195.74,82.54ZM197.65,86c0-1.42-.84-2.46-1.93-2.46s-1.87,1-1.91,2.38.84,2.61,1.93,2.59a2.26,2.26,0,0,0,1.91-2.5Z" style="fill:#828282"/><path d="M289.35,82.54a3.08,3.08,0,0,1,3.08,3.37,3.18,3.18,0,0,1-3.22,3.47,3.07,3.07,0,0,1-3-3.3A3.2,3.2,0,0,1,289.35,82.54ZM291.22,86c0-1.42-.82-2.48-1.91-2.48s-1.91,1-1.93,2.46.86,2.5,1.91,2.5A2.27,2.27,0,0,0,291.22,86Z" style="fill:#828282"/><path d="M230.52,83.78c-.31-.39-.31-.7.12-.88a3.37,3.37,0,0,1,3-.06,2,2,0,0,1,1,1.54c.23,1.54,0,3.06.16,4.58a.92.92,0,0,1-1.31-.18,6.6,6.6,0,0,1-1,.47,2,2,0,0,1-2.52-1,2.14,2.14,0,0,1,.92-2.75,5.7,5.7,0,0,1,2.46-.57C233.68,83.63,232.88,83.28,230.52,83.78Zm3,2.22a2.34,2.34,0,0,0-1.56.14,1.21,1.21,0,0,0-.94,1.29,1,1,0,0,0,.76,1,1.35,1.35,0,0,0,1.5-.6,2.18,2.18,0,0,0,.25-1.81Z" style="fill:#828282"/><path d="M280.07,71.2a.78.78,0,0,1,.76-.08c.31.16.1.53.29.72a.26.26,0,0,0,.29-.08,2.72,2.72,0,0,1,1-.62,2.18,2.18,0,0,1,2.93,1.72,28.77,28.77,0,0,1,.1,4.6,1.12,1.12,0,0,1-1,.1,3.94,3.94,0,0,1-.16-1.76c0-.68,0-1.35,0-2.05-.06-1.11-.51-1.64-1.4-1.64a1.64,1.64,0,0,0-1.66,1.7c0,1,0,2,0,3a1.43,1.43,0,0,1-.1.72c-.29.27-.62.12-1,.08Z" style="fill:#828282"/><path d="M205.65,89a1,1,0,0,1-.94.1c-.35-.37-.18-.84-.21-1.27,0-.82,0-1.64,0-2.46,0-1.19-.49-1.74-1.42-1.74a1.68,1.68,0,0,0-1.66,1.83c0,.92,0,1.85,0,2.77a1.73,1.73,0,0,1-.1.84c-.29.23-.62.12-1,0-.16-2.11,0-4.23-.08-6.28a.72.72,0,0,1,.86-.18c.29.21.06.57.39.76a4.39,4.39,0,0,1,1.19-.72,2.22,2.22,0,0,1,3,1.58,4.15,4.15,0,0,1,.12,1.42C205.67,86.79,205.77,87.92,205.65,89Z" style="fill:#828282"/><path d="M294.79,89a1.09,1.09,0,0,1-1,0V82.69a.78.78,0,0,1,.74-.08c.31.16.1.53.31.72a.2.2,0,0,0,.27-.08,2.55,2.55,0,0,1,1.15-.64,2.18,2.18,0,0,1,2.79,1.56A6.11,6.11,0,0,1,299.2,86c0,.88,0,1.79,0,2.67a.66.66,0,0,1-.06.29.86.86,0,0,1-.84.14.33.33,0,0,1-.25-.33c0-.82,0-1.64,0-2.46a10.36,10.36,0,0,0,0-1.13c-.06-1.11-.55-1.62-1.46-1.6a1.65,1.65,0,0,0-1.62,1.66c0,.88,0,1.79,0,2.67A2.09,2.09,0,0,1,294.79,89Z" style="fill:#828282"/><path d="M230.6,77.54a1.65,1.65,0,0,1-.94.1c-.33-.25-.43-4.17-.21-6.42l.25-.12a.76.76,0,0,1,.6.08c.21.18.06.51.27.78a7.58,7.58,0,0,1,.78-.53,2.28,2.28,0,0,1,3.53,1.72,9.56,9.56,0,0,1,0,1.33,24.93,24.93,0,0,1-.06,3,1,1,0,0,1-1,.08,10.37,10.37,0,0,1-.12-2.52c0-.47,0-1,0-1.44-.08-1-.53-1.46-1.35-1.5a1.59,1.59,0,0,0-1.66,1.35,6.84,6.84,0,0,0,0,1.13Z" style="fill:#828282"/><path d="M179,86.21h-4.12c-.08,1.81.8,2.26,3.61,1.95.27.45.27.74-.35.94A3.56,3.56,0,0,1,174.07,88a4.24,4.24,0,0,1,.62-4.84,2.52,2.52,0,0,1,4.17,1A2.82,2.82,0,0,1,179,86.21Zm-1.11-.84c-.14-1.31-.62-1.91-1.44-1.95s-1.46.66-1.62,1.95A25.33,25.33,0,0,0,177.88,85.38Z" style="fill:#828282"/><path d="M178.56,74.72h-4.12c0,1.85.78,2.26,3.63,2,.31.47.25.76-.35.94a3.49,3.49,0,0,1-4-1.13,4.26,4.26,0,0,1,.55-4.78,2.55,2.55,0,0,1,3.59-.06,2.75,2.75,0,0,1,.66,1A3.19,3.19,0,0,1,178.56,74.72Zm-4.15-.78a21.28,21.28,0,0,0,3.06-.12c-.12-1.25-.55-1.83-1.4-1.87S174.62,72.57,174.42,73.95Z" style="fill:#828282"/><path d="M273.3,74.89c.12,1.79.68,2.07,3.71,1.91.23.43.21.72-.35.9-1.58.53-3.45,0-4.12-1.15a4.28,4.28,0,0,1,.7-4.84,2.52,2.52,0,0,1,4.1,1,2.91,2.91,0,0,1,.18,2C276.14,75,274.7,74.66,273.3,74.89Zm0-1a18.92,18.92,0,0,0,3.06,0c-.12-1.25-.6-1.87-1.42-1.91s-1.44.64-1.64,1.95Z" style="fill:#828282"/><path d="M202.28,74.87c.21,1.89.9,2.24,3.67,1.89.33.45.31.74-.31.94a3.47,3.47,0,0,1-4.1-1.19,4.22,4.22,0,0,1,.64-4.76,2.51,2.51,0,0,1,4.17,1,2.86,2.86,0,0,1,.18,1.95C205.14,74.93,203.74,74.71,202.28,74.87Zm0-.92a21.28,21.28,0,0,0,3.06-.12c-.12-1.25-.55-1.83-1.4-1.87s-1.46.6-1.66,2Z" style="fill:#828282"/><path d="M218.51,86.4c.14,1.79.68,2.05,3.69,1.89.29.43.23.72-.31.9A3.52,3.52,0,0,1,217.78,88a4.19,4.19,0,0,1,.76-4.9,2.52,2.52,0,0,1,3.53.23,2.33,2.33,0,0,1,.49.84,2.67,2.67,0,0,1,.14,2,12.62,12.62,0,0,1-2.15.08A11,11,0,0,0,218.51,86.4Zm3-1c0-1.27-.49-1.93-1.37-1.95s-1.46.68-1.62,1.95a24.32,24.32,0,0,0,3,0Z" style="fill:#828282"/><path d="M288.55,72.26c-.31-.37-.64-.21-.88-.45s0-.64.78-.88c.23-.39,0-.88.21-1.31.25-.27.57-.23.88-.27.41.49.06,1.07.37,1.58.35.31.88,0,1.31.23.1.62.1.62-1.42,1a36.05,36.05,0,0,0,0,3.94c.06.82.74.76,1.31.8.27.64.08.92-.57,1a1.67,1.67,0,0,1-2-1.76C288.49,74.85,288.55,73.52,288.55,72.26Z" style="fill:#828282"/><path d="M185.95,83.75c-.31-.39-.7-.21-.9-.45-.33-.82.39-.68.76-.84.27-.41,0-.88.23-1.33a.94.94,0,0,1,.9-.25c.41.45,0,1.09.37,1.56.39.25.86,0,1.27.21.14.66.14.66-1.42,1a29.24,29.24,0,0,0,0,4c.06.76.76.64,1.31.74.25.55.14.88-.53,1a1.66,1.66,0,0,1-2-1.74C185.93,86.3,185.95,85,185.95,83.75Z" style="fill:#828282"/><path d="M250.24,71.32a2.75,2.75,0,0,1,0,.41c0,.16-.08.31-.12.45-2.52-.41-4,.41-3.41,3.24.29,1.29,1.21,1.58,3.28,1.33.29.76.27.84-.47,1a3.4,3.4,0,0,1-3.53-1,4,4,0,0,1-.16-4.17,3.23,3.23,0,0,1,3.43-1.5A3.82,3.82,0,0,1,250.24,71.32Z" style="fill:#828282"/><path d="M276.14,83.67c-2.48-.18-3.53.49-3.55,2.28s1,2.46,3.55,2.32c.33.57.08.84-.49,1a3.45,3.45,0,0,1-3.61-1,4.06,4.06,0,0,1,0-4.35,3.49,3.49,0,0,1,3.67-1.21C276.3,82.81,276.32,82.85,276.14,83.67Z" style="fill:#828282"/><path d="M281.9,88.27c.39.7-.06.88-.62,1a3.24,3.24,0,0,1-3.49-1.09,3.83,3.83,0,0,1-.08-4.17,3.27,3.27,0,0,1,3.45-1.44,1.69,1.69,0,0,1,.86.31.68.68,0,0,1-.18.8c-2.32-.41-3.8.31-3.39,3C278.68,88.06,279.46,88.37,281.9,88.27Z" style="fill:#828282"/><path d="M183.67,83.73a11,11,0,0,0-1.13-.23.92.92,0,0,0-1,.6.82.82,0,0,0,.47,1c.39.23.86.41,1.27.68a1.9,1.9,0,0,1-.66,3.53,3.44,3.44,0,0,1-2.26-.29.62.62,0,0,1,.16-.86,1.35,1.35,0,0,1,.29,0,4.92,4.92,0,0,0,1.09.25,1,1,0,0,0,1.11-.72,1,1,0,0,0-.55-1.11c-.29-.18-.62-.29-.92-.45a1.84,1.84,0,0,1-.94-2.65,2.37,2.37,0,0,1,3-.72C184.06,83,184,83.32,183.67,83.73Z" style="fill:#828282"/><path d="M227.11,80.09a1.09,1.09,0,0,1,1,0v8.75a.47.47,0,0,1-.44.2,3.8,3.8,0,0,1-.58-.06Z" style="fill:#828282"/><path d="M247.16,83.43c.88-.8.92-.82,1.85-.8a.85.85,0,0,1,.1.88,1.53,1.53,0,0,1-.25.14,1.91,1.91,0,0,0-1.7,2.18c0,1,.06,2.11-.06,3.14-.35.31-.68.16-1.09.12-.16-2.13,0-4.23-.08-6.26.27-.35.53-.27.8-.25S246.85,83.18,247.16,83.43Z" style="fill:#828282"/><path d="M268.26,71.22a1.21,1.21,0,0,1,1.13,0v6.36a3.19,3.19,0,0,1-.43.08c-.16,0-.33,0-.66,0C268.19,75.46,268.23,73.35,268.26,71.22Z" style="fill:#828282"/><path d="M253.58,77.52a1.3,1.3,0,0,1-1,0V71.3a1.23,1.23,0,0,1,1-.06Z" style="fill:#828282"/><path d="M284.67,89a1.32,1.32,0,0,1-1.11.08c-.16-2.11,0-4.23-.08-6.28a1.06,1.06,0,0,1,1.17-.06C284.75,84.78,284.71,86.87,284.67,89Z" style="fill:#828282"/><path d="M189.93,82.71a1.19,1.19,0,0,1,1-.06,33.34,33.34,0,0,1,0,6.4,1.17,1.17,0,0,1-1,0C189.87,87,189.91,84.84,189.93,82.71Z" style="fill:#828282"/><path d="M187.22,67.69a25.48,25.48,0,0,0,2.07-3.57,14.2,14.2,0,0,0,1.48-2.54c.14-.39.55-.45.92-.47.29.14.21.37.08.51-1.17,1.27-1.56,3-2.57,4.37A7.86,7.86,0,0,1,188,67.61.71.71,0,0,1,187.22,67.69Z" style="fill:#828282"/><path d="M288.67,82c.84-1.87,1-2,2.36-1.72C290.21,80.86,290,82,288.67,82Z" style="fill:#828282"/><path d="M197.32,80.18c-1,1.56-1.29,1.81-2.13,1.68C195.8,80.23,196,80,197.32,80.18Z" style="fill:#828282"/><path d="M191.31,80.94c0,.47-.23.76-.66.8a.65.65,0,0,1-.76-.51s0-.06,0-.1a.67.67,0,0,1,.53-.8.45.45,0,0,1,.16,0A.67.67,0,0,1,191.31,80.94Z" style="fill:#828282"/><path d="M269.71,69.47c0,.49-.27.76-.7.8a.74.74,0,0,1-.74-.7.73.73,0,0,1,.7-.74h0A.66.66,0,0,1,269.71,69.47Z" style="fill:#828282"/><path d="M285,81a.7.7,0,0,1-.7.72.66.66,0,0,1-.74-.55V81a.69.69,0,0,1,.57-.78h.14C284.73,80.26,284.92,80.57,285,81Z" style="fill:#828282"/><path d="M253.28,68.82a.66.66,0,0,1,.72.7.74.74,0,0,1-.68.76.73.73,0,0,1-.76-.68v-.08A.72.72,0,0,1,253.28,68.82Z" style="fill:#828282"/><path d="M176,47.43c1.31-.82,2-.94,3.06-.6A24.31,24.31,0,0,1,176,47.43Z" style="fill:#828282"/><path d="M185.48,20.1a1.45,1.45,0,0,1-2.38.55c-.31-.37-.1-.66.27-.78A2.81,2.81,0,0,1,185.48,20.1Z" style="fill:#828282"/></g><path d="M56.14,10.23A10.17,10.17,0,1,1,46,0,10.2,10.2,0,0,1,56.14,10.23Z" style="fill:#828282"/><path d="M13.84,26.84a1.37,1.37,0,0,0-1-.91,5.77,5.77,0,0,0-1.79-.24c-1.53,0-2.2.28-2.2.76,0,2,12.17.76,12.17,5.65,0,3.11-4.08,4.62-9.9,4.62-5.58,0-9.23-2.07-9.37-4.49H8.38a1.74,1.74,0,0,0,1.15,1.06,5.57,5.57,0,0,0,2,.34c1.73,0,2.88-.35,2.88-1,0-2-12.16-.63-12.16-5.76,0-2.85,3.88-4.29,9.17-4.29,5.88,0,8.55,1.9,9.05,4.25H13.84Z" style="fill:#828282"/><path d="M24.22,36.37V22.95H41.47v3.13H31.15V28h8.73v3.13H31.15v2.11H41.88v3.13H24.22Z" style="fill:#828282"/><path d="M59.27,30.27,59,27.22V22.95h6.64V36.37H59.16L51.6,29.06l.26,3.06v4.25H45.23V22.95h6.49l7.55,7.33Z" style="fill:#828282"/><path d="M68,36.37l7.58-13.42h7.05l7.58,13.42H83.31l-.82-1.77h-6.9l-.79,1.77H68ZM79,27,76.9,31.8h4.38Z" style="fill:#828282"/><path d="M91.76,39.29H49.36L74,83.39l5.44-4.77L59.74,45.45,92,45.37Z" style="fill:#828282"/><path d="M.2,39.29H42.6L17.92,83.39l-5.44-4.77L32.22,45.45,0,45.37Z" style="fill:#828282"/><path d="M22.64,86.93,45.78,46.75l23.8,39.78-6.28,2.85-17-30.55L28.23,89.75l-5.59-2.82Z" style="fill:#828282"/></svg>