<?xml version="1.0" encoding="utf-8"?>
<!-- Generator: Adobe Illustrator 21.1.0, SVG Export Plug-In . SVG Version: 6.00 Build 0)  -->
<svg version="1.1" id="Capa_1" xmlns="http://www.w3.org/2000/svg" xmlns:xlink="http://www.w3.org/1999/xlink" x="0px" y="0px"
	 viewBox="0 0 769.6 395" style="enable-background:new 0 0 769.6 395;" xml:space="preserve">
<style type="text/css">
	.st0{opacity:0.2;fill:none;stroke:#FCBB9A;stroke-miterlimit:10;enable-background:new    ;}
	.st1{opacity:0.2;fill:none;stroke:#FCCEB6;stroke-miterlimit:10;enable-background:new    ;}
	.st2{opacity:0.1;fill:none;stroke:#FC7323;stroke-miterlimit:10;enable-background:new    ;}
	.st3{opacity:0.2;fill:none;stroke:#FC7323;stroke-miterlimit:10;enable-background:new    ;}
	.st4{fill:none;stroke:#FF945F;stroke-miterlimit:10;}
	.st5{opacity:0.1;fill:#FC7323;enable-background:new    ;}
	.st6{opacity:0.6;fill:#FFE3D9;enable-background:new    ;}
	.st7{opacity:0.3;fill:#FFD1BD;enable-background:new    ;}
	.st8{opacity:0.5;fill:#FFE3D9;enable-background:new    ;}
</style>
<title>asset1</title>
<polyline class="st0" points="1,179.5 107,18.5 234,103.5 "/>
<polyline class="st1" points="718,27.5 405.5,19 233.5,104 115.5,196 1,179.5 "/>
<polyline class="st2" points="84,326.5 761,137.5 0,0.5 "/>
<polyline class="st3" points="531,386.5 195,376.5 117.5,196 106,19.5 "/>
<polyline class="st3" points="195,377.5 346,224.5 117,196.5 "/>
<line class="st4" x1="233" y1="104.5" x2="346" y2="224.5"/>
<circle class="st5" cx="115.5" cy="196" r="9"/>
<circle class="st5" cx="531.5" cy="386" r="9"/>
<circle class="st6" cx="405.5" cy="19" r="9"/>
<circle class="st7" cx="718.5" cy="28" r="9"/>
<circle class="st8" cx="194.5" cy="377" r="9"/>
<circle class="st5" cx="345.5" cy="224" r="9"/>
<circle class="st5" cx="83.5" cy="326" r="9"/>
<circle class="st5" cx="760.5" cy="137" r="9"/>
<circle class="st6" cx="106.5" cy="19" r="9"/>
<circle class="st6" cx="233.5" cy="104" r="9"/>
</svg>
