<?xml version="1.0" encoding="utf-8"?>
<!-- Generator: Adobe Illustrator 21.1.0, SVG Export Plug-In . SVG Version: 6.00 Build 0)  -->
<svg version="1.1" id="Capa_1" xmlns="http://www.w3.org/2000/svg" xmlns:xlink="http://www.w3.org/1999/xlink" x="0px" y="0px"
	 viewBox="0 0 884.5 428.6" style="enable-background:new 0 0 884.5 428.6;" xml:space="preserve">
<style type="text/css">
	.st0{fill:#08B2A7;}
	.st1{fill:#FFFFFF;}
</style>
<title>asset-red-logo</title>
<g id="Layer_2">
	<g id="Layer_1-2">
		<path class="st0" d="M103.4,205.3c-2.8,0.1-0.8-2.9-2.5-3.7c-2.3,0.2-4,1.7-6.6,2.9c1.8,1.4,3.6,0.4,5,1.2
			c0.4,1.4-0.7,1.8-1.5,2.3c-6.2,3.9-12.5,7.7-18.8,11.5c-1.5,0.9-3.2,1.8-5.4,0.8c0.9-4.1,3.7-6.6,6.9-8.6s6.6-3.8,11-6.3
			c-11.7-1.6-23.1-5-33.8-9.9c0.2,8,2.5,15.4-2.3,22.2c-1-6.7,0.8-13.7-2.5-20.6c-2.4,4.3-3.7,9.2-10,9.9c4.3-4.3,5.4-9.8,8.2-14.9
			c-7.9-4.9-15.3-10.5-22.3-16.7c-0.6,41.9-0.5,83.6-0.6,125.8c-9.5,0.4-18.2,0.3-26.8,0.1c-1.9-2.2-1.3-4.4-1.3-6.5
			c0-58.8,0.1-117.6-0.2-176.5C0,106.2-0.4,94.5,2,82.8C4.1,72,8,61.6,13.4,52c1.4-2.4,3.4-4.5,2.8-7.8c-0.3-1.9,1.2-2.8,3.2-2.8
			c0.6,1.8-1.6,2.7-0.8,4.9c10.3,1.2,20.3,3.8,29.9,7.7c9.4,3.9,17.8,9.8,27,14C71,60.2,41.6,42.9,21.5,40.6
			c4-6.9,10-11.6,15.6-17.3c-3.6-1.3-7.3-2-11.1-2.1c-4.5-0.2-9,0-13.5-0.2c-1.8-0.1-4-0.3-4.2-2.6s1.6-3.4,3.7-4.1
			c6.1-2.1,12.1-0.9,18.1,0.4c4.6,1,9.2,3.5,13.5,2.9s8-4.4,12.2-6.4C100.3-11.4,154.7,1,184.9,40.8c26.8,35.3,27.9,86.2,1.1,122.6
			c-6.5,8.9-14.4,16.7-23.4,23.1c-1.2,0.8-2.7,1.3-3.4,3.3c4.9,0.7,9.9,0.7,14,4c0,3.9-4.2,5.5-5,9.1c2.8-0.3,4.3-2.1,5.9-3.7
			c2.4-2.2,4.6-2.2,7.1-0.3c3.2,2.6,6.1,5.7,8.4,9.2c1.5,2.1,0.8,4.1-0.8,5.9c-2.7,3.3-6.4,5.2-9.9,7.6c-1.3,0.9-3.2,1-4,3.8
			c7.6-1.2,12.4-6.8,19-9.8c3,5.8,5.2,12,6.3,18.4c0.3,1.5-0.5,3.1-1.9,3.7c-1.7,1-3.4,1.9-5.1,2.9c0.5,0.4,0.7,0.8,0.9,0.8
			c7.1-0.4,7.6-0.1,7.2,6.8c-0.6,10.7-4.4,21-11,29.5c-1,1.3-1.9,2.8-4.3,3.3c-5.6-5.1-10.6-11.4-17.1-16.1s-13.3-8.6-19.2-13.7
			c-1.7,1.2-1.6,2.7-1.9,3.9c-2.1,9.4-4.8,18.7-8,27.8c-0.5,1.2-0.8,2.6-0.9,3.9c0,2-1,3.1-3.4,3c-2.5-3.4-2.7-7.2-1.8-11.3
			c1.8-8.5,4.4-16.8,7.7-24.8c1.5-3.6,3.6-7.2,0.9-10.8c0.8-2.4,4.3-1,4.4-4.2c-1.3-1.1-3-0.8-4.6-0.6c-3.8,0.3-6.4-1.3-7.2-4.8
			c-1.4-6-5.6-8.1-11.1-8.9c-2.1-0.5-4.2-1.1-6.2-1.8C108.8,220.4,104.3,214.3,103.4,205.3c2.1-0.1,4.4,0.4,6.9-0.8l-4.5-9
			C104.3,198.5,103.5,201.9,103.4,205.3z M138.4,199.2c-1.9,3.1-3.4,6.3-6.1,8.9c-4.1-5.2-4.1-5.2-6.6-4.2c-0.1,1.8,1.4,3.3,0.9,5.2
			c-8.4-5.4-8.4-5.4-13.8-2.9c6.1,6.1,14.2,8.3,21.4,13.1c-1.3-5.6,2.9-7.9,4.9-11.3c2.1-3.7,4.9-6.9,7.2-11.4
			C143,197,140.9,198.7,138.4,199.2c5.5-9.9,11.3-19.8,15.1-30.7c1.3-3.6,2.4-7.4,1.6-11.2c-1.4-6.8-2.3-13.8-5.3-20.2
			c-0.7-1.6-1-3.6-3.1-4.2c-0.9,0.1-1.6,0.5-2.2,1.2c-6.6,8.1-13.5,16-18.9,25.1c-6.6,11.1-6.9,22.3-1.1,33.7
			C130,203.3,127.6,202.4,138.4,199.2L138.4,199.2z M49.1,117.2c8.3-5.3,15.6-4.1,22.7,1.9c3.4,2.7,7.4,4.6,11.6,5.6
			c9.5,2.3,19.1,3.2,28.1-2c4.8-2.8,8.4-6.6,8.8-12.5c0.9-11-5.9-20.5-16.4-24c-6.1-2-11.8-0.3-17.7,0.4c-5.6,0.6-11,2.9-15.4,6.5
			c-2.6,2.1-5.4,4-7.8,6.2C57.4,104.4,52,109.7,49.1,117.2L49.1,117.2z M101.1,175.5c6.6,1.7,11.6-0.2,15-5.9
			c2.9-4.7,5.1-9.7,6.7-15c0.6-2.1,0.8-4.3,0.6-6.4c-0.4-3.9-2.3-7-6.1-8.4c-3.5-1.2-6.1,0.9-8.3,3.2c-4.6,4.6-6.4,10.3-6.5,16.7
			C102.4,165.1,103.5,170.4,101.1,175.5L101.1,175.5z M127.3,149.7c6.8-5.4,12.5-12.1,16.7-19.7c0.8-1.5,0.5-3.4-0.8-4.6
			c-4.8-4.8-9.5-9.8-15.1-13.7c-2.7-1.8-4.3-1.5-5.5,1.5c-2.6,6-3.5,12.3-0.9,18.4C124,137.4,126.8,143,127.3,149.7L127.3,149.7z
			 M97.6,174c3.4-4,3.7-5.6,1.1-9.3c-3.3-4.8-6.7-9.5-10.4-14c-5.2-6.3-11-12-18.4-15.8c-1.9-1-3.9-2.5-6.6-1.1
			c5.5,7.3,9.5,15.2,14.2,22.6C82.3,164.4,88.8,170.5,97.6,174z M59.7,139.8c-4.5,8.3-6.7,33.6-4.1,41.8c-4.7,5.4-4.3,10.4,0.9,11.8
			c0.5-0.6,0.3-1.3,0.2-1.9c-0.5-5.5,0.2-10.5,4.5-14.7c2-2.1,2.8-5.1,2.1-7.9c-0.8-3.5-0.7-6.9-0.9-10.4
			C61.8,152.2,60.9,146,59.7,139.8z M91.9,44.7c-0.6-1.5-0.6-1.9-0.9-2C77.7,33.9,64,25.7,49,20c-4-1.5-7-1-9.8,3
			C57.9,27.1,74.3,36.4,91.9,44.7z M124.3,202.4c-3.8-7.3-8.5-13.8-9.4-22c-4.6,2-6.3,5.1-4.9,9.2c1.7,5.2,5.2,9.2,9.3,12.7
			C120.6,203.5,122.1,203.8,124.3,202.4z M79.4,138.4c7.4,7.4,14.3,15.3,20.5,23.7c1.2-1.1,1.3-1.8,1-2.4
			c-3.7-7.3-7.3-14.6-12.8-20.7C85.8,136.6,83.3,136.7,79.4,138.4L79.4,138.4z M100.9,56.3c-4.8,3.5-17.9,24.5-17.8,28
			C86.8,83,99.4,63.4,100.9,56.3z M66.2,168c2.1-3.9,4.4-7.6,6.1-11.6c1.1-2.4,0.1-5.2-2.2-6.4C65.1,156.1,64.3,159.1,66.2,168z
			 M142.9,230.2l14.2,4.2c-1.9-3.4-4.4-4.6-6.9-6.4C148.6,232.1,145.5,229.2,142.9,230.2L142.9,230.2z"/>
		<path class="st0" d="M556.8,224.8c-0.4-8.9-0.3-16.9-0.1-24.9c6.1-1.9,92.3-1.9,99-0.1c1,1.3,0.8,2.8,0.8,4.3
			c0,34.4,0,68.9,0,103.3c0.2,1.6-0.2,3.2-0.9,4.7c-8.5,0.6-17.3,0.1-26.9,0.2v-38.8l-1-0.5c-12.9,11.9-28.6,20.4-45.6,24.5
			c-1.8,4.6,0,9.4-1.4,14.4H533c-1.3-4.8,0.1-9.5-1-14.5c-9.5-3-19-6.6-27.6-11.9c-4.8,2.3-6.9,7.1-11.9,10.1L458.7,262
			c3-4.5,7.3-7.3,10.5-11.6c-4.8-8.7-8.6-17.9-11.3-27.4c-5-1.7-10.2,0.2-15.3-1.5V174c3.6-1.6,7.3-0.8,10.9-0.8
			c2.9,0,4.4-0.9,5.3-3.9c2.5-8.5,6-16.6,10.3-24.3c-2.8-4.4-7.3-7.1-9.9-11l34.2-34c2.8,1.8,5.1,4.9,7.9,7.6c1.5,1.4,2.8,2.2,4.8,1
			c8.1-4.6,16.7-8.2,25.7-10.7c1.4-4.7-0.2-9.5,1.2-14.4h47.2c1.8,2.7,0.9,5.6,1,8.3c0.2,5.3,0.1,5.2,5,6.8
			c6.9,2.1,13.5,4.8,19.9,8.1c1.8,1.1,3.7,2.1,5.6,3l7.8-10.3l34.8,34.5c-1.8,3.7-6.1,5.9-8.7,10c4.9,9,9.6,18.1,11.6,28.1
			c-1.3,1.8-3,1.3-4.4,1.3c-7,0.1-14-0.1-21,0.1c-3.3,0.1-5-1-6.3-4.1c-6.9-16.5-19.5-29.9-35.5-37.7c-31.2-15.7-70.7-6-91.2,22.2
			c-24.2,32.6-17.4,78.7,15.2,102.9c8.6,6.3,18.4,10.8,28.8,12.9c32.2,7,66.1-9.5,80.7-39.1c1-1.6,1.5-3.5,1.4-5.4
			c-11.4,0-22.7,0.1-33.9,0C579.8,225,568.7,225.4,556.8,224.8z"/>
		<path class="st0" d="M706.6,284.8V411h-26.2c-2-2.1-1.3-4.6-1.3-6.8c0-57.8,0-115.6,0-173.4c0-3-0.2-6-0.4-9
			c-3.2-56.8,35.8-103.6,89.5-110.5c32.8-4.2,61.5,5.3,85.2,28.1c20.6,19.8,30.8,44.6,31.1,73.4c0.4,46.8-31,86.7-73.2,98.8
			c-36.7,10.5-69.8,2.8-98.7-22.3C710.9,287.4,708.9,285.9,706.6,284.8z M781.4,286.4c39.2,1,73.8-31.3,73.9-72.8
			c0.1-41.1-32-74-73.4-74.1c-42.5-0.1-73.7,34.4-73.7,73.8C708.3,255,743.3,287.2,781.4,286.4z"/>
		<path class="st0" d="M426.5,222c-2.1,10.8-6.5,19.5-11.1,28.1c3.1,4.3,7.4,7.2,10.1,10.8l-33.9,34.1c-3.9-2.3-6.4-6.6-10.9-9.8
			c-8.6,5.1-17.9,9.1-27.5,11.8c-1.8,4.9,0.1,9.9-1.5,14.8h-47.4c-1.7-4.6,0-9.4-1.3-14.2c-9.9-2.7-19.5-6.5-28.4-11.5
			c-4.2,2.5-6.5,6.7-9.8,8.7l-34.2-34.2c1.4-2,4-4.1,6.3-6.4c1.4-1.4,2.2-2.9,1.1-4.9c-4.7-8.4-8.4-17.3-10.9-26.6
			c-4.6-1.4-9,0.2-13.6-1.4v-47.3c4.3-2.1,8.8-0.1,13.4-1.6c2.7-10,6.8-19.6,12-28.6c-2.2-4.2-6.5-6.4-8.5-9.8l34.7-35.1l7.9,10.4
			c10.3-5.5,19.6-9.7,29.7-12.2c1.7-4.5,0-9.2,1.3-13.9h47.6c1.6,4.5,0,9.3,1.3,14.2c6.9,2.3,14,4.7,20.6,8.1c7.7,4,7.8,3.9,14-2.3
			c1.3-1.3,2.4-2.8,4-3.6l33.7,34.7c-2.1,3.1-6.5,6-9.7,10.3c4.7,8.7,8.8,17.5,10.9,26.9c-1.5,1.7-3.1,1.3-4.5,1.3
			c-6.8,0-13.7-0.2-20.5,0.1c-3.8,0.1-5.5-1.4-7-4.7c-9.2-20.8-24.8-34.9-46.6-41.4c-42.7-12.8-86.6,15.1-93.5,59.2
			c-6.1,39.2,20.4,76.7,59.3,83.7c35.3,6.4,68.3-13.4,80.7-43.3c1.5-3.5,3.3-4.8,7-4.7C409.4,222.2,417.5,222,426.5,222z"/>
		<path class="st1" d="M454.2,370.8c-2,0.6-3.4,0.8-5.3-0.3c-0.7-10-0.1-20.3-0.4-30.3c1.6-1.6,3-1.2,4.4-0.9c1.4,1,0.2,2.7,1.4,3.9
			c6.2-5.1,12.4-6.1,18.2,0.5c1.6-0.3,2.3-1.5,3.3-2.3c6.7-4.9,14.8-1.9,16.6,6.3c1,4.2,1,18.1,0.1,22.8c-0.6,0.6-1.4,0.9-2.3,0.8
			c-1,0.1-1.9-0.2-2.7-0.8c-0.8-4.8-0.2-10-0.4-15.1c-0.1-2.2,0.1-4.3-0.6-6.4c-0.9-2.7-2.4-4.8-5.6-4.8c-3.1,0-5.8,2.1-6.5,5.2
			c-0.7,2.6-0.3,5.3-0.4,8c-0.1,4.5,0.4,9-0.4,13.1c-1.4,0.9-3,1.1-4.6,0.5c-0.6-0.4-0.9-1.1-0.9-1.8c0-5,0-10-0.1-15
			c0-6.6-2.2-10-6.4-10.1c-4.5-0.1-7.3,3.9-7.4,10.5C454.5,360,454.9,365.3,454.2,370.8z"/>
		<path class="st1" d="M34.9,389.6c-12-2.8-19.5-0.9-23.6,6c-4,6.6-3.5,16.7,1,22.2s12.1,7.2,19.6,4.3c0.7-3.9,0.4-7.8,0.2-11.8
			c-2.4-1.9-5.4-0.2-7.8-1.5c-1-1.1-0.9-2.3-0.1-4c4.2-0.9,8.6-0.4,12.9-0.2c1.4,3.9,1.7,15.3,0.5,21.4c-8.1,2.9-16.3,3.7-24.5-0.1
			c-7-3.3-9.4-9.5-10.4-16.6C0.8,396.8,9.4,385,22,383.1c3.6-0.5,7.2-0.2,10.6,0.9C36.5,385.3,36.8,385.8,34.9,389.6z"/>
		<path class="st1" d="M25.2,350.7c6.2,5.4,5.4,13.3,8,20c-1.7,0.8-3.6,0.9-5.4,0.4c-2-3.5-2.3-7.4-3.4-11
			c-1.9-6.6-5.4-8.5-12.7-6.6c-1.3,5.6,0.3,11.5-0.9,17.1c-1.7,1.2-3.2,1-5.2,0.3v-41.5c6.9-1.5,13.6-2.1,20.1,0.6
			c6.7,2.8,8.5,11.6,3.5,17.2C28,348.3,26.7,349.5,25.2,350.7z M11.8,347.9c5.6,0.5,10.7,0.7,13.7-4.6c1.6-2.5,1.1-5.9-1.2-7.8
			c-3.6-3.3-8-3.5-12.7-2C11,338.3,11,343.1,11.8,347.9L11.8,347.9z"/>
		<path class="st1" d="M161.4,342.5v-15.2c1.8-1.5,3.4-1.2,5.4-0.5v44.1c-2.6,1-4.5,1-4.9-2.4c-1.9,0-2.9,1.6-4.3,2.4
			c-7,3.6-14.8,1.1-18-6.1c-1.5-3.7-2.1-7.7-1.6-11.7C138.9,342.5,149,334.6,161.4,342.5z M161.2,355.6c0.1-1.3,0.1-2.7,0-4
			c-0.6-4.3-3.9-7.7-7.7-8c-3.6-0.3-7.2,2.2-8.8,6.1c-1.6,3.9-1.6,8.2,0.1,12.1c1.2,3.4,4.5,5.6,8.1,5.5c3.8,0,6-2.3,7.6-5.5
			C161.4,359.9,161.3,357.8,161.2,355.6L161.2,355.6z"/>
		<path class="st1" d="M478.8,426.8c-3,1.2-4.7,0.5-5-2.5c-0.5,0.1-0.7,0.1-0.8,0.1c-4.9,4-10.4,5.6-16.1,2.2c-6-3.6-7.3-9.7-7-16.1
			c0.6-10.4,7.4-16.6,16.3-15.3c2.5,0.4,4.5,1.9,7,3.1c0.7-5.4-0.3-10.6,0.6-15.4c1.4-0.8,3-0.9,4.5-0.4
			C479.4,386.1,479.9,418.7,478.8,426.8z M473.2,410.6c0.1-0.9,0.1-1.9,0-2.8c-0.5-4.4-3.7-7.7-7.5-8.1c-3.6-0.4-7.3,2.1-8.9,6
			c-1.7,4-1.6,8.6,0.1,12.6c1.2,3.2,4.4,5.3,7.8,5.2c3.6,0.1,5.9-2,7.5-4.9C473.3,416.4,473.4,414.1,473.2,410.6L473.2,410.6z"/>
		<path class="st1" d="M102.3,341.8v-14.7c1.3-1,3.1-1.3,4.7-0.7c1.5,1.1,2,32.8,0.8,44.4c-2.6,1.1-4.5,0.9-5.2-2.4
			c-1.6,0.2-2.4,1.5-3.5,2.1c-7.7,4.3-16.1,1.3-19.1-7c-1.8-4.9-1.8-10.2,0-15.1c3.2-8.6,11.9-11.7,19.9-7.1
			C100.6,341.8,101.5,342,102.3,341.8z M102.2,355.9c0.1-1.3,0.1-2.7,0-4c-0.5-4.5-3.5-7.7-7.4-8.2c-3.7-0.5-7.5,2.1-9.1,6.3
			c-1.6,3.9-1.5,8.3,0.2,12.1c1.3,3.4,4.6,5.5,8.2,5.3c3.8-0.2,6-2.3,7.4-5.6C102.2,359.8,102.4,357.9,102.2,355.9L102.2,355.9z"/>
		<path class="st1" d="M244.3,398.8c0-3.5-0.1-5.9,0-8.4s-0.4-5,0.4-7.4c1.5-1.2,3.1-0.9,5.1-0.2v44c-2.7,1.2-4.6,0.9-5-2.4
			c-0.5,0-0.9,0-1.1,0.1c-4.8,4-10.1,5.3-15.7,2.2c-6.2-3.4-7.5-9.6-7.3-15.9c0.2-8.2,4.1-13.4,10.6-15.2
			C235.8,394.4,239.9,395.4,244.3,398.8z M244.2,411.8c0.1-1.3,0.1-2.7,0-4c-0.5-4.4-3.6-7.6-7.5-8.1c-4-0.3-7.6,2.2-8.9,5.9
			c-1.9,4.3-1.6,9.3,0.6,13.5c2.1,4,7,5.5,11,3.4c0.9-0.5,1.7-1.1,2.4-1.9C244.1,418,244.4,415,244.2,411.8L244.2,411.8z"/>
		<path class="st1" d="M370.8,410.6c-1.3,5.7,0.1,10.9-1,15.9c-1.6,1.3-3.2,1-5.1,0.3V385c5.4-1.3,11-1.4,16.4-0.3
			c6,1.2,9.5,5.2,10,10.8c0.6,5.9-2.8,11.4-8.3,13.5C379,410.5,375,410.3,370.8,410.6z M370.5,404.8c5.4,1.2,9.9,1,13.2-3.1
			c2.2-2.9,2.2-6.9-0.1-9.7c-2.4-3-7.9-4-13.1-2.2C370.1,394.8,370.1,399.8,370.5,404.8L370.5,404.8z"/>
		<path class="st1" d="M263.6,333.4c-8.3-1.7-16.4-2.7-21.8,5.5c-4.5,6.3-4.7,14.8-0.6,21.3c5.2,8.7,13.8,7.8,22.1,6.1
			c1.6,1.2,1.5,2.6,1.2,4.4c-7.2,2.6-14.4,2.7-21.3-0.6s-9.6-9.4-10.6-16.5c-2.2-16.2,10.2-28.5,26.3-26.1c1.3,0.2,2.6,0.6,3.8,1.1
			C265.2,329.4,265.6,330.9,263.6,333.4z"/>
		<path class="st1" d="M369.3,339.1c9,0,15.1,6.8,14.9,16.5c-0.2,10-6.3,16.7-15.3,16.8s-15.3-6.9-15.2-16.7
			S360.2,339.1,369.3,339.1z M359.6,355c-0.2,2.6,0.4,5.3,1.6,7.6c1.7,3.1,4.2,5.3,7.9,5.2c3.5,0,5.9-2.1,7.5-5.1
			c2.6-4.8,2.4-10.6-0.6-15.2c-2.3-3.8-6.4-4.8-10.4-3C360.6,346.9,360,351.3,359.6,355z"/>
		<path class="st1" d="M289,339.1c9-0.1,15.1,6.5,15.1,16.2c0,9.9-6.1,16.8-15.1,17s-15.4-6.6-15.4-16.5S280,339.2,289,339.1z
			 M279.5,355.1c-0.1,2.7,0.5,5.3,1.8,7.7c1.7,2.9,4.1,4.9,7.6,4.9s6-1.9,7.5-4.9c2.7-4.7,2.5-10.6-0.4-15.2c-2.4-4-6.6-5-10.8-3
			C280.6,347,280,351.3,279.5,355.1L279.5,355.1z"/>
		<path class="st1" d="M445.2,411.9c-0.2,9.8-6.5,16.6-15.6,16.5s-15-6.8-14.9-16.5c0-10,6.5-16.9,15.8-16.8
			C439.2,395.2,445.3,402.2,445.2,411.9z M439.3,412c0.1-6.9-3.8-12.1-9.1-12.3c-5.5-0.2-9.7,5.3-9.6,12.4
			c0.1,6.5,4.1,11.7,9.1,11.8S439.2,418.6,439.3,412L439.3,412z"/>
		<path class="st1" d="M641.2,339.1c9,0,15.1,6.8,14.9,16.4c-0.2,10-6.3,16.7-15.3,16.8s-15.3-6.9-15.2-16.7
			S632.2,339.1,641.2,339.1z M650.2,355.9c0-2.7-0.6-5.3-1.9-7.6c-1.3-2.8-4.1-4.6-7.2-4.6c-3.3-0.1-6.3,1.7-7.7,4.6
			c-1.3,2.4-1.9,5-1.8,7.7c0.1,6.5,4.1,11.7,9.1,11.9C645.9,368,650.2,362.6,650.2,355.9L650.2,355.9z"/>
		<path class="st1" d="M487.9,395.8c2.2-0.7,3.6-0.9,5.3,0.1c0.8,5,0.2,10.1,0.4,15.2c0.1,2.2-0.1,4.3,0.5,6.5
			c0.8,2.9,2,5.3,5.4,5.7s5.8-1.2,7.5-3.9c1.2-1.9,1.3-4.1,1.3-6.3c0-5.8,0-11.6,0-17c1.7-1,3.7-1.1,5.5-0.4v31.1
			c-2.5,1.1-4.4,0.9-4.9-2.4c-1.8-0.1-2.6,1.5-3.8,2.2c-7.5,4.3-15.1,1-16.7-7.5C486.9,411.4,487.6,403.6,487.9,395.8z"/>
		<path class="st1" d="M152,395.1c8.9-0.1,15.2,6.5,15.2,16.2c0,10.1-6.3,17.1-15.5,17.1c-8.9,0-15-6.8-15-16.4
			C136.7,402.1,143,395.2,152,395.1z M161.3,411.7c0-6.9-4.1-12-9.4-12s-9.1,4.9-9.3,11.6s4.1,12.7,9.4,12.6
			S161.3,418.4,161.3,411.7L161.3,411.7z"/>
		<path class="st1" d="M608.2,395.1c8.9,0,15.1,6.8,15,16.4c-0.1,10.2-6.5,17-15.7,16.9c-8.7-0.1-14.6-6.6-14.8-16.1
			C592.5,402.3,599,395.1,608.2,395.1z M617.3,411.7c0-6.9-4-12.1-9.3-12.1s-9.3,5.1-9.4,12c0,6.6,4.2,12.2,9.3,12.2
			S617.2,418.5,617.3,411.7L617.3,411.7z"/>
		<path class="st1" d="M321.5,401.1c-1.5-1.9-1.5-3.4,0.6-4.3c4.8-2.1,9.7-2.7,14.5-0.3c3,1.5,4.6,4.2,5.1,7.5
			c1.1,7.5,0.2,14.9,0.8,22.3c-2.7,1.9-4.6,0.8-6.4-0.9c-1.6,0.9-3.3,1.7-5,2.3c-5.3,1.8-10.4-0.3-12.3-4.7
			c-2.2-4.9-0.3-10.8,4.5-13.4c3.7-2.1,7.9-2.5,12-2.8C336.9,400.4,333,398.7,321.5,401.1z M335.9,411.9c-2.9-0.9-5.3-0.1-7.6,0.7
			c-2.8,1-4.9,2.9-4.6,6.3c0,2.2,1.5,4.2,3.7,4.7c3.1,0.8,5.5-0.5,7.3-2.9S336.6,415.1,335.9,411.9L335.9,411.9z"/>
		<path class="st1" d="M563,339.8c1.1-0.8,2.5-0.9,3.7-0.4c1.5,0.8,0.5,2.6,1.4,3.5c0.5,0.2,1,0,1.4-0.4c1.5-1.4,3.2-2.4,5.1-3
			c6.8-2,13.1,1.4,14.3,8.4c1.3,7.5,0.4,15.1,0.5,22.4c-1.5,1-3.4,1.2-5.1,0.5c-1.5-2.7-0.6-5.7-0.8-8.6c-0.2-3.3,0.1-6.6-0.1-10
			c-0.3-5.4-2.5-8-6.8-8c-4.5,0-7.9,3.2-8.1,8.3c-0.2,4.8,0,9.6-0.1,14.5c0.1,1.2,0,2.4-0.5,3.5c-1.4,1.3-3,0.6-5,0.4L563,339.8z"/>
		<path class="st1" d="M200.3,426.5c-1.4,0.9-3.1,1.1-4.6,0.5c-1.7-1.8-0.9-4.1-1-6.2c-0.1-4,0-8-0.1-12c-0.2-5.8-2.4-8.5-6.9-8.5
			c-4.7,0-7.9,3.4-8.1,8.9c-0.1,4.5,0,9-0.1,13.5c0,1.3,0.2,2.7-0.5,4.1c-1.4,1.1-3,0.6-5,0.2c-0.8-10.3-0.2-20.6-0.4-30.6
			c1-1.2,2.8-1.6,4.2-0.9c1.4,1,0.3,2.8,1.9,3.7c1.8-1.3,3.6-2.8,5.8-3.5c6.6-2.1,12.4,1,14.4,7.7c0.6,2.3,0.8,4.6,0.6,6.9
			C200.4,415.8,200.9,421.3,200.3,426.5z"/>
		<path class="st1" d="M635,426.7c-1.4,0.9-2.8,0.7-4.8,0.1v-31c1-0.9,2.3-0.7,3.6-0.4c1.5,0.8,0.5,2.6,1.5,3.5
			c0.5,0.2,1,0.1,1.3-0.4c1.6-1.5,3.5-2.6,5.6-3.1c6.3-1.7,11.7,1.4,13.6,7.6c0.9,3,0.7,5.9,0.7,8.9c0,4.3,0,8.7-0.1,13
			c0,0.5-0.1,1-0.3,1.4c-1.3,1.3-2.8,0.9-4.1,0.7c-0.7-0.2-1.2-0.8-1.2-1.6c-0.1-4-0.2-8-0.2-12c0-1.8,0.1-3.7-0.1-5.5
			c-0.3-5.4-2.7-7.9-7.1-7.8s-7.6,3.3-7.9,8.1c-0.2,4.3,0,8.7-0.1,13C635.5,423.1,635.9,425,635,426.7z"/>
		<path class="st1" d="M321.5,370.7c-1.4,0.6-3.1,0.8-4.6,0.5c-1.6-1.2-2.1-20.3-1-31.3c0.4-0.2,0.8-0.4,1.2-0.6
			c1-0.3,2-0.1,2.9,0.4c1,0.9,0.3,2.5,1.3,3.8c1.4-1,2.5-1.9,3.8-2.6c7.8-4.3,15.9-0.3,17.2,8.4c0.2,2.1,0.3,4.3,0.2,6.5
			c-0.1,5,0.4,9.9-0.3,14.8c-1.7,1.3-3.3,1-5.1,0.4c-1.2-4-0.4-8.2-0.6-12.3c-0.1-2.3,0-4.7-0.1-7c-0.4-4.8-2.6-7.1-6.6-7.3
			c-4-0.2-7.5,2.6-8.1,6.6c-0.2,1.8-0.3,3.6-0.2,5.5C321.5,361.1,321.5,365.9,321.5,370.7z"/>
		<path class="st1" d="M70.4,413.4H50.3c-0.4,8.8,3.9,11,17.6,9.5c1.3,2.2,1.3,3.6-1.7,4.6c-7.6,2.5-16.4,0.2-19.8-5.4
			c-4.2-6.8-2.7-18.5,3-23.6c6.9-6.3,17.3-3.8,20.3,5C70.8,406.4,71.7,409.5,70.4,413.4z M65,408.9c-0.7-6.4-3-9.3-7-9.5
			c-4.1-0.2-7.1,3.2-7.9,9.5C55.1,409.2,60,409.2,65,408.9z"/>
		<path class="st1" d="M68.3,357.3H48.2c0,9,3.8,11,17.7,9.6c1.5,2.3,1.2,3.7-1.7,4.6c-7.8,2.5-16.3,0.2-19.7-5.5
			c-4.1-6.7-2.8-17.9,2.7-23.3c4.8-4.9,12.6-5,17.5-0.3c1.4,1.4,2.5,3.1,3.2,5.1C69.1,351.1,69.2,353.3,68.3,357.3z M48.1,353.2
			c5.2-0.4,10.1,0.5,14.9-0.6c-0.6-6.1-2.7-8.9-6.8-9.1S49.1,346.5,48.1,353.2z"/>
		<path class="st1" d="M530,357.8c0.6,8.7,3.3,10.1,18.1,9.3c1.1,2.1,1,3.5-1.7,4.4c-7.7,2.6-16.8,0.2-20.1-5.6
			c-4-7-2.4-18.5,3.4-23.6c6.9-6,16.9-3.5,20,5c1.1,3,2,6,0.9,9.6C543.8,358.1,536.8,356.7,530,357.8z M530.1,353
			c5.2,0.1,10,0.5,14.9-0.2c-0.6-6.1-2.9-9.1-6.9-9.3C534,343.3,531.1,346.6,530.1,353L530.1,353z"/>
		<path class="st1" d="M183.9,357.7c1,9.2,4.4,10.9,17.9,9.2c1.6,2.2,1.5,3.6-1.5,4.6c-7.9,2.6-16.6,0.2-20-5.8
			c-4-6.9-2.5-18,3.1-23.2c4.8-4.8,12.6-4.7,17.4,0.1c1.3,1.3,2.3,3,2.9,4.8c1.1,2.9,2,6,0.9,9.5C197.8,358,191,356.9,183.9,357.7z
			 M184.1,353.2c5.2-0.4,10.1,0.5,14.9-0.6c-0.6-6.1-2.7-8.9-6.8-9.1S185.1,346.4,184.1,353.2L184.1,353.2z"/>
		<path class="st1" d="M263,413.9c0.7,8.7,3.3,10,18,9.2c1.4,2.1,1.1,3.5-1.5,4.4c-7.7,2.7-16.6,0.3-20.1-5.6
			c-4.2-7.1-2.5-18.8,3.7-23.9c5.1-4.4,12.8-3.9,17.2,1.1c1.1,1.2,1.9,2.6,2.4,4.1c1.1,3.1,2.1,6.3,0.7,9.7c-3.5,0.8-7,0.2-10.5,0.4
			C269.5,413.6,266.2,413,263,413.9z M277.8,408.9c-0.1-6.2-2.4-9.4-6.7-9.5s-7.1,3.3-7.9,9.5C268,409.2,272.9,409.2,277.8,408.9
			L277.8,408.9z"/>
		<path class="st1" d="M604.3,345c-1.5-1.8-3.1-1-4.3-2.2c-1.4-1.6-0.2-3.1,3.8-4.3c1.1-1.9,0-4.3,1-6.4c1.2-1.3,2.8-1.1,4.3-1.3
			c2,2.4,0.3,5.2,1.8,7.7c1.7,1.5,4.3-0.1,6.4,1.1c0.5,3,0.5,3-6.9,4.9c-0.3,6.4-0.3,12.8,0.1,19.2c0.3,4,3.6,3.7,6.4,3.9
			c1.3,3.1,0.4,4.5-2.8,4.8c-5.9,0.5-9.5-2.4-9.8-8.6S604.3,351.1,604.3,345z"/>
		<path class="st1" d="M104.3,401c-1.5-1.9-3.4-1-4.4-2.2c-1.6-4,1.9-3.3,3.7-4.1c1.3-2,0.1-4.3,1.1-6.5c1.2-1.2,2.9-1.6,4.4-1.2
			c2,2.2,0.1,5.3,1.8,7.6c1.9,1.2,4.2,0,6.2,1c0.7,3.2,0.7,3.2-6.9,4.9c-0.4,6.5-0.3,13.1,0.2,19.6c0.3,3.7,3.7,3.1,6.4,3.6
			c1.2,2.7,0.7,4.3-2.6,4.7c-5.9,0.6-9.6-2.3-9.9-8.5C104.2,413.4,104.3,406.9,104.3,401z"/>
		<path class="st1" d="M417.6,340.4c0.1,0.7,0.1,1.3,0.1,2c-0.2,0.8-0.4,1.5-0.6,2.2c-12.3-2-19.7,2-16.6,15.8
			c1.4,6.3,5.9,7.7,16,6.5c1.4,3.7,1.3,4.1-2.3,5.1c-6.5,1.8-13.7-0.3-17.2-4.9c-4-5.3-4.4-14.3-0.8-20.3c3.8-6.4,9.8-8,16.7-7.3
			C414.5,339.6,416.1,339.9,417.6,340.4z"/>
		<path class="st1" d="M543.8,400.6c-12.1-0.9-17.2,2.4-17.3,11.1c-0.1,8.8,4.7,12,17.3,11.3c1.6,2.8,0.4,4.1-2.4,4.9
			c-6.7,1.8-14.1-0.3-17.6-5.1c-4.1-5.6-4-15.4,0.1-21.2c3.7-5.2,11.5-7.8,17.9-5.9C544.6,396.4,544.7,396.6,543.8,400.6z"/>
		<path class="st1" d="M571.9,423c1.9,3.4-0.3,4.3-3,4.9c-6.7,1.6-14-0.4-17-5.3c-4.1-6.1-4.3-14-0.4-20.3c3.2-5.5,9.7-8.1,16.8-7
			c1.5,0.1,2.9,0.6,4.2,1.5c0.6,1.4,0.3,2.6-0.9,3.9c-11.3-2-18.5,1.5-16.5,14.6C556.2,422,560,423.5,571.9,423z"/>
		<path class="st1" d="M93.2,400.9c-1.8-0.5-3.7-0.8-5.5-1.1c-2.1-0.1-4,0.7-4.8,2.9s0.4,3.9,2.3,5s4.2,2,6.2,3.3
			c3.5,1.9,5.3,5.9,4.5,9.7c-0.7,4.4-3.7,6.6-7.7,7.5c-3.7,0.8-7.6,0.3-11-1.4c-1.1-1.8-0.4-3,0.8-4.2c0.5,0,0.9,0,1.4,0.1
			c1.7,0.6,3.5,1,5.3,1.2c2.5,0.1,4.7-0.8,5.4-3.5c0.7-2.5-0.7-4.2-2.7-5.4c-1.4-0.9-3-1.4-4.5-2.2c-5.6-3.1-7.4-8.2-4.6-12.9
			c2.7-4.5,10.2-6.3,14.7-3.5C95.1,397.5,94.6,398.9,93.2,400.9z"/>
		<path class="st1" d="M305.1,382.7c1.6-0.8,3.5-0.7,5.1,0.2v43.5c-0.5,0.7-1.3,1.1-2.2,1c-0.8,0-1.6-0.1-2.9-0.3V382.7z"/>
		<path class="st1" d="M402.6,399.4c4.3-3.9,4.5-4,9-3.9c1.2,1.3,0.9,2.7,0.5,4.3c-0.4,0.3-0.8,0.5-1.2,0.7
			c-6.3,1.8-8.1,4.1-8.3,10.6c-0.2,5.1,0.3,10.3-0.3,15.3c-1.7,1.5-3.3,0.8-5.3,0.6c-0.8-10.4-0.2-20.6-0.4-30.5
			c1.3-1.7,2.6-1.3,3.9-1.2C402.3,396,401.1,398.2,402.6,399.4z"/>
		<path class="st1" d="M505.7,339.9c2.3-0.9,3.7-0.9,5.5,0v31c-0.7,0.2-1.4,0.3-2.1,0.4c-0.8,0-1.6-0.1-3.2-0.2
			C505.4,360.6,505.6,350.3,505.7,339.9z"/>
		<path class="st1" d="M434.1,370.9c-1.7,0.7-3.5,0.6-5.1-0.1v-30.8c1.6-0.9,3.5-0.9,5.1-0.3V370.9z"/>
		<path class="st1" d="M585.4,426.5c-2,1.1-3.5,0.9-5.4,0.4c-0.8-10.3-0.2-20.6-0.4-30.6c1.7-1.2,3.9-1.4,5.7-0.3
			C585.8,406,585.6,416.2,585.4,426.5z"/>
		<path class="st1" d="M123.7,395.9c2.3-0.9,3.7-1,5.1-0.3c1,4.1,1.1,26.6,0.1,31.2c-1.4,0.8-2.8,0.7-5.1-0.1
			C123.4,416.6,123.6,406.3,123.7,395.9z"/>
		<path class="st0" d="M110.5,322.7c4.7-5.4,6.6-11.9,10.1-17.4c2.6-4,5.4-7.8,7.2-12.4c0.7-1.9,2.7-2.2,4.5-2.3
			c1.4,0.7,1,1.8,0.4,2.5c-5.7,6.2-7.6,14.6-12.5,21.3c-1.9,2.7-3.4,5.7-6,7.9C113.3,323,112.4,323.3,110.5,322.7z"/>
		<path class="st1" d="M604.9,392.3c4.1-9.1,4.8-9.6,11.5-8.4C612.4,386.9,611.4,392.4,604.9,392.3z"/>
		<path class="st1" d="M159.7,383.6c-4.8,7.6-6.3,8.8-10.4,8.2C152.3,383.8,153.4,382.9,159.7,383.6z"/>
		<path class="st1" d="M130.4,387.3c-0.1,2.3-1.1,3.7-3.2,3.9c-1.7,0.3-3.4-0.8-3.7-2.5c0-0.2-0.1-0.3-0.1-0.5
			c-0.4-1.8,0.8-3.6,2.6-3.9c0.3-0.1,0.5-0.1,0.8-0.1C129.1,384.1,130.1,385.5,130.4,387.3z"/>
		<path class="st1" d="M512.5,331.4c-0.2,2.4-1.3,3.7-3.4,3.9c-1.9,0-3.5-1.5-3.6-3.4s1.5-3.5,3.4-3.6l0,0
			C510.8,328.1,512.4,329.5,512.5,331.4z"/>
		<path class="st1" d="M586.5,387.7c-0.2,2.1-1.3,3.4-3.4,3.5c-1.7,0.2-3.3-0.9-3.6-2.7c0-0.2,0-0.3,0-0.5c-0.3-1.8,1-3.5,2.8-3.8
			c0.2,0,0.5,0,0.7,0C585.3,384.2,586.2,385.7,586.5,387.7z"/>
		<path class="st1" d="M431.9,328.2c2.3,0.1,3.4,1.3,3.5,3.4c0.1,1.9-1.4,3.5-3.3,3.7s-3.5-1.4-3.7-3.3c0-0.1,0-0.2,0-0.4
			C428.6,329.5,429.9,328.4,431.9,328.2z"/>
		<path class="st0" d="M55.6,224c6.4-4,9.7-4.6,14.9-2.9C65.4,222.6,60.5,223.2,55.6,224z"/>
		<path class="st0" d="M102,90.8c-1.9,5-8.6,6.3-11.6,2.7c-1.5-1.8-0.5-3.2,1.3-3.8C95.1,88.7,98.9,89.1,102,90.8z"/>
	</g>
</g>
</svg>
