<svg xmlns="http://www.w3.org/2000/svg" viewBox="0 0 61 51.33"><title>Recurso 1</title><path d="M14,2.17C14,1,13.78,0,13.5,0S13,1,13,2.17c0,.13,0,.26,0,.38h0V13.78h0c0,.12,0,.25,0,.38,0,1.2.22,2.17.5,2.17s.5-1,.5-2.17c0-.13,0-.26,0-.38h0V2.55h0C14,2.43,14,2.3,14,2.17Z" style="fill:#fc7323"/><path d="M1.73,38.33H1v8.84H1c0,.11,0,.21,0,.32,0,1,.16,1.83.35,1.83s.35-.82.35-1.83c0-.11,0-.22,0-.32h0Z" style="fill:#fc7323"/><rect y="31.33" width="1" height="5" style="fill:#fc7323"/><path d="M7.91,5.11C7.91,2.47,7.28.33,6.5.33S5.09,2.47,5.09,5.11c0,.29,0,.57,0,.84h0V30.71h0c0,.27,0,.56,0,.84,0,2.64.63,4.78,1.41,4.78s1.41-2.14,1.41-4.78c0-.29,0-.57,0-.84h0V6h0C7.9,5.68,7.91,5.4,7.91,5.11Z" style="fill:#ffa744"/><path d="M56.51,5.33c-.25,0-.45,2.14-.45,4.78q0,.43,0,.84h0V26.33H57V11h0q0-.41,0-.84C57,7.47,56.76,5.33,56.51,5.33Z" style="fill:#0f7d7c"/><path d="M3.51,27.33c.25,0,.45-1.73.45-3.87q0-.35,0-.68H4V10.33H3.06V22.78h0q0,.33,0,.68C3.06,25.6,3.26,27.33,3.51,27.33Z" style="fill:#0f7d7c"/><path d="M56.51,45.33c.25,0,.45-1.73.45-3.87q0-.35,0-.68h0V28.33h-.91V40.78h0q0,.33,0,.68C56.06,43.6,56.26,45.33,56.51,45.33Z" style="fill:#fc7323"/><path d="M59.91,40.93c0-.88-.43-1.59-1-1.59s-1,.71-1,1.59a2.65,2.65,0,0,0,0,.28h0v8.25h0a2.65,2.65,0,0,0,0,.28c0,.88.43,1.59,1,1.59s1-.71,1-1.59a2.65,2.65,0,0,0,0-.28h0V41.21h0A2.65,2.65,0,0,0,59.91,40.93Z" style="fill:#ffa744"/><g style="opacity:0.85"><path d="M41.55,6.25A5.52,5.52,0,1,1,36,.7,5.54,5.54,0,0,1,41.55,6.25Z" style="fill:#fff"/><path d="M18.57,15.28a.74.74,0,0,0-.54-.5,3.13,3.13,0,0,0-1-.13c-.83,0-1.2.15-1.2.42,0,1.09,6.61.42,6.61,3.07,0,1.69-2.22,2.51-5.38,2.51s-5-1.12-5.09-2.44H15.6a1,1,0,0,0,.62.58,3,3,0,0,0,1.07.18c.94,0,1.56-.19,1.56-.54,0-1.1-6.61-.34-6.61-3.13,0-1.55,2.11-2.33,5-2.33,3.19,0,4.65,1,4.92,2.31H18.57Z" style="fill:#fff"/><path d="M24.2,20.45V13.16h9.37v1.7H28v1h4.74v1.7H28v1.14H33.8v1.7H24.2Z" style="fill:#fff"/><path d="M43.25,17.14l-.14-1.66V13.16h3.61v7.29H43.18l-4.1-4,.14,1.66v2.31H35.62V13.16h3.53l4.1,4Z" style="fill:#fff"/><path d="M48,20.45l4.12-7.29h3.83l4.12,7.29H56.3l-.45-1H52.11l-.43,1H48Zm6-5.09L52.82,18H55.2Z" style="fill:#fff"/><path d="M60.89,22h-23L51.27,46l3-2.59-10.73-18,17.5,0Z" style="fill:#fff"/><path d="M11.15,22h23L20.78,46l-3-2.59,10.73-18-17.5,0Z" style="fill:#fff"/><path d="M23.35,47.92,35.92,26.1,48.84,47.71l-3.41,1.55L36.2,32.66l-9.82,16.8-3-1.53Z" style="fill:#fff"/></g><circle cx="12" cy="49.33" r="2" style="fill:#0f7d7c"/></svg>