<svg xmlns="http://www.w3.org/2000/svg" viewBox="0 0 885.35 452.55"><defs><style>.cls-1{fill:#08b2a7;}.cls-2{font-size:63.61px;fill:#333;font-family:MyriadPro-Regular, Myriad Pro;}.cls-3{letter-spacing:0em;}.cls-4{letter-spacing:-0.01em;}.cls-5{letter-spacing:0em;}.cls-6{letter-spacing:-0.01em;}.cls-7{letter-spacing:0em;}.cls-8{letter-spacing:-0.02em;}.cls-9{letter-spacing:-0.01em;}</style></defs><title>nav-logo</title><g id="Layer_2" data-name="Layer 2"><g id="Layer_1-2" data-name="Layer 1"><path class="cls-1" d="M104.06,205.41c-7.32,4.25-14.62,8.55-22,12.7a22.46,22.46,0,0,1-7.35,2.53C76.78,212,84.91,210.19,91,206l-32.41-9.46c-.15,6.89,2.54,14.4-3,21l-.95-20.25-9.33,10.31-.83-.89,7-14.14L29.26,175.19c-.11,2.06-.28,3.77-.28,5.49q0,57,0,114c0,6.69,0,6.7-6.5,6.72-5.83,0-11.67-.08-17.5,0-3,.06-4.29-1.14-4.21-4.11.08-3.33,0-6.66,0-10,0-56.32.14-112.64-.11-169C.59,106.15-.47,93.89,2.92,82.09c2.79-9.7,6.82-19,10.3-28.54,1.17-3.19,2.23-6.43,3.58-9.54a4.14,4.14,0,0,1,3.46-2.13l-1.14,3.35c10.23,3.05,20.5,5.34,30.13,9.22,9.28,3.74,17.9,9.13,27.14,13.1-15.69-13.24-33-23.3-55-27L38.08,22.4c-8.11-.43-15-.61-21.84-1.25-2.54-.24-6.93-1.27-7.11-2.45-.61-4,3.31-3.94,6.18-4.66,8.53-2.13,16.41,1.26,24.41,3,3.55.78,6.15.53,9.27-1.38,62.35-38.16,142.59-3.25,155.49,68.62,7.46,41.58-6.84,76.06-40.65,102l-4.23,3.21c4,.89,7.31,1.56,10.61,2.4,4.09,1,4.76,3.15,1.83,6.34a8.92,8.92,0,0,0-2.44,5c1.77-1.3,3.65-2.47,5.28-3.92,2.41-2.15,4.86-2.32,7.1-.12,2.84,2.78,5.95,5.54,7.88,8.91.92,1.61.23,5.48-1.17,6.82-3.77,3.61-8.31,6.42-12.33,10,7-.72,11.76-6.17,18.92-9.45,2,6.46,4.46,12.48,5.33,18.71.29,2.07-3.58,4.73-5.8,7.42-.32-.63-.19-.15-.06-.15,7.3,0,7.65.26,7.2,7.47A52.71,52.71,0,0,1,191,278c-3.25,4.3-3.58,4-7.59.43C172.79,269,161.82,260,150.14,250.17c-2.66,9.53-4.83,17.32-7,25.12-1.15,4.15-2.2,8.34-3.5,12.44a3.68,3.68,0,0,1-2.2,2.27c-.65.13-2.16-1.09-2.27-1.86-.45-3.07-1.31-6.41-.56-9.26,2.34-8.83,5.45-17.45,8-26.22.86-2.93,1-6.05,1.54-9.09L143,243l4.64-3c-.39-.62-.57-1.13-.72-1.12-7.21.54-11.44-2.68-13.35-9.69-.38-1.4-2.86-2.57-4.6-3.19-3.44-1.23-7.05-2-10.57-3-8.9-2.56-13.52-8.62-14.35-17.73l7.06-.42-4.3-8.34-1.19.16Zm35.05-6.07-5.57,8.74c-3.39-.66-2.24-6.73-7.18-4.28l1.56,6.51c-4.61-4-8.26-8-14.85-3.53l20,11.57,13.63-20.73-.8-.7-6.9,2.5c5.11-10.43,11.08-20.55,15.11-31.39,4.54-12.2-.17-23.71-6-34.6-.1-.18-.61-.14-2.34-.47-6.15,8.43-13,17.15-19.11,26.34-7.17,10.75-7.15,22.15-1.38,33.64C130.76,203.76,128.58,202.24,139.12,199.35ZM50,116.76c9.21-5.41,16.46-2.08,24.1,3.34,9.58,6.8,20.77,7.93,32,5.21,10.83-2.61,16.52-10.71,14.66-20.39C119,96,113.92,89.72,105,86.54c-8.14-2.91-16.35-1.11-23.46,1.57C67.77,93.31,57.48,103.52,50,116.76Zm53.21,59.45c4.71,1,9.66-.42,12.36-5.05a113.6,113.6,0,0,0,8.24-18.55c.76-2.08.15-5-.66-7.25-2.19-6-7.39-7.31-12.24-3.21-5.44,4.6-7.65,10.71-7.7,17.69C103.14,165.09,103.17,170.33,103.17,176.22Zm25.41-26.45c6.3-5.73,12.09-12.14,16-20a4.47,4.47,0,0,0-.9-4c-4.86-4.73-9.89-9.3-15-13.75-2.26-2-4.36-1.35-5.49,1.48-2.61,6.53-3.23,13-.41,19.8C124.92,138.36,126.48,143.73,128.58,149.77ZM65.06,133.13l-.78,1.21c5.67,9,10.89,18.24,17.18,26.74,3.25,4.4,8.26,7.56,12.74,10.93,1.28,1,3.48.72,5.26,1,.2-2.34,1.45-5.36.44-6.91-7.69-11.72-15.79-23.2-28.38-30.36A52.92,52.92,0,0,0,65.06,133.13Zm-4.29,8.31L59,141.39c-3,12.35-4.76,24.83-3.71,37.67a8.26,8.26,0,0,1-.86,4.58c-2.33,4-1.64,8.11,2.14,9.67a6.59,6.59,0,0,0,.46-1.82c-.26-5.67.8-10.69,4.94-15.12,1.53-1.63,1.66-4.91,1.74-7.46a68.5,68.5,0,0,0-.79-9.9C62.27,153.14,61.5,147.3,60.77,141.45Zm31-97.78c0-.25,0-.69-.17-.8-13.69-9.12-27.75-17.56-43.38-23-3.49-1.22-5.95,0-7.37,2.1Zm22.7,137.16c-4.26,2.7-5.28,5.7-3.4,10.28,3.08,7.5,8.85,12.53,13.34,11.52ZM81.41,137.34l-.47,1.5,19.81,23,1-.75c-3.69-8.35-7.63-16.61-14.55-22.94C86,137.1,83.39,137.59,81.41,137.34Zm1.3-53.79L85,85.07c7.07-8.31,11.19-18.48,17.18-27.47l-2-1.3ZM70.8,150.09c-5.17,6.16-6,9.54-4.3,17.65C72.88,160.59,74.41,154.73,70.8,150.09Zm76.48,81.08,10.6,3.26C154.49,230.19,152,227.1,147.28,231.18Z"/><path class="cls-1" d="M628.88,272.62A107,107,0,0,1,585,297.29c-1.38.4-2.88,3-3,4.67-.68,10.56-.56,10.56-11.33,10.55s-21.67-.11-32.49.05c-3.74.06-5.34-1-5.33-5,0-9.75-.23-9.58-9.05-13A151.34,151.34,0,0,1,508,287.3c-2.65-1.38-4.32-1.3-6.53.8-8.22,7.81-8.28,7.71-16.29-.19-8.65-8.52-17.34-17-27.42-26.86,3.78-3.06,7.1-5.34,9.85-8.18a5.85,5.85,0,0,0,.81-5.09c-2.7-7.15-6-14.06-8.64-21.24-1.17-3.23-2.72-4.34-6.08-4.34-10.9,0-10.9-.14-10.89-11.1s.14-22-.09-33c-.07-3.64.83-5,4.69-4.94,10.48,0,10.34-.19,14-9.78,2-5.28,4.81-10.26,6.8-15.55a6.5,6.5,0,0,0-.79-5.48c-2.42-2.9-5.52-5.24-8.18-7.65l36-35.43,6.33,8c1.74,2.19,3.55,2.16,6.1,1,7.09-3.27,14.26-6.39,21.58-9.08C532.38,98,533,96.23,533,93.23c.06-10.53.15-10.52,10.65-10.52,10.83,0,21.67.14,32.49-.07,4.27-.08,6.3,1.27,5.75,5.73-.18,1.48.1,3-.05,4.49-.37,3.51,1.39,4.74,4.58,5.82a157.42,157.42,0,0,1,20.32,8.27c3.72,1.87,6.08,1.75,8.46-1.51,1.57-2.15,3.26-4.22,4.51-5.82l35.07,35a77.65,77.65,0,0,1-5.82,6c-2.51,2.14-2.38,4-1,6.86,3.86,8,7.25,16.24,10.83,24.39l-1.25,1.59c-5.22,0-10.51-.56-15.65.12-9.69,1.28-14.85-1.87-19.63-11.26-14.45-28.36-47-42.87-78.07-36.71a73.93,73.93,0,0,0-58.94,63.38c-5.09,40.07,24.46,77.25,64.87,81.61,30.5,3.29,58.79-11.6,73.13-38.57,1-1.83,1.64-3.84,2.84-6.72h-6.74c-18.66,0-37.33-.13-56,.08-4.66.05-6.71-1.15-6.36-6.13.37-5.31.18-10.66.06-16-.07-3.18,1.22-4.51,4.42-4.5q45.49.07,91,0c3.39,0,4.67,1.31,4.66,4.76q-.12,52.18,0,104.36c0,3.37-1.08,4.84-4.6,4.73-6-.18-12-.23-18,0-4.08.18-5.62-1.21-5.52-5.4.23-9.49.07-19,.05-28.49C629.13,277.07,629,275.46,628.88,272.62Z"/><path class="cls-1" d="M707.51,285.9V411.42c-8.8,0-16.92.12-25-.14-1,0-2.48-1.84-2.93-3.11-.53-1.49-.2-3.29-.2-5q-.13-93.74-.25-187.49c-.08-48.83,31.6-90.53,77.74-102.25a102.94,102.94,0,0,1,127.19,83.71c9.34,58.25-32.69,112.7-91.35,118.29-30.57,2.91-57.17-6.18-80-26.63a36.29,36.29,0,0,0-3.11-2.5C709.26,286.1,708.71,286.14,707.51,285.9Zm74.38.57c41,0,74-32.44,74-72.77.07-41-33.21-74.36-74-74.2-40.22.16-73,33.51-72.93,74.18A73,73,0,0,0,781.88,286.47Z"/><path class="cls-1" d="M428.2,222.1c-3.4,8.33-5.84,15.93-9.56,22.84-2.5,4.66-2.05,7.52,1.92,10.45,2.27,1.67,4.41,3.54,6.21,5l-36.07,36.4c-2.12-2.86-4.13-6.21-6.81-8.88-1.05-1-3.87-1.31-5.42-.71-7,2.7-13.66,6.14-20.68,8.68-3.58,1.29-4.93,2.87-4.91,6.71.06,11,1.56,9.85-9.78,9.9s-22.67-.12-34,.07c-4,.07-5.15-1.39-5.12-5.25.06-9-.17-8.88-8.83-12a138.8,138.8,0,0,1-16.48-7.12c-3.13-1.63-5-1.21-7.32,1.19-6.79,6.89-6.9,6.8-13.8-.08q-11.68-11.65-23.33-23.33c-1.27-1.27-2.44-2.63-5.14-5.54,2.83-2,5.78-3.56,7.8-5.88a7,7,0,0,0,1-6c-2.87-7.79-6.46-15.32-9.33-23.1-1.2-3.27-3.36-3.15-5.88-3.16-9.86,0-9.29,1.08-9.28-9.59,0-11.17.16-22.34-.08-33.5-.1-4.48,1.21-6.22,5.94-6,8,.32,7.76,0,10.54-7.47a173.35,173.35,0,0,1,7.74-17.85c1.63-3.21,1.73-5.41-1.13-7.8a65.31,65.31,0,0,1-5.44-5.62l34-34.32a3.82,3.82,0,0,1,1.3.94c5.05,7.72,10.88,8.24,18.54,3.22,4.34-2.85,9.77-4.24,14.88-5.66,3.41-.95,4.44-2.55,4.46-5.92,0-10,.17-10,10.38-10,11,0,22,.13,33-.05,4.09-.07,5.56,1.37,5.53,5.52-.07,9.31.18,9.14,9,12.53a150.77,150.77,0,0,1,15.87,7.3c2.87,1.51,4.91,1.39,6.94-1.11,2.18-2.7,4.48-5.31,6.43-7.6l35.95,35.87c-2.45,2-5.11,4.26-7.88,6.38s-2.84,4.32-1.21,7.64c3.63,7.38,6.51,15.12,10.32,24.21-7.66,0-13.6-.46-19.44.11-8.13.8-12.62-1.43-16.64-9.62-15.74-32.09-53.72-47.29-87.31-36.21-34.48,11.37-55.5,45.22-50.18,80.79,4.71,31.46,30.2,57.45,60.56,61.75,34.25,4.84,65.81-12.12,79.15-42.86,1.75-4,3.89-5.49,8.18-5.32C410.67,222.32,418.63,222.1,428.2,222.1Z"/><path class="cls-1" d="M111.79,323c3-5.81,6-11.55,9.05-17.19,2.37-4.33,4.78-8.66,7.55-12.73.92-1.34,3-1.87,5.22-3.13C132,299.51,116,322.67,111.79,323Z"/><path class="cls-1" d="M56.12,222.78l14.06-3.25.44,2-14.15,2.82Z"/><path class="cls-1" d="M96.07,88.14l6.43,4.16c-1.8,1.14-3.7,3.32-5.38,3.16-2.35-.22-4.53-2.19-6.79-3.41Z"/><text class="cls-2" transform="translate(0 360.32)"><tspan class="cls-3">R</tspan><tspan x="34.48" y="0">ed de </tspan><tspan class="cls-4" x="196.93" y="0">C</tspan><tspan x="233.12" y="0">onocimie</tspan><tspan class="cls-5" x="481.45" y="0">n</tspan><tspan class="cls-6" x="516.5" y="0">t</tspan><tspan x="537.17" y="0">o</tspan><tspan class="cls-7" x="0" y="76.33">G</tspan><tspan x="41.41" y="76.33">estión de la </tspan><tspan class="cls-8" x="358.49" y="76.33">P</tspan><tspan class="cls-9" x="391.32" y="76.33">r</tspan><tspan x="411.48" y="76.33">odu</tspan><tspan class="cls-6" x="517.33" y="76.33">c</tspan><tspan x="545.44" y="76.33">ción</tspan></text></g></g></svg>