<svg xmlns="http://www.w3.org/2000/svg" viewBox="0 0 264.92 309"><defs><style>.cls-1{fill:#2fb5a6;}</style></defs><title>navl</title><g id="Layer_2" data-name="Layer 2"><g id="Layer_1-2" data-name="Layer 1"><path class="cls-1" d="M0,151c2.25-2.84,5.39-2.09,8.33-2,6.45.11,7.52-.66,9.05-6.75a90.13,90.13,0,0,1,9.7-23.48c2.21-3.8,2-6.4-1.35-9.53-7.1-6.67-6.44-5.22-.12-11.59,11-11.1,22.13-22.1,33.21-33.15,2.76.68,4.31,2.81,5.83,4.66C67.82,73,71,73.65,75.39,70.91c5.38-3.34,11.41-5.46,17.39-7.57,1.64-.58,3.31-1.72,5.36-.76,1.34,2-1.33,3.62-.62,5.85,3,1.38,4.43-.85,5.67-2.93q4.63-7.71,9-15.58c2.14-3.87,5.21-5.86,9.69-5.82,10.66.11,21.33.07,32,.22,6,.09,6.87,1,7,7,.24,8.68.52,9.12,8.94,12,7.28,2.49,14.4,5.38,20.76,9.73,3,2.07,5.11,1.47,7.35-.89,1.84-1.93,3.87-3.68,5.66-5.65,2.35-2.57,4.33-2.28,6.72.09,10.88,10.8,21.79,21.57,32.87,32.16,2.73,2.61,2.67,4.63.21,7.06-.35.35-.58.87-1,1.13-8.39,5.4-8.22,11.83-3.2,19.7,3.29,5.17,4.92,11.29,6.56,17.24,1,3.66,3,5.1,6.82,5.09,12.77,0,12.37-2.24,12.33,12.89,0,12,0,24,0,36,0,6.24-.73,6.92-6.84,7-10.63.14-10.63.14-13.92,10.17a84.66,84.66,0,0,1-8.36,18.66c-2,3.19-1.44,5.35,1.24,7.77s6.14,4.58,8.25,7.87c-1.06,2.52-3.19,4-4.93,5.69-10.24,10.26-20.62,20.39-30.78,30.73-2.6,2.65-4.36,3.25-7.23.27-9.63-10-6.94-8.46-18.1-2.77a95.5,95.5,0,0,1-18.14,7c-3.77,1-5.6,3.18-5.26,7.23A36.22,36.22,0,0,1,160,309H106c-1.76-2.56-1.11-5.48-1.14-8.26-.09-8.14,0-8.15-7.56-10.34A106.66,106.66,0,0,1,81,284.12c-10.1-4.84-10.15-4.9-18.31,2.88-1.94,1.85-3.33,2.24-5.38.17q-17.18-17.45-34.53-34.73c-2-2-2-3.63,0-5.45,1.24-1.11,2.43-2.29,3.72-3.33,3.41-2.73,4-5.54,1.46-9.46a77.24,77.24,0,0,1-9.65-22.41c-1.37-5.38-3.94-7.53-9.44-7C5.7,205.13,2,205.81,0,202Zm64.79-50.44c4.88-.52,8.43-2.85,12.5-2.58,4.29.28,7.55,2,9.3,6.38L82,107.73C54.94,127.8,43.46,155.05,47.38,188c3.82,32.11,23,53.53,51.87,66.5,12.36,5.55,25.6,7.06,39.13,5.85,3.38-.3,7.23-1.46,8.64,3.43.44,1.52.41,3.74,2.67,3.61,2.56-.14,2.94-2.41,3.12-4.43.13-1.45,1.05-2.84.4-4.35-5.73-1.45-6.23-2.3-4.58-8.21a146.66,146.66,0,0,1,7.22-20.75c1.64-3.65-1.35-8.76,4.24-11.33-5.72-.69-10.94-1.57-12.62-7.62-1.05-3.8-3.63-5.21-7.15-6-4.87-1.07-9.78-2.2-14.1-4.9a16.63,16.63,0,0,1-5.44-22.93c5,13.71,18.27,16.34,28.74,22.69-1.76-4.24-1.8-4.26.6-7.91,2.55-3.9,5.52-7.58,7.69-11.68,4.21-8,9.2-11.19,22.08-8,5.77,1.45,6,2.55,2.71,7.27-.67,1-2.14,1.79-1.15,3.39,1.76.13,2.9-1,3.9-2,3.39-3.46,6.43-2.68,9.42.49,1,1.09,2.12,2.13,3.1,3.26,5,5.68,4.69,8.54-1.46,13-2.88,2.1-5.93,4-9.66,6.42a8.69,8.69,0,0,0,7-1.26c2.46-1.39,4.88-2.88,7.21-4.5,2.85-2,4.63-1.58,6.19,1.71a14.91,14.91,0,0,1-.58,14.78,103.94,103.94,0,0,1-18.75,23.91c-5.26,5-6.06,5-12,1l-14.27-9.71-7.07,27.66c9.15-2.78,16.49-5.81,23-10.49,3.15-2.26,5.74-2.13,8.4.54,2.93,3,6,5.79,8.81,8.86,2.65,2.89,4.73,3,7.18-.31a54.43,54.43,0,0,0,10.88-28.56c.31-4-.27-7.32-5.48-8.46,3-2.22,5.1-4.29,4.12-7.51-1-3.41-.27-6.55.72-9.78A86.79,86.79,0,0,0,214,155.82c-7.88-33.91-38.7-60.68-73.27-63.7-3.75-.33-6.32.2-7.44,4.44-1,4-3.81,7-7.35,9.15-8.18,5.05-26.2,4.5-34-1.11-.33-.23-.39-.84-.55-1.21.85-1.79,2.56-2.23,4-3,10.44-5.27,21.63-7.61,33.2-8.42,5.79-.41,6.7-1.54,4.9-7.15-2.59-8.09-8-13.65-16.31-15.34-8.69-1.77-17.39.13-25.24,3.76C84.64,76.61,78.55,82.08,73,87.9,69.72,91.34,66.54,95,64.79,100.56Zm59.33,198.85c6.48-1.24,19.67-21,22-31-3.38-1.2-5,.73-6,3.47a50.2,50.2,0,0,1-4.79,8.68C131.73,286.46,129.28,293,124.11,299.41Zm44.78-86c-4.09-8.46-10.52-2.94-15.23-4.43Z"/><path class="cls-1" d="M41,0c4.51,1.05,9.06,2,13.53,3.17,18.05,4.82,34.16,13.69,49.58,24a20.33,20.33,0,0,1,2.11,2.19,51.14,51.14,0,0,1-12.82-5.24C77.84,16,61.74,9.51,44.1,7.49A113.19,113.19,0,0,0,32.16,7.1c-2.17,0-5.3.91-5.77-2.29S29,1.55,31.19.94C32.14.68,33.06.32,34,0Z"/><path class="cls-1" d="M90.79,52.06c-2.61.69-4-.69-5.5-1.62C71,41.6,56.11,34.47,39.18,32.5a18.71,18.71,0,0,1-2.92-.65c-1.21-.34-2.18-1-2-2.43a2.4,2.4,0,0,1,2.41-2.15,26.41,26.41,0,0,1,6.94,0C61.1,30.86,76.08,39.63,90,50.48,90.32,50.73,90.42,51.29,90.79,52.06Z"/><path class="cls-1" d="M105.6,51.64c-.44-3.12-2.08-7.09,3.87-6.36C109.52,48.39,107.54,50,105.6,51.64Z"/><path class="cls-1" d="M145.56,186.83c-13.12-15.42-14.38-33.58-3.53-50.06a179.38,179.38,0,0,1,14.06-18.11c3.32-3.87,4.9-3.59,6.93,1.32,5.33,12.95,7.07,25.76-.16,38.87-4.41,8-8.36,16.25-13.25,24C148.59,184.44,148,186.58,145.56,186.83Z"/><path class="cls-1" d="M115.65,157c1.92-5.79,1.34-11.27,1.46-16.71.13-6.25,2-11.71,7-15.87,2.27-1.91,4.67-3.37,7.68-2a8.67,8.67,0,0,1,5.31,6.74c1.28,7.69-5.27,22.73-11.84,26.8A10.25,10.25,0,0,1,115.65,157Z"/><path class="cls-1" d="M140.47,132.07c-.3-7.76-3.51-13.07-5.51-18.81-1.9-5.44-.88-10.82,1.05-16.06,1.12-3,3.19-3.7,5.86-1.92,5.57,3.72,9.77,8.94,14.54,13.53a3.07,3.07,0,0,1,.61,3.71A58.07,58.07,0,0,1,140.47,132.07Z"/><path class="cls-1" d="M79.06,116.75c3.5-1.2,5.42.34,7.4,1.41,12.13,6.59,19.5,17.76,27.15,28.61a5.22,5.22,0,0,1,0,6.55c-1.86,2.15-4,.59-5.87-.36a32.62,32.62,0,0,1-10.79-8.67C90.12,135.86,85.71,125.94,79.06,116.75Z"/><path class="cls-1" d="M74.51,123.54a7.9,7.9,0,0,1,2.43,5.65c.69,6.62,1.29,13.25,1.89,19.88.33,3.59,0,7.12-2.55,9.87-3.09,3.35-3.89,7.28-3.52,11.57.45,5.14,1.11,10.25,1.6,15.39a16.64,16.64,0,0,1-2.55,10.92c-1.55-6.67.66-12.86-2.61-18.52-2.9,2.29-3.47,6.29-7.82,7.39,1.53-3.42,2.7-6.44,4.19-9.3a41.58,41.58,0,0,0,4.95-22.3A84.72,84.72,0,0,1,74.51,123.54Z"/><path class="cls-1" d="M128.93,161.38c1.56,9.83,7.76,16.85,10.53,25.62-5.83-2.08-14.91-12.33-15.71-17.57C123.16,165.59,125.21,163.31,128.93,161.38Z"/><path class="cls-1" d="M114.72,142.6c-6.65-6.86-12.7-14-19.26-21.08,2.33-2.18,4.81-2.19,6.53-.66C108.55,126.68,111.93,134.48,114.72,142.6Z"/><path class="cls-1" d="M114.76,183c-6.25,8.41-14.86,13.26-24.69,16.25C95.2,189.11,105.69,187.13,114.76,183Z"/><path class="cls-1" d="M86.08,132.73c3,4.19,1.74,8.53-4.12,15.06C79.6,141.7,80.72,137.38,86.08,132.73Z"/><path class="cls-1" d="M105.57,76.65c.3-.63.36-1,.59-1.19,2.66-1.61,5.43-2.63,8.17-.3a1.58,1.58,0,0,1-.39,2.56C110.84,79.66,108.09,79,105.57,76.65Z"/></g></g></svg>