<svg xmlns="http://www.w3.org/2000/svg" viewBox="0 0 359.04 98.81"><defs><style>.cls-1,.cls-2{fill:#969696;}.cls-2{font-size:23px;font-family:ZurichBT-Roman, Zurich BT;}.cls-3{letter-spacing:0.02em;}</style></defs><title>red-conocimiento-logo</title><g id="Layer_2" data-name="Layer 2"><g id="Capa_1" data-name="Capa 1"><path class="cls-1" d="M18.63,20.48a3.22,3.22,0,0,1,1.7,1.33c1.11,1.42,2.21,1.61,3.83.66a41.58,41.58,0,0,1,5.42-2.36,2.21,2.21,0,0,1,1.6-.28c.48.68-.49,1.24-.19,2,.94.41,1.42-.27,1.82-.94q1.58-2.6,3.06-5.26A2.89,2.89,0,0,1,38.76,14c3.52.27,7,.12,10.57.11,1.48,0,2,.61,2,2,.09,3.08.13,3.1,3,4.07a28.36,28.36,0,0,1,6.51,3.05c.93.61,1.64.65,2.35-.2l.12-.11c2.89-2.68,2.88-2.67,5.66.07s5.77,5.7,8.72,8.49c.87.82.89,1.47.08,2.25-.11.11-.19.28-.31.36-2.68,1.72-2.65,3.78-1,6.31a20,20,0,0,1,2.1,5.52,2,2,0,0,0,2.15,1.67c4.12,0,4-.72,4,4.1,0,3.9,0,7.79,0,11.69,0,1.48-.48,2.12-2,2.09-4.43-.09-3.52-.12-4.67,3.39a28.31,28.31,0,0,1-2.7,6A1.52,1.52,0,0,0,75.57,77c1,.82,1.88,1.71,2.68,2.44L65.7,92.25a10.9,10.9,0,0,1-2.52-2.34,1.73,1.73,0,0,0-2.51-.4A29.12,29.12,0,0,1,53,92.78c-1.25.34-2,1-1.75,2.41a2.33,2.33,0,0,1,0,.32c.08,3.15,0,3.28-3.1,3.28-4.33,0-8.65,0-13,0-1.41,0-1.88-.48-1.85-1.86.08-4.11.12-3.31-3.3-4.4a29.6,29.6,0,0,1-6.29-2.77,1.76,1.76,0,0,0-2.62.47,7.26,7.26,0,0,1-2.12,2.07c-.58-.1-.86-.52-1.19-.86-3.51-3.52-7-7.06-10.52-10.54-.84-.83-1-1.46,0-2.2.25-.2.47-.44.73-.63,1.36-1,1.53-2.05.58-3.53a25.84,25.84,0,0,1-3.1-7.35A2.06,2.06,0,0,0,3.18,65.4C-.26,65.5,0,65.52,0,62.14c0-4.27,0-8.54,0-12.82,0-1.43.53-1.86,1.89-1.83,2.92.07,2.89,0,3.66-2.78a28.81,28.81,0,0,1,3-6.9,2.11,2.11,0,0,0-.46-3.05C5.78,32.63,6,33.13,8,31.06,11.56,27.51,15.12,24,18.63,20.48ZM49.05,82.65c-2-.41-2.14-.68-1.66-2.47a16,16,0,0,1,.9-2.9c1.18-2.4,1.34-5.15,2.55-7.65-.21-.25-.66-.2-1.08-.22a2.72,2.72,0,0,1-2.71-2.1,2.63,2.63,0,0,0-2.29-1.92,14.51,14.51,0,0,1-4.38-1.48,5.25,5.25,0,0,1-1.91-7.3c1.66,4.31,5.86,5.2,9.33,7.17a1.79,1.79,0,0,1,0-2.52c.87-1.21,1.69-2.46,2.5-3.72,1.89-2.93,3.7-3.61,7-2.6,1.83.55,1.92.82.83,2.33-.24.33-.62.6-.52,1.24a3.25,3.25,0,0,0,1.73-1c.41-.36.89-.74,1.44-.48a5.92,5.92,0,0,1,3.25,3.56c.42,1.44-1,2.06-1.94,2.82-.74.6-1.81.8-2.39,1.8a3.22,3.22,0,0,0,2.36-.63c.74-.42,1.47-.87,2.17-1.35s1.32-.36,1.74.51A4.72,4.72,0,0,1,66,68.47a36.36,36.36,0,0,1-6.21,7.91c-1.17,1.12-2.19,1.26-3.5.25s-3-2.09-4.72-3.26l-2.35,9a24.83,24.83,0,0,0,7.47-3.4,1.81,1.81,0,0,1,2.68.17c.94,1,1.92,1.86,2.82,2.84s1.52,1,2.31-.09a17.51,17.51,0,0,0,3.5-9c.11-1.28,0-2.44-1.45-3,.69-.72,1.35-1.36,1-2.32a5.36,5.36,0,0,1,.27-3.28c2.68-9.45,1.23-18.11-5.22-25.66A26.11,26.11,0,0,0,45.1,29.32c-1.22-.13-2.31-.18-2.67,1.45a4.53,4.53,0,0,1-2,2.64c-2.67,1.87-8.62,1.78-11.28-.19-.06,0-.05-.19-.08-.31.33-.6,1-.77,1.55-1a27.76,27.76,0,0,1,9.55-2.5c3-.32,3.28-.87,1.89-3.56a7.44,7.44,0,0,0-1.2-1.68C38.44,21.53,33.6,20.93,29.67,23a22,22,0,0,0-8.44,7.44c-.29.45-.83.89-.35,1.67,2.31-.69,4.77-1.91,6.62.94a9.26,9.26,0,0,1-2.29,1.9C11.79,45,10.54,66.46,25.09,77.62a27,27,0,0,0,19.5,5.63c.86-.08,1.72-.24,2.19.79.26.57,0,1.62,1.09,1.45s.84-1.1,1-1.82C48.9,83.37,49,83.06,49.05,82.65ZM39.39,95.82c2.26-.4,6-5.89,7.33-10a1.41,1.41,0,0,0-2,1,16.67,16.67,0,0,1-1.59,2.92C41.94,91.59,41.15,93.74,39.39,95.82Zm14.55-27.6c-1.24-2-1.34-2-5.14-1.49Z"/><path class="cls-1" d="M33.42,9a21.09,21.09,0,0,1-4.65-2A43.65,43.65,0,0,0,14.13,2.19,39.73,39.73,0,0,0,9.5,2.06c-.54,0-1.15,0-1.25-.7s.53-1,1.1-1.12A13.77,13.77,0,0,1,14.12.18C19.8,1,28.95,5.11,33.42,9Z"/><path class="cls-1" d="M28.9,16.38c-.79.38-1.22-.12-1.69-.41-4.62-2.86-9.46-5.15-14.93-5.83-.58-.07-1.52,0-1.47-.86s1-.79,1.65-.81a15.49,15.49,0,0,1,5.72,1.39,41.14,41.14,0,0,1,10.21,5.92A3.9,3.9,0,0,1,28.9,16.38Z"/><path class="cls-1" d="M34.89,14.38a3,3,0,0,1-1.29,2C33.26,14.5,33.35,14.36,34.89,14.38Z"/><path class="cls-1" d="M46.2,59.64c-1-2.26-2.4-4.32-3-6.73a10.25,10.25,0,0,1,1.2-7.85A54.68,54.68,0,0,1,50,37.66c.77-.9,1.42-.89,1.88.24,1.61,3.94,2.53,7.88.44,12a90,90,0,0,1-4.65,8.55C47.33,58.92,47.15,59.56,46.2,59.64Z"/><path class="cls-1" d="M43.73,42.13a11.94,11.94,0,0,1-3.21,7.13,3.3,3.3,0,0,1-1.65.92c-1.57.4-1.84.11-1.67-1.47.14-1.26.08-2.55.13-3.82a6.47,6.47,0,0,1,1.81-4.79c.83-.78,1.65-1.62,2.92-1A2.85,2.85,0,0,1,43.73,42.13Z"/><path class="cls-1" d="M45,41.71c-.31-2.06-1.29-3.73-1.94-5.52A7.58,7.58,0,0,1,43.37,31c.34-1,1-1.23,1.85-.66a31.13,31.13,0,0,1,4.67,4.36A1,1,0,0,1,50,35.92,16.1,16.1,0,0,1,45,41.71Z"/><path class="cls-1" d="M25.15,37.21a2.58,2.58,0,0,1,2.35.48c3.83,2.1,6.19,5.62,8.61,9.06a1.73,1.73,0,0,1,0,2.11c-.57.69-1.28.19-1.88-.11A9.15,9.15,0,0,1,31.77,47C29,44.15,27.55,40.43,25.15,37.21Z"/><path class="cls-1" d="M23.72,39.31c1,1.57.75,3.11,1,4.53s.22,2.65.32,4a3.81,3.81,0,0,1-.87,3A4.94,4.94,0,0,0,23,55c.2,1.53.41,3.06.51,4.6a4,4,0,0,1-.75,3.08c-.4-2,.21-3.93-.82-5.78-1,.63-1.1,2-2.29,2.33-.19-.53.16-.88.37-1.19,2.34-3.55,2.48-7.54,2.49-11.59A23.08,23.08,0,0,1,23.72,39.31Z"/><path class="cls-1" d="M44.43,60.09c-2-1.65-3.64-3.08-4.64-5.12-.69-1.42-.38-2.27,1.17-3.35a31.66,31.66,0,0,0,1.6,4.11A12.88,12.88,0,0,1,44.43,60.09Z"/><path class="cls-1" d="M36.49,45.51c-2-2.26-4-4.52-6.1-6.81a1.56,1.56,0,0,1,2.14-.11A15,15,0,0,1,36.49,45.51Z"/><path class="cls-1" d="M36.55,58.45a14.63,14.63,0,0,1-7.85,5.13C30.36,60.43,33.67,59.76,36.55,58.45Z"/><path class="cls-1" d="M27.56,42.43c1.23,2.12-1.12,3.12-1.26,4.73A3.27,3.27,0,0,1,27.56,42.43Z"/><path class="cls-1" d="M33.59,24.34c.21-.27.25-.39.33-.43.83-.4,1.68-.75,2.49,0a.49.49,0,0,1-.16.8A2.14,2.14,0,0,1,33.59,24.34Z"/><text class="cls-2" transform="translate(93.51 56.6)"><tspan class="cls-3">Red de Conocimiento</tspan><tspan x="0" y="19.2">Gestión de la Producción</tspan></text></g></g></svg>