<svg xmlns="http://www.w3.org/2000/svg" viewBox="0 0 1056.9 308.45"><defs><style>.cls-1{fill:#06b3a1;}.cls-2{font-size:73.1px;fill:#333;stroke:#333;stroke-miterlimit:10;stroke-width:3px;font-family:MyriadPro-Regular, Myriad Pro;}.cls-3{letter-spacing:0.06em;}.cls-4{letter-spacing:0.05em;}.cls-5{letter-spacing:0.04em;}.cls-6{letter-spacing:0.05em;}.cls-7{letter-spacing:0.05em;}.cls-8{letter-spacing:0em;}.cls-9{letter-spacing:-0.02em;}.cls-10{letter-spacing:-0.01em;}.cls-11{letter-spacing:-0.01em;}.cls-12{letter-spacing:0em;}</style></defs><title>red-logo</title><g id="Layer_2" data-name="Layer 2"><g id="Layer_1-2" data-name="Layer 1"><path class="cls-1" d="M19.61,102.76,58.44,63.67c2.49,1.63,4.48,4.1,6.71,6.29C69,73.71,69,73.76,73.44,71.24a125.23,125.23,0,0,1,21.09-9c1.09-.37,2.16-.91,3.51-.37.51,2.55-2.76,4.1-1.89,7,3.28.88,5.11-1.08,6.59-3.6,3.27-5.61,6.63-11.17,9.69-16.89,1.92-3.58,4.5-4.59,8.52-4.46,11,.36,22,.19,33,.25,5.9,0,5.9.06,6,5.75.13,10,.15,10,9.44,13.19a96.8,96.8,0,0,1,24.3,12,101.5,101.5,0,0,0,10-9.6c1.62-1.66,2.9-2.27,4.92-.24,12.13,12.12,24.39,24.11,36.69,36.23-2.77,4.61-6.46,7.5-9.72,10.71-2,1.94-2.35,3.42-1,6A126.83,126.83,0,0,1,245.42,145c.68,2.54,1.91,3.63,4.52,3.54,3.33-.12,6.67.08,10,0,2.62-.09,4,.63,4,3.6q-.12,24.24,0,48.48c0,2.51-.92,3.65-3.52,3.56-3.49-.12-7,.07-10.49,0-2.54-.07-3.92.81-4.59,3.44a102.3,102.3,0,0,1-11.25,27.13c-1.34,2.24-.74,3.68.94,5.19,3.47,3.1,6.92,6.24,10,9L205.3,288.4a68.84,68.84,0,0,1-8.85-8.67c-1.86-2.08-3.37-2.56-5.93-1a100.39,100.39,0,0,1-26.07,11.2c-3.53.94-4.88,2.79-4.58,6.37.24,2.81,0,5.66,0,8.49.07,2.51-1,3.7-3.54,3.65-3.16-.05-6.33,0-9.5,0q-18.49,0-37,0c-5.6,0-5.61,0-5.65-5.45,0-2.83-.06-5.67,0-8.5,0-2-.79-3-2.76-3.48a110.91,110.91,0,0,1-28.59-11.61c-2.28-1.36-4-.89-5.62,1-2.6,3-5.34,5.92-7.91,8.74L20,249.4c1.92-2.78,5.31-5.27,8.14-8.25,1.64-1.73,2-3.13.68-5.23a112.07,112.07,0,0,1-12.12-28.39c-.7-2.5-2-3.63-4.58-3.47s-5,.07-7.5,0C.15,204,.09,204,0,199.65c-.07-5.66,0-11.33,0-17,0-9.83,0-19.66,0-29.49,0-4.59.11-4.5,4.82-4.72,3.28-.15,7.13,1.29,9.7-.87,2.33-2,2.21-5.79,3.17-8.78A120.75,120.75,0,0,1,27.84,116c1.28-2.25,1.25-3.79-.74-5.61A57.23,57.23,0,0,1,19.61,102.76Zm134.32,154.6c8.68-3,17.22-6.27,24.68-11.79,2.06-1.53,3.61-.92,5.3.48a101.16,101.16,0,0,1,10.25,10.2c2.86,3.15,4.39,3.15,6.8-.05,6.85-9.12,11.24-19.19,11.26-30.82,0-5.81,0-5.81-6.53-6.9,6-1.73,6.34-5.4,4.67-9.9-.7-1.89.26-3.57.79-5.31,3.65-12,5.67-24.11,4.26-36.84q-3.63-32.87-28.27-54.42C172,98.74,154.26,91.55,133.95,91.21l.11.11a22.88,22.88,0,0,0-27.44-22.8c-2.6.56-5.13,1.46-7.83,1.51a15.31,15.31,0,0,0-8.42,2.76c-3.17,2.14-6.5,4.11-9.43,6.55-5.76,4.79-11.42,9.76-15.27,16.34-.87,1.48-2.72,3.09-1.15,5.26,11.85-5.07,16.37-4.56,21.6,2.37-.58,1.09-1.7,1.52-2.65,2.17-23.11,16-35.95,38.16-37.55,66.13-1.53,26.66,8,49.38,28,67.21C92.22,255.15,114,262,138.42,260.08c6.9-.54,6.87-.89,8.38,5.78.11.49.14,1,.2,1.48-5.91-.36-6.23-.15-8.1,5a34.8,34.8,0,0,1-1.52,3.67c-1.38,2.74-4.29,4.25-5,7.81-.53,2.65-3.12,4.93-4.06,7.88-.52,1.63-2.16,2.9-3.24,4.37-.62.84-2.05,1.39-1,3.17,3.77.73,5.44-2.22,7.23-4.65,6.08-8.26,9.32-18.21,15.62-26.35.16-.21,0-.65,0-1,3.16.61,5.21-.3,5.27-3.89,0-2.2,1.08-4.1,1.84-6.09Z"/><path class="cls-1" d="M105.49,29.11C97,25.84,89.69,21.56,82,18.06,68.15,11.72,53.8,7.36,38.48,6.39A78.38,78.38,0,0,0,30,6.71c-1.76.08-4.12-.06-4.42-2.3S27.27,1.27,29.14.88A34.49,34.49,0,0,1,41.37.31c23.72,3.41,44,14.49,63.51,27.47C105,27.86,105,28.07,105.49,29.11Z"/><path class="cls-1" d="M90.14,52c-2.45.19-4.17-1.58-6.06-2.73C74.24,43.34,64.14,38,53,34.73A82.28,82.28,0,0,0,39.86,32c-1.48-.18-2.95-.5-4.41-.78-1-.2-1.95-.63-2.11-1.79-.21-1.47.89-2.18,2-2.47a17.69,17.69,0,0,1,8.39.06c12.5,2.79,23.87,8.18,34.5,15.19C82.47,45,86.58,48,90.76,51Z"/><path class="cls-1" d="M104.41,52.56c-.27-8.45-.27-8.45,5.38-8.09A36.2,36.2,0,0,1,104.41,52.56Z"/><path class="cls-1" d="M154,257.27c-2.13-.73-4.24.4-6.69.13-.52-4.46,1.24-8.47,2.44-12.5a160.26,160.26,0,0,1,5.57-15.49c1.14-2.74,2-5.21-.36-7.83,1.59-1.68,5.32-.84,4.69-4.33-.25-.21-.53-.62-.74-.58-6.64,1-10.89-1.56-12.46-8.29-.69-2.94-3.35-3.53-5.75-4.11a74.28,74.28,0,0,1-12.43-3.65c-9.42-4.11-13.22-14.63-8.41-25,3.88,13.65,16.34,16.53,26.2,22.5,1.22.74,2.49,2.11,4.26,2,.08-.56.27-1,.15-1.13-3.78-3.24-3.78-3.23-1.08-7.29,3.32-5,6.88-9.85,9.86-15,2.36-4.09,5.71-5.81,10.13-6.12a26.25,26.25,0,0,1,15.41,3.5c-1.11,3.59-4.74,5.31-5.72,9.2,3.37-.25,5.17-2.33,7-4,2.18-2,4-1.76,6.14-.08a44,44,0,0,1,6.2,6.48c3.34,4,3.2,5.57-.54,9.29-2.27,2.26-5.07,3.75-7.74,5.43-1.49.94-3.46,1.31-4.65,4,7.9.05,12.46-6.11,18.87-8.56,3.59,5.65,5.62,11,1.65,17.78a103.55,103.55,0,0,1-21.57,26.62c-2.3,2-4.05,2.23-6.5.35-5.25-4-11.25-7-15.78-11.55a1.89,1.89,0,0,0-1.87,1.81c-1.85,8.11-3.95,16.15-6.43,24.09a8,8,0,0,0,0,2.47Zm15.73-43.66c-1.48-3.35-3.81-4.63-5.76-6.28s-2.94.73-4.41.8a23.71,23.71,0,0,1-4.45-.37c-1.26-.18-2.48-1.08-4.24.3Z"/><path class="cls-1" d="M144.36,186.81c-3.17-8.12-8.5-15.53-10-24.51-1.37-8.08.79-15.46,5-22.4,4.94-8.16,11-15.49,17.17-22.66,2.63-3,3.41-2.78,5.13.89a65.18,65.18,0,0,1,5.08,18.2,28.85,28.85,0,0,1-2,15.62,214.28,214.28,0,0,1-17.37,32.56C146.74,185.44,146.32,186.67,144.36,186.81Z"/><path class="cls-1" d="M114.66,156.67c2.57-4.48,2.26-9,2.07-13.68-.28-6.55.53-13,5.79-17.84,2.44-2.25,5-5,8.67-3.08s5.86,5.33,5.4,9.37a39.59,39.59,0,0,1-9.67,21.92C123.9,156.8,119.65,157.66,114.66,156.67Z"/><path class="cls-1" d="M139.9,131c.08-5.38-1.66-10.16-4-14.7-3.3-6.39-2.63-12.86-.53-19.3,1.24-3.81,2.88-4.15,6.29-1.75,5.19,3.65,9.25,8.53,13.85,12.82a3.09,3.09,0,0,1,.82,4A73.55,73.55,0,0,1,141.4,130.5C141.07,130.78,140.5,130.78,139.9,131Z"/><path class="cls-1" d="M133.95,91.21c-1.87,9.93-8.06,15.6-18,16.94a43.87,43.87,0,0,1-22.4-2.77,14,14,0,0,1-2.22-1.08,9.16,9.16,0,0,1-1.36-1.54c13.71-8.41,28.67-10.83,44.11-11.44Z"/><path class="cls-1" d="M78.27,115.72c3.85-.51,6,1.24,8.24,2.54a57.9,57.9,0,0,1,15.34,13.33c3.71,4.49,7,9.27,10.54,13.9a6.4,6.4,0,0,1,1.42,4.64c-.35,3.72-1.83,4.57-5.19,2.95a36.43,36.43,0,0,1-13.68-11.3C88.92,133.62,84.71,124.33,78.27,115.72Z"/><path class="cls-1" d="M68.47,175.69c-2.38,4.31-3.45,8.63-9.15,10.54,4.22-4.27,4.53-9.47,7.64-13.28a6.06,6.06,0,0,0,1.32-4.18c0-1-.27-2.36.26-2.91,4-4.1,1.06-8.8,1.31-13.19.57-10,1.27-19.95,4.25-30.73,2.23,4.15,2.13,7.65,2.54,10.95.69,5.6.91,11.26,1.36,16.89.28,3.45-.32,6.44-2.93,9.11-4.2,4.27-3.59,9.76-3,15.09.53,4.45,1.66,8.82,1.58,13.34a16.53,16.53,0,0,1-2.83,9.59c0-4.09.16-7.41,0-10.71A28,28,0,0,0,68.47,175.69Z"/><path class="cls-1" d="M128.22,160.24c.8,10.86,8.46,18.13,11,27.73-6-5-12.07-10-15.44-17.36C122.09,166.86,123.2,164.3,128.22,160.24Z"/><path class="cls-1" d="M114.92,181.51c-.9,5-19.3,16.92-26.71,17.74C94.51,188.59,105.74,186.64,114.92,181.51Z"/><path class="cls-1" d="M94.37,120.42c4-1.65,6.52-1.16,8.6,1.35,4.79,5.78,8.26,12.36,11.55,19,.29.58.29,1.29-.9,2.25C108,135.13,101.51,127.94,94.37,120.42Z"/><path class="cls-1" d="M85.37,131.75c2.7,2.4,2.94,5.19.71,7.82s-2.77,6.2-5,9.06C79.32,142.76,79.63,137.4,85.37,131.75Z"/><path class="cls-1" d="M104.39,75.58c2.53-2,7.1-2.8,9.11-1.62.56.33,1.15.74,1.06,1.51a2.49,2.49,0,0,1-1.76,2.18C109.66,78.5,106.73,78.31,104.39,75.58Z"/><text class="cls-2" transform="translate(282.53 160.24)"><tspan class="cls-3">R<tspan class="cls-4" x="43.42" y="0">ed de </tspan><tspan class="cls-5" x="252.92" y="0">C</tspan><tspan class="cls-4" x="298.32" y="0">onocimie</tspan><tspan class="cls-6" x="614.1" y="0">n</tspan><tspan class="cls-7" x="658.18" y="0">t</tspan><tspan class="cls-4" x="685.74" y="0">o</tspan></tspan><tspan class="cls-8" x="0" y="70">G</tspan><tspan x="47.59" y="70" xml:space="preserve">estión de  la </tspan><tspan class="cls-9" x="427.48" y="70">P</tspan><tspan class="cls-10" x="465.2" y="70">r</tspan><tspan x="488.37" y="70">odu</tspan><tspan class="cls-11" x="610.01" y="70">c</tspan><tspan class="cls-12" x="642.32" y="70">ción</tspan></text></g></g></svg>