<svg xmlns="http://www.w3.org/2000/svg" viewBox="0 0 769.59 394.99"><defs><style>.cls-1{fill:#23b276;}.cls-1,.cls-3{opacity:0.1;}.cls-2,.cls-3,.cls-4,.cls-5{fill:none;stroke:#23b276;stroke-miterlimit:10;}.cls-2{opacity:0.2;}.cls-4{opacity:0.07;}</style></defs><title>Asset 1</title><g id="Layer_2" data-name="Layer 2"><g id="Layer_1-2" data-name="Layer 1"><circle class="cls-1" cx="654" cy="195.99" r="9"/><circle class="cls-1" cx="238" cy="385.99" r="9"/><circle class="cls-1" cx="364" cy="18.99" r="9"/><circle class="cls-1" cx="51" cy="27.99" r="9"/><circle class="cls-1" cx="575" cy="376.99" r="9"/><circle class="cls-1" cx="424" cy="223.99" r="9"/><circle class="cls-1" cx="686" cy="325.99" r="9"/><circle class="cls-1" cx="9" cy="136.99" r="9"/><circle class="cls-1" cx="663" cy="18.99" r="9"/><circle class="cls-1" cx="536" cy="103.99" r="9"/><polyline class="cls-2" points="535.5 103.49 662.5 18.49 768.5 179.49"/><polyline class="cls-2" points="768.5 179.49 654 195.99 536 103.99 364 18.99 51.5 27.49"/><polyline class="cls-3" points="769.5 0.49 8.5 137.49 685.5 326.49"/><polyline class="cls-4" points="663.5 19.49 652 195.99 574.5 376.49 238.5 386.49"/><polyline class="cls-2" points="652.5 196.49 423.5 224.49 574.5 377.49"/><line class="cls-5" x1="423.5" y1="224.49" x2="536.5" y2="104.49"/></g></g></svg>